%TF.GenerationSoftware,KiCad,Pcbnew,(6.0.6)*%
%TF.CreationDate,2023-08-03T10:39:42+02:00*%
%TF.ProjectId,SM01,534d3031-2e6b-4696-9361-645f70636258,1.2*%
%TF.SameCoordinates,Original*%
%TF.FileFunction,Copper,L2,Bot*%
%TF.FilePolarity,Positive*%
%FSLAX46Y46*%
G04 Gerber Fmt 4.6, Leading zero omitted, Abs format (unit mm)*
G04 Created by KiCad (PCBNEW (6.0.6)) date 2023-08-03 10:39:42*
%MOMM*%
%LPD*%
G01*
G04 APERTURE LIST*
%TA.AperFunction,ComponentPad*%
%ADD10R,1.600000X1.600000*%
%TD*%
%TA.AperFunction,ComponentPad*%
%ADD11O,1.600000X1.600000*%
%TD*%
%TA.AperFunction,ComponentPad*%
%ADD12C,1.600000*%
%TD*%
%TA.AperFunction,ComponentPad*%
%ADD13R,2.200000X2.200000*%
%TD*%
%TA.AperFunction,ComponentPad*%
%ADD14O,2.200000X2.200000*%
%TD*%
%TA.AperFunction,ComponentPad*%
%ADD15R,3.000000X3.000000*%
%TD*%
%TA.AperFunction,ComponentPad*%
%ADD16C,3.000000*%
%TD*%
%TA.AperFunction,ComponentPad*%
%ADD17R,1.500000X1.050000*%
%TD*%
%TA.AperFunction,ComponentPad*%
%ADD18O,1.500000X1.050000*%
%TD*%
%TA.AperFunction,ComponentPad*%
%ADD19C,2.000000*%
%TD*%
%TA.AperFunction,ComponentPad*%
%ADD20R,1.905000X2.000000*%
%TD*%
%TA.AperFunction,ComponentPad*%
%ADD21O,1.905000X2.000000*%
%TD*%
%TA.AperFunction,ComponentPad*%
%ADD22R,1.700000X1.700000*%
%TD*%
%TA.AperFunction,ComponentPad*%
%ADD23O,1.700000X1.700000*%
%TD*%
%TA.AperFunction,ComponentPad*%
%ADD24R,1.800000X1.800000*%
%TD*%
%TA.AperFunction,ComponentPad*%
%ADD25C,1.800000*%
%TD*%
%TA.AperFunction,Conductor*%
%ADD26C,0.750000*%
%TD*%
G04 APERTURE END LIST*
D10*
%TO.P,A1,1,D1/TX*%
%TO.N,Net-(A1-Pad1)*%
X30480000Y-71120000D03*
D11*
%TO.P,A1,2,D0/RX*%
%TO.N,Net-(A1-Pad2)*%
X33020000Y-71120000D03*
%TO.P,A1,3,~{RESET}*%
%TO.N,unconnected-(A1-Pad3)*%
X35560000Y-71120000D03*
%TO.P,A1,4,GND*%
%TO.N,unconnected-(A1-Pad4)*%
X38100000Y-71120000D03*
%TO.P,A1,5,D2*%
%TO.N,DCC*%
X40640000Y-71120000D03*
%TO.P,A1,6,D3*%
%TO.N,SET_A*%
X43180000Y-71120000D03*
%TO.P,A1,7,D4*%
%TO.N,RESET_A*%
X45720000Y-71120000D03*
%TO.P,A1,8,D5*%
%TO.N,SET_B*%
X48260000Y-71120000D03*
%TO.P,A1,9,D6*%
%TO.N,RESET_B*%
X50800000Y-71120000D03*
%TO.P,A1,10,D7*%
%TO.N,SW_MODE*%
X53340000Y-71120000D03*
%TO.P,A1,11,D8*%
%TO.N,SW_POS_A*%
X55880000Y-71120000D03*
%TO.P,A1,12,D9*%
%TO.N,SW_POS_B*%
X58420000Y-71120000D03*
%TO.P,A1,13,D10*%
%TO.N,Net-(A1-Pad13)*%
X60960000Y-71120000D03*
%TO.P,A1,14,D11*%
%TO.N,Net-(A1-Pad14)*%
X63500000Y-71120000D03*
%TO.P,A1,15,D12*%
%TO.N,unconnected-(A1-Pad15)*%
X66040000Y-71120000D03*
%TO.P,A1,16,D13*%
%TO.N,unconnected-(A1-Pad16)*%
X66040000Y-55880000D03*
%TO.P,A1,17,3V3*%
%TO.N,unconnected-(A1-Pad17)*%
X63500000Y-55880000D03*
%TO.P,A1,18,AREF*%
%TO.N,unconnected-(A1-Pad18)*%
X60960000Y-55880000D03*
%TO.P,A1,19,A0*%
%TO.N,Net-(A1-Pad19)*%
X58420000Y-55880000D03*
%TO.P,A1,20,A1*%
%TO.N,Net-(A1-Pad20)*%
X55880000Y-55880000D03*
%TO.P,A1,21,A2*%
%TO.N,Net-(A1-Pad21)*%
X53340000Y-55880000D03*
%TO.P,A1,22,A3*%
%TO.N,Net-(A1-Pad22)*%
X50800000Y-55880000D03*
%TO.P,A1,23,A4*%
%TO.N,unconnected-(A1-Pad23)*%
X48260000Y-55880000D03*
%TO.P,A1,24,A5*%
%TO.N,unconnected-(A1-Pad24)*%
X45720000Y-55880000D03*
%TO.P,A1,25,A6*%
%TO.N,unconnected-(A1-Pad25)*%
X43180000Y-55880000D03*
%TO.P,A1,26,A7*%
%TO.N,unconnected-(A1-Pad26)*%
X40640000Y-55880000D03*
%TO.P,A1,27,+5V*%
%TO.N,unconnected-(A1-Pad27)*%
X38100000Y-55880000D03*
%TO.P,A1,28,~{RESET}*%
%TO.N,unconnected-(A1-Pad28)*%
X35560000Y-55880000D03*
%TO.P,A1,29,GND*%
%TO.N,GND*%
X33020000Y-55880000D03*
%TO.P,A1,30,VIN*%
%TO.N,+5V*%
X30480000Y-55880000D03*
%TD*%
D10*
%TO.P,C1,1*%
%TO.N,VCC*%
X16510000Y-38100000D03*
D12*
%TO.P,C1,2*%
%TO.N,GND*%
X19010000Y-38100000D03*
%TD*%
D10*
%TO.P,C2,1*%
%TO.N,+5V*%
X36830000Y-38100000D03*
D12*
%TO.P,C2,2*%
%TO.N,GND*%
X34330000Y-38100000D03*
%TD*%
D13*
%TO.P,D1,1,K*%
%TO.N,VCC*%
X35560000Y-31750000D03*
D14*
%TO.P,D1,2,A*%
%TO.N,Net-(D1-Pad2)*%
X35560000Y-21590000D03*
%TD*%
D13*
%TO.P,D2,1,K*%
%TO.N,Net-(D1-Pad2)*%
X29210000Y-27940000D03*
D14*
%TO.P,D2,2,A*%
%TO.N,GND*%
X29210000Y-38100000D03*
%TD*%
D13*
%TO.P,D3,1,K*%
%TO.N,VCC*%
X17780000Y-31750000D03*
D14*
%TO.P,D3,2,A*%
%TO.N,Net-(D3-Pad2)*%
X17780000Y-21590000D03*
%TD*%
D13*
%TO.P,D4,1,K*%
%TO.N,Net-(D3-Pad2)*%
X24130000Y-27940000D03*
D14*
%TO.P,D4,2,A*%
%TO.N,GND*%
X24130000Y-38100000D03*
%TD*%
D13*
%TO.P,D10,1,K*%
%TO.N,VCC*%
X52070000Y-80010000D03*
D14*
%TO.P,D10,2,A*%
%TO.N,Net-(D10-Pad2)*%
X62230000Y-80010000D03*
%TD*%
D13*
%TO.P,D11,1,K*%
%TO.N,VCC*%
X52070000Y-76200000D03*
D14*
%TO.P,D11,2,A*%
%TO.N,Net-(D11-Pad2)*%
X62230000Y-76200000D03*
%TD*%
D15*
%TO.P,J1,1,Pin_1*%
%TO.N,Net-(J1-Pad1)*%
X60960000Y-21590000D03*
D16*
%TO.P,J1,2,Pin_2*%
%TO.N,Net-(D5-Pad2)*%
X55880000Y-21590000D03*
%TD*%
D15*
%TO.P,J2,1,Pin_1*%
%TO.N,Net-(D1-Pad2)*%
X29210000Y-21590000D03*
D16*
%TO.P,J2,2,Pin_2*%
%TO.N,Net-(D3-Pad2)*%
X24130000Y-21590000D03*
%TD*%
D15*
%TO.P,J3,1,Pin_1*%
%TO.N,SW_POS_A*%
X77470000Y-21590000D03*
D16*
%TO.P,J3,2,Pin_2*%
%TO.N,+5V*%
X72390000Y-21590000D03*
%TO.P,J3,3,Pin_3*%
%TO.N,SW_POS_B*%
X67310000Y-21590000D03*
%TD*%
D15*
%TO.P,J8,1,Pin_1*%
%TO.N,Net-(J12-Pad1)*%
X17780000Y-111760000D03*
D16*
%TO.P,J8,2,Pin_2*%
%TO.N,Net-(J12-Pad2)*%
X22860000Y-111760000D03*
%TO.P,J8,3,Pin_3*%
%TO.N,Net-(J12-Pad3)*%
X27940000Y-111760000D03*
%TD*%
D15*
%TO.P,J9,1,Pin_1*%
%TO.N,Net-(J13-Pad1)*%
X34290000Y-111760000D03*
D16*
%TO.P,J9,2,Pin_2*%
%TO.N,Net-(J13-Pad2)*%
X39370000Y-111760000D03*
%TO.P,J9,3,Pin_3*%
%TO.N,Net-(J13-Pad3)*%
X44450000Y-111760000D03*
%TD*%
D15*
%TO.P,J10,1,Pin_1*%
%TO.N,Net-(J10-Pad1)*%
X50800000Y-111760000D03*
D16*
%TO.P,J10,2,Pin_2*%
%TO.N,Net-(J10-Pad2)*%
X55880000Y-111760000D03*
%TO.P,J10,3,Pin_3*%
%TO.N,Net-(J10-Pad3)*%
X60960000Y-111760000D03*
%TD*%
D15*
%TO.P,J11,1,Pin_1*%
%TO.N,Net-(J11-Pad1)*%
X67310000Y-111760000D03*
D16*
%TO.P,J11,2,Pin_2*%
%TO.N,Net-(J11-Pad2)*%
X72390000Y-111760000D03*
%TO.P,J11,3,Pin_3*%
%TO.N,Net-(J11-Pad3)*%
X77470000Y-111760000D03*
%TD*%
D10*
%TO.P,K1,1*%
%TO.N,VCC*%
X20320000Y-85090000D03*
D11*
%TO.P,K1,2*%
X20320000Y-87630000D03*
%TO.P,K1,3*%
%TO.N,N/C*%
X20320000Y-90170000D03*
%TO.P,K1,4*%
%TO.N,Net-(J12-Pad2)*%
X20320000Y-92710000D03*
%TO.P,K1,5*%
%TO.N,N/C*%
X20320000Y-95250000D03*
%TO.P,K1,6*%
%TO.N,Net-(J12-Pad1)*%
X20320000Y-97790000D03*
%TO.P,K1,7*%
%TO.N,N/C*%
X20320000Y-100330000D03*
%TO.P,K1,8*%
%TO.N,Net-(J12-Pad3)*%
X20320000Y-102870000D03*
%TO.P,K1,9*%
%TO.N,Net-(J13-Pad3)*%
X27940000Y-102870000D03*
%TO.P,K1,10*%
%TO.N,N/C*%
X27940000Y-100330000D03*
%TO.P,K1,11*%
%TO.N,Net-(J13-Pad1)*%
X27940000Y-97790000D03*
%TO.P,K1,12*%
%TO.N,N/C*%
X27940000Y-95250000D03*
%TO.P,K1,13*%
%TO.N,Net-(J13-Pad2)*%
X27940000Y-92710000D03*
%TO.P,K1,14*%
%TO.N,N/C*%
X27940000Y-90170000D03*
%TO.P,K1,15*%
%TO.N,Net-(D11-Pad2)*%
X27940000Y-87630000D03*
%TO.P,K1,16*%
%TO.N,Net-(D10-Pad2)*%
X27940000Y-85090000D03*
%TD*%
D10*
%TO.P,K2,1*%
%TO.N,VCC*%
X53340000Y-85090000D03*
D11*
%TO.P,K2,2*%
X53340000Y-87630000D03*
%TO.P,K2,3*%
%TO.N,N/C*%
X53340000Y-90170000D03*
%TO.P,K2,4*%
%TO.N,Net-(J10-Pad2)*%
X53340000Y-92710000D03*
%TO.P,K2,5*%
%TO.N,N/C*%
X53340000Y-95250000D03*
%TO.P,K2,6*%
%TO.N,Net-(J10-Pad1)*%
X53340000Y-97790000D03*
%TO.P,K2,7*%
%TO.N,N/C*%
X53340000Y-100330000D03*
%TO.P,K2,8*%
%TO.N,Net-(J10-Pad3)*%
X53340000Y-102870000D03*
%TO.P,K2,9*%
%TO.N,Net-(J11-Pad3)*%
X60960000Y-102870000D03*
%TO.P,K2,10*%
%TO.N,N/C*%
X60960000Y-100330000D03*
%TO.P,K2,11*%
%TO.N,Net-(J11-Pad1)*%
X60960000Y-97790000D03*
%TO.P,K2,12*%
%TO.N,N/C*%
X60960000Y-95250000D03*
%TO.P,K2,13*%
%TO.N,Net-(J11-Pad2)*%
X60960000Y-92710000D03*
%TO.P,K2,14*%
%TO.N,N/C*%
X60960000Y-90170000D03*
%TO.P,K2,15*%
%TO.N,Net-(D13-Pad2)*%
X60960000Y-87630000D03*
%TO.P,K2,16*%
%TO.N,Net-(D12-Pad2)*%
X60960000Y-85090000D03*
%TD*%
D17*
%TO.P,Q4,1,C*%
%TO.N,Net-(D13-Pad2)*%
X74930000Y-87630000D03*
D18*
%TO.P,Q4,2,B*%
%TO.N,Net-(Q4-Pad2)*%
X74930000Y-86360000D03*
%TO.P,Q4,3,E*%
%TO.N,GND*%
X74930000Y-85090000D03*
%TD*%
D12*
%TO.P,R1,1*%
%TO.N,Net-(D5-Pad1)*%
X54610000Y-29210000D03*
D11*
%TO.P,R1,2*%
%TO.N,Net-(J1-Pad1)*%
X67310000Y-29210000D03*
%TD*%
D12*
%TO.P,R2,1*%
%TO.N,SW_MODE*%
X78740000Y-34290000D03*
D11*
%TO.P,R2,2*%
%TO.N,GND*%
X68580000Y-34290000D03*
%TD*%
D12*
%TO.P,R3,1*%
%TO.N,SW_POS_A*%
X78740000Y-38100000D03*
D11*
%TO.P,R3,2*%
%TO.N,GND*%
X68580000Y-38100000D03*
%TD*%
D12*
%TO.P,R4,1*%
%TO.N,SW_POS_B*%
X77470000Y-52070000D03*
D11*
%TO.P,R4,2*%
%TO.N,GND*%
X77470000Y-41910000D03*
%TD*%
D12*
%TO.P,R5,1*%
%TO.N,+5V*%
X64770000Y-34290000D03*
D11*
%TO.P,R5,2*%
%TO.N,Net-(R5-Pad2)*%
X54610000Y-34290000D03*
%TD*%
D12*
%TO.P,R6,1*%
%TO.N,+5V*%
X50800000Y-39370000D03*
D11*
%TO.P,R6,2*%
%TO.N,DCC*%
X40640000Y-39370000D03*
%TD*%
D12*
%TO.P,R7,1*%
%TO.N,GND*%
X34290000Y-44450000D03*
D11*
%TO.P,R7,2*%
%TO.N,Net-(D6-Pad1)*%
X44450000Y-44450000D03*
%TD*%
D12*
%TO.P,R8,1*%
%TO.N,GND*%
X54610000Y-38100000D03*
D11*
%TO.P,R8,2*%
%TO.N,Net-(D8-Pad1)*%
X64770000Y-38100000D03*
%TD*%
D12*
%TO.P,R9,1*%
%TO.N,SET_A*%
X33020000Y-80010000D03*
D11*
%TO.P,R9,2*%
%TO.N,Net-(Q1-Pad2)*%
X43180000Y-80010000D03*
%TD*%
D12*
%TO.P,R10,1*%
%TO.N,RESET_A*%
X41910000Y-91440000D03*
D11*
%TO.P,R10,2*%
%TO.N,Net-(Q2-Pad2)*%
X31750000Y-91440000D03*
%TD*%
D12*
%TO.P,R12,1*%
%TO.N,RESET_B*%
X66040000Y-91440000D03*
D11*
%TO.P,R12,2*%
%TO.N,Net-(Q4-Pad2)*%
X76200000Y-91440000D03*
%TD*%
D19*
%TO.P,SW1,1,1*%
%TO.N,+5V*%
X21590000Y-48260000D03*
X21590000Y-54760000D03*
%TO.P,SW1,2,2*%
%TO.N,SW_MODE*%
X17090000Y-54760000D03*
X17090000Y-48260000D03*
%TD*%
%TO.P,SW2,1,1*%
%TO.N,+5V*%
X53340000Y-50950000D03*
X53340000Y-44450000D03*
%TO.P,SW2,2,2*%
%TO.N,SW_POS_A*%
X48840000Y-44450000D03*
X48840000Y-50950000D03*
%TD*%
%TO.P,SW3,1,1*%
%TO.N,+5V*%
X72390000Y-50950000D03*
X72390000Y-44450000D03*
%TO.P,SW3,2,2*%
%TO.N,SW_POS_B*%
X67890000Y-44450000D03*
X67890000Y-50950000D03*
%TD*%
D10*
%TO.P,U1,1,NC*%
%TO.N,unconnected-(U1-Pad1)*%
X50800000Y-26670000D03*
D11*
%TO.P,U1,2,A*%
%TO.N,Net-(D5-Pad1)*%
X48260000Y-26670000D03*
%TO.P,U1,3,C*%
%TO.N,Net-(D5-Pad2)*%
X45720000Y-26670000D03*
%TO.P,U1,4*%
%TO.N,N/C*%
X43180000Y-26670000D03*
%TO.P,U1,5,GND*%
%TO.N,GND*%
X43180000Y-34290000D03*
%TO.P,U1,6,VO*%
%TO.N,DCC*%
X45720000Y-34290000D03*
%TO.P,U1,7,EN*%
%TO.N,Net-(R5-Pad2)*%
X48260000Y-34290000D03*
%TO.P,U1,8,VCC*%
%TO.N,+5V*%
X50800000Y-34290000D03*
%TD*%
D20*
%TO.P,U2,1,VI*%
%TO.N,VCC*%
X24130000Y-44450000D03*
D21*
%TO.P,U2,2,GND*%
%TO.N,GND*%
X26670000Y-44450000D03*
%TO.P,U2,3,VO*%
%TO.N,+5V*%
X29210000Y-44450000D03*
%TD*%
D22*
%TO.P,J5,1,Pin_1*%
%TO.N,VCC*%
X21590000Y-59690000D03*
D23*
%TO.P,J5,2,Pin_2*%
%TO.N,Net-(A1-Pad2)*%
X21590000Y-62230000D03*
%TO.P,J5,3,Pin_3*%
%TO.N,Net-(A1-Pad1)*%
X21590000Y-64770000D03*
%TO.P,J5,4,Pin_4*%
%TO.N,GND*%
X21590000Y-67310000D03*
%TD*%
D18*
%TO.P,Q1,3,E*%
%TO.N,GND*%
X34290000Y-85090000D03*
%TO.P,Q1,2,B*%
%TO.N,Net-(Q1-Pad2)*%
X34290000Y-86360000D03*
D17*
%TO.P,Q1,1,C*%
%TO.N,Net-(D10-Pad2)*%
X34290000Y-87630000D03*
%TD*%
%TO.P,Q3,1,C*%
%TO.N,Net-(D12-Pad2)*%
X67310000Y-87630000D03*
D18*
%TO.P,Q3,2,B*%
%TO.N,Net-(Q3-Pad2)*%
X67310000Y-86360000D03*
%TO.P,Q3,3,E*%
%TO.N,GND*%
X67310000Y-85090000D03*
%TD*%
D17*
%TO.P,Q2,1,C*%
%TO.N,Net-(D11-Pad2)*%
X41910000Y-87630000D03*
D18*
%TO.P,Q2,2,B*%
%TO.N,Net-(Q2-Pad2)*%
X41910000Y-86360000D03*
%TO.P,Q2,3,E*%
%TO.N,GND*%
X41910000Y-85090000D03*
%TD*%
D10*
%TO.P,D5,1,K*%
%TO.N,Net-(D5-Pad1)*%
X50800000Y-22860000D03*
D11*
%TO.P,D5,2,A*%
%TO.N,Net-(D5-Pad2)*%
X43180000Y-22860000D03*
%TD*%
D23*
%TO.P,J6,3,Pin_3*%
%TO.N,GND*%
X40640000Y-76200000D03*
%TO.P,J6,2,Pin_2*%
%TO.N,+5V*%
X38100000Y-76200000D03*
D22*
%TO.P,J6,1,Pin_1*%
%TO.N,Net-(A1-Pad13)*%
X35560000Y-76200000D03*
%TD*%
%TO.P,J7,1,Pin_1*%
%TO.N,Net-(A1-Pad14)*%
X68580000Y-76200000D03*
D23*
%TO.P,J7,2,Pin_2*%
%TO.N,+5V*%
X71120000Y-76200000D03*
%TO.P,J7,3,Pin_3*%
%TO.N,GND*%
X73660000Y-76200000D03*
%TD*%
D12*
%TO.P,R11,1*%
%TO.N,SET_B*%
X66040000Y-80010000D03*
D11*
%TO.P,R11,2*%
%TO.N,Net-(Q3-Pad2)*%
X76200000Y-80010000D03*
%TD*%
D22*
%TO.P,J4,1,Pin_1*%
%TO.N,SW_POS_A*%
X77470000Y-29210000D03*
D23*
%TO.P,J4,2,Pin_2*%
%TO.N,+5V*%
X74930000Y-29210000D03*
%TO.P,J4,3,Pin_3*%
%TO.N,SW_POS_B*%
X72390000Y-29210000D03*
%TD*%
D22*
%TO.P,J12,1,Pin_1*%
%TO.N,Net-(J12-Pad1)*%
X33020000Y-97790000D03*
D23*
%TO.P,J12,2,Pin_2*%
%TO.N,Net-(J12-Pad2)*%
X33020000Y-100330000D03*
%TO.P,J12,3,Pin_3*%
%TO.N,Net-(J12-Pad3)*%
X33020000Y-102870000D03*
%TD*%
D22*
%TO.P,J13,1,Pin_1*%
%TO.N,Net-(J13-Pad1)*%
X40640000Y-97790000D03*
D23*
%TO.P,J13,2,Pin_2*%
%TO.N,Net-(J13-Pad2)*%
X40640000Y-100330000D03*
%TO.P,J13,3,Pin_3*%
%TO.N,Net-(J13-Pad3)*%
X40640000Y-102870000D03*
%TD*%
D22*
%TO.P,J14,1,Pin_1*%
%TO.N,Net-(J10-Pad1)*%
X67310000Y-97790000D03*
D23*
%TO.P,J14,2,Pin_2*%
%TO.N,Net-(J10-Pad2)*%
X67310000Y-100330000D03*
%TO.P,J14,3,Pin_3*%
%TO.N,Net-(J10-Pad3)*%
X67310000Y-102870000D03*
%TD*%
D22*
%TO.P,J15,1,Pin_1*%
%TO.N,Net-(J11-Pad1)*%
X74930000Y-97790000D03*
D23*
%TO.P,J15,2,Pin_2*%
%TO.N,Net-(J11-Pad2)*%
X74930000Y-100330000D03*
%TO.P,J15,3,Pin_3*%
%TO.N,Net-(J11-Pad3)*%
X74930000Y-102870000D03*
%TD*%
D24*
%TO.P,D6,1,K*%
%TO.N,Net-(D6-Pad1)*%
X36830000Y-48260000D03*
D25*
%TO.P,D6,2,A*%
%TO.N,Net-(A1-Pad19)*%
X36830000Y-50800000D03*
%TD*%
D24*
%TO.P,D7,1,K*%
%TO.N,Net-(D6-Pad1)*%
X41910000Y-48260000D03*
D25*
%TO.P,D7,2,A*%
%TO.N,Net-(A1-Pad20)*%
X41910000Y-50800000D03*
%TD*%
D24*
%TO.P,D8,1,K*%
%TO.N,Net-(D8-Pad1)*%
X58420000Y-48260000D03*
D25*
%TO.P,D8,2,A*%
%TO.N,Net-(A1-Pad21)*%
X58420000Y-50800000D03*
%TD*%
D24*
%TO.P,D9,1,K*%
%TO.N,Net-(D8-Pad1)*%
X63500000Y-48260000D03*
D25*
%TO.P,D9,2,A*%
%TO.N,Net-(A1-Pad22)*%
X63500000Y-50800000D03*
%TD*%
D13*
%TO.P,D12,1,K*%
%TO.N,VCC*%
X19050000Y-76200000D03*
D14*
%TO.P,D12,2,A*%
%TO.N,Net-(D12-Pad2)*%
X29210000Y-76200000D03*
%TD*%
D13*
%TO.P,D13,1,K*%
%TO.N,VCC*%
X19050000Y-80010000D03*
D14*
%TO.P,D13,2,A*%
%TO.N,Net-(D13-Pad2)*%
X29210000Y-80010000D03*
%TD*%
D26*
%TO.N,Net-(A1-Pad1)*%
X23015300Y-64770000D02*
X23015300Y-65030600D01*
X21590000Y-64770000D02*
X23015300Y-64770000D01*
X30480000Y-71120000D02*
X29104700Y-71120000D01*
X23015300Y-65030600D02*
X29104700Y-71120000D01*
%TO.N,Net-(A1-Pad2)*%
X24130000Y-62230000D02*
X33020000Y-71120000D01*
X21590000Y-62230000D02*
X24130000Y-62230000D01*
%TO.N,Net-(A1-Pad19)*%
X38310400Y-52280400D02*
X45022500Y-52280400D01*
X59919900Y-53004800D02*
X58420000Y-54504700D01*
X58420000Y-55880000D02*
X58420000Y-54504700D01*
X36830000Y-50800000D02*
X38310400Y-52280400D01*
X45022500Y-52280400D02*
X50518300Y-46784600D01*
X59619200Y-46784600D02*
X59919900Y-47085300D01*
X50518300Y-46784600D02*
X59619200Y-46784600D01*
X59919900Y-47085300D02*
X59919900Y-53004800D01*
%TO.N,DCC*%
X45720000Y-35665300D02*
X42015300Y-39370000D01*
X40640000Y-40745300D02*
X35359900Y-46025400D01*
X40640000Y-39370000D02*
X40640000Y-40745300D01*
X40640000Y-39370000D02*
X42015300Y-39370000D01*
X18308000Y-58223100D02*
X27743100Y-58223100D01*
X15499100Y-55414200D02*
X18308000Y-58223100D01*
X23589600Y-51510000D02*
X18101700Y-51510000D01*
X18101700Y-51510000D02*
X15499100Y-54112600D01*
X45720000Y-34290000D02*
X45720000Y-35665300D01*
X35359900Y-46025400D02*
X29074200Y-46025400D01*
X29074200Y-46025400D02*
X23589600Y-51510000D01*
X27743100Y-58223100D02*
X40640000Y-71120000D01*
X15499100Y-54112600D02*
X15499100Y-55414200D01*
%TO.N,Net-(A1-Pad21)*%
X58420000Y-50800000D02*
X54715300Y-54504700D01*
X54715300Y-54504700D02*
X53340000Y-54504700D01*
X53340000Y-55880000D02*
X53340000Y-54504700D01*
%TO.N,SET_A*%
X33020000Y-80010000D02*
X38861200Y-80010000D01*
X43180000Y-75691200D02*
X43180000Y-71120000D01*
X38861200Y-80010000D02*
X43180000Y-75691200D01*
%TO.N,Net-(A1-Pad22)*%
X67429400Y-54729400D02*
X67429400Y-56478800D01*
X52192700Y-57272700D02*
X50800000Y-55880000D01*
X67429400Y-56478800D02*
X66635500Y-57272700D01*
X63500000Y-50800000D02*
X67429400Y-54729400D01*
X66635500Y-57272700D02*
X52192700Y-57272700D01*
%TO.N,SET_B*%
X51664600Y-74524600D02*
X48260000Y-71120000D01*
X64146000Y-78116000D02*
X56999600Y-78116000D01*
X66040000Y-80010000D02*
X64146000Y-78116000D01*
X53408200Y-74524600D02*
X51664600Y-74524600D01*
X56999600Y-78116000D02*
X53408200Y-74524600D01*
%TO.N,SW_MODE*%
X53340000Y-69400400D02*
X55851700Y-69400400D01*
X66308900Y-50283300D02*
X68245300Y-48346900D01*
X53340000Y-69400400D02*
X53340000Y-69744700D01*
X53340000Y-71120000D02*
X53340000Y-69744700D01*
X41212400Y-57272800D02*
X19602800Y-57272800D01*
X19602800Y-57272800D02*
X17090000Y-54760000D01*
X68245300Y-48346900D02*
X73030800Y-48346900D01*
X55851700Y-69400400D02*
X68432900Y-56819200D01*
X80115800Y-35665800D02*
X78740000Y-34290000D01*
X80115800Y-41261900D02*
X80115800Y-35665800D01*
X68432900Y-56819200D02*
X68432900Y-53917900D01*
X66308900Y-51793900D02*
X66308900Y-50283300D01*
X73030800Y-48346900D02*
X80115800Y-41261900D01*
X68432900Y-53917900D02*
X66308900Y-51793900D01*
X53340000Y-69400400D02*
X41212400Y-57272800D01*
%TO.N,RESET_B*%
X65956500Y-83405000D02*
X68372100Y-80989400D01*
X68372100Y-79011300D02*
X62841300Y-73480500D01*
X53160500Y-73480500D02*
X50800000Y-71120000D01*
X66040000Y-91440000D02*
X65956500Y-91356500D01*
X65956500Y-91356500D02*
X65956500Y-83405000D01*
X62841300Y-73480500D02*
X53160500Y-73480500D01*
X68372100Y-80989400D02*
X68372100Y-79011300D01*
%TO.N,SW_POS_A*%
X77324000Y-30781300D02*
X77470000Y-30635300D01*
X50358000Y-44450000D02*
X48840000Y-44450000D01*
X58124000Y-36684000D02*
X50358000Y-44450000D01*
X77324000Y-36684000D02*
X77324000Y-30781300D01*
X78740000Y-38100000D02*
X77324000Y-36684000D01*
X77324000Y-36684000D02*
X58124000Y-36684000D01*
X77470000Y-29210000D02*
X77470000Y-30635300D01*
%TO.N,SW_POS_B*%
X77011400Y-52528600D02*
X77470000Y-52070000D01*
X72390000Y-27784700D02*
X67310000Y-22704700D01*
X58420000Y-71120000D02*
X58420000Y-69744700D01*
X69468600Y-58696100D02*
X58420000Y-69744700D01*
X69468600Y-52528600D02*
X77011400Y-52528600D01*
X67890000Y-50950000D02*
X69468600Y-52528600D01*
X67310000Y-22704700D02*
X67310000Y-21590000D01*
X72390000Y-29210000D02*
X72390000Y-27784700D01*
X69468600Y-52528600D02*
X69468600Y-58696100D01*
%TO.N,GND*%
X38140000Y-34290000D02*
X43180000Y-34290000D01*
X65801600Y-35693100D02*
X57016900Y-35693100D01*
X73765300Y-41910000D02*
X69955300Y-38100000D01*
X24130000Y-38100000D02*
X19010000Y-38100000D01*
X67204700Y-34290000D02*
X65801600Y-35693100D01*
X29210000Y-38100000D02*
X26670000Y-38100000D01*
X68580000Y-38100000D02*
X69955300Y-38100000D01*
X23015300Y-67310000D02*
X29652000Y-73946700D01*
X26670000Y-38100000D02*
X24130000Y-38100000D01*
X21590000Y-67310000D02*
X23015300Y-67310000D01*
X77470000Y-41910000D02*
X73765300Y-41910000D01*
X38386700Y-73946700D02*
X40640000Y-76200000D01*
X34330000Y-38100000D02*
X38140000Y-34290000D01*
X57016900Y-35693100D02*
X54610000Y-38100000D01*
X26670000Y-38100000D02*
X26670000Y-44450000D01*
X68580000Y-34290000D02*
X67204700Y-34290000D01*
X29652000Y-73946700D02*
X38386700Y-73946700D01*
%TO.N,Net-(A1-Pad14)*%
X68580000Y-76200000D02*
X68580000Y-74774700D01*
X68580000Y-74774700D02*
X67154700Y-74774700D01*
X67154700Y-74774700D02*
X63500000Y-71120000D01*
%TO.N,+5V*%
X27984700Y-54760000D02*
X29104700Y-55880000D01*
X25400000Y-48260000D02*
X29210000Y-44450000D01*
X74930000Y-29210000D02*
X72053900Y-32086100D01*
X36830000Y-38100000D02*
X36830000Y-39475300D01*
X30480000Y-55880000D02*
X29104700Y-55880000D01*
X21590000Y-48260000D02*
X25400000Y-48260000D01*
X21590000Y-54760000D02*
X27984700Y-54760000D01*
X66973900Y-32086100D02*
X64770000Y-34290000D01*
X29210000Y-44450000D02*
X30737800Y-44450000D01*
X72053900Y-32086100D02*
X66973900Y-32086100D01*
X30737800Y-44450000D02*
X35712500Y-39475300D01*
X35712500Y-39475300D02*
X36830000Y-39475300D01*
%TO.N,VCC*%
X20320000Y-85090000D02*
X21695300Y-85090000D01*
X16510000Y-38100000D02*
X16510000Y-39475300D01*
X22602200Y-44450000D02*
X17627500Y-39475300D01*
X23070600Y-83714700D02*
X36515900Y-83714700D01*
X44030600Y-76200000D02*
X52070000Y-76200000D01*
X24130000Y-44450000D02*
X22602200Y-44450000D01*
X17627500Y-39475300D02*
X16510000Y-39475300D01*
X36515900Y-83714700D02*
X44030600Y-76200000D01*
X21695300Y-85090000D02*
X23070600Y-83714700D01*
%TO.N,Net-(D3-Pad2)*%
X24130000Y-27940000D02*
X24130000Y-26264700D01*
X24130000Y-21590000D02*
X24130000Y-26264700D01*
X24130000Y-21590000D02*
X17780000Y-21590000D01*
%TO.N,Net-(D5-Pad1)*%
X48710100Y-26325200D02*
X48710100Y-26670000D01*
X48710100Y-27047600D02*
X50872500Y-29210000D01*
X50800000Y-24235300D02*
X48710100Y-26325200D01*
X48710100Y-26670000D02*
X48710100Y-27047600D01*
X48710100Y-26670000D02*
X48260000Y-26670000D01*
X50800000Y-22860000D02*
X50800000Y-24235300D01*
X50872500Y-29210000D02*
X54610000Y-29210000D01*
%TO.N,Net-(D10-Pad2)*%
X31855300Y-87630000D02*
X34290000Y-87630000D01*
X34290000Y-87630000D02*
X36083500Y-87630000D01*
X36083500Y-87630000D02*
X41905700Y-81807800D01*
X58756900Y-81807800D02*
X60554700Y-80010000D01*
X41905700Y-81807800D02*
X58756900Y-81807800D01*
X27940000Y-85090000D02*
X29315300Y-85090000D01*
X62230000Y-80010000D02*
X60554700Y-80010000D01*
X29315300Y-85090000D02*
X31855300Y-87630000D01*
%TO.N,Net-(D11-Pad2)*%
X30371300Y-92059000D02*
X30371300Y-90061300D01*
X41910000Y-87630000D02*
X41910000Y-87630100D01*
X65256200Y-82761400D02*
X67421800Y-80595800D01*
X67421800Y-80595800D02*
X67421800Y-79445000D01*
X48103900Y-82761400D02*
X65256200Y-82761400D01*
X30371300Y-90061300D02*
X27940000Y-87630000D01*
X64176800Y-76200000D02*
X62230000Y-76200000D01*
X41910000Y-87630100D02*
X36674800Y-92865300D01*
X31177600Y-92865300D02*
X30371300Y-92059000D01*
X41910000Y-87630000D02*
X43235300Y-87630000D01*
X67421800Y-79445000D02*
X64176800Y-76200000D01*
X36674800Y-92865300D02*
X31177600Y-92865300D01*
X43235300Y-87630000D02*
X48103900Y-82761400D01*
%TO.N,Net-(J10-Pad3)*%
X67310000Y-104295300D02*
X60960000Y-110645300D01*
X67310000Y-102870000D02*
X67310000Y-104295300D01*
X60960000Y-110645300D02*
X60960000Y-111760000D01*
%TO.N,Net-(J10-Pad2)*%
X67310000Y-100330000D02*
X55880000Y-111760000D01*
%TO.N,Net-(J10-Pad1)*%
X52875300Y-111749600D02*
X52875300Y-111760000D01*
X50800000Y-111760000D02*
X52875300Y-111760000D01*
X60379500Y-104245400D02*
X54715300Y-98581200D01*
X54715300Y-98581200D02*
X54715300Y-97790000D01*
X61602000Y-104245400D02*
X60379500Y-104245400D01*
X60379500Y-104245400D02*
X52875300Y-111749600D01*
X53340000Y-97790000D02*
X54715300Y-97790000D01*
X67310000Y-97790000D02*
X63590400Y-101509600D01*
X63590400Y-101509600D02*
X63590400Y-102257000D01*
X63590400Y-102257000D02*
X61602000Y-104245400D01*
%TO.N,Net-(Q1-Pad2)*%
X43180000Y-80010000D02*
X41804700Y-80010000D01*
X35615300Y-86199400D02*
X35615300Y-86360000D01*
X34290000Y-86360000D02*
X35615300Y-86360000D01*
X41804700Y-80010000D02*
X35615300Y-86199400D01*
%TO.N,Net-(Q2-Pad2)*%
X34533400Y-91440000D02*
X39613400Y-86360000D01*
X39613400Y-86360000D02*
X41910000Y-86360000D01*
X31750000Y-91440000D02*
X34533400Y-91440000D01*
%TO.N,Net-(Q3-Pad2)*%
X76200000Y-80010000D02*
X74824700Y-80010000D01*
X68635300Y-86199400D02*
X68635300Y-86360000D01*
X67310000Y-86360000D02*
X68635300Y-86360000D01*
X74824700Y-80010000D02*
X68635300Y-86199400D01*
%TO.N,Net-(R5-Pad2)*%
X49650800Y-35680800D02*
X51843900Y-35680800D01*
X51843900Y-35680800D02*
X53234700Y-34290000D01*
X54610000Y-34290000D02*
X53234700Y-34290000D01*
X48260000Y-34290000D02*
X49650800Y-35680800D01*
%TO.N,Net-(J12-Pad2)*%
X27955100Y-104860400D02*
X27955100Y-106664900D01*
X33020000Y-100330000D02*
X31594700Y-100330000D01*
X27955100Y-106664900D02*
X22860000Y-111760000D01*
X31594700Y-100330000D02*
X31594700Y-101220800D01*
X26319900Y-98709900D02*
X26319900Y-103225200D01*
X31594700Y-101220800D02*
X27955100Y-104860400D01*
X20320000Y-92710000D02*
X26319900Y-98709900D01*
X26319900Y-103225200D02*
X27955100Y-104860400D01*
%TO.N,Net-(J13-Pad3)*%
X31891600Y-96364600D02*
X29880500Y-98375700D01*
X40640000Y-102870000D02*
X39214700Y-102870000D01*
X39214700Y-102870000D02*
X39214700Y-101444700D01*
X39214700Y-101444700D02*
X34134600Y-96364600D01*
X29880500Y-100929500D02*
X27940000Y-102870000D01*
X29880500Y-98375700D02*
X29880500Y-100929500D01*
X34134600Y-96364600D02*
X31891600Y-96364600D01*
%TO.N,Net-(J13-Pad2)*%
X31430200Y-94824900D02*
X35134900Y-94824900D01*
X29315300Y-92710000D02*
X31430200Y-94824900D01*
X35134900Y-94824900D02*
X40640000Y-100330000D01*
X27940000Y-92710000D02*
X29315300Y-92710000D01*
%TO.N,Net-(J11-Pad1)*%
X73856800Y-99092600D02*
X67310000Y-105639400D01*
X60960000Y-97790000D02*
X62335300Y-97790000D01*
X73856800Y-97790000D02*
X73856800Y-99092600D01*
X74930000Y-97790000D02*
X73856800Y-97790000D01*
X72079300Y-96364600D02*
X63760700Y-96364600D01*
X73504700Y-97790000D02*
X72079300Y-96364600D01*
X73856800Y-97790000D02*
X73504700Y-97790000D01*
X67310000Y-105639400D02*
X67310000Y-111760000D01*
X63760700Y-96364600D02*
X62335300Y-97790000D01*
%TO.N,Net-(D6-Pad1)*%
X38305300Y-48260000D02*
X41910000Y-48260000D01*
X36830000Y-48260000D02*
X38305300Y-48260000D01*
%TO.N,Net-(D12-Pad2)*%
X44814600Y-91125100D02*
X44814600Y-100723000D01*
X25091700Y-111673200D02*
X25091700Y-112483900D01*
X52225100Y-83714600D02*
X44814600Y-91125100D01*
X20784600Y-112649500D02*
X20784600Y-108546400D01*
X22023700Y-113888600D02*
X20784600Y-112649500D01*
X60960000Y-85090000D02*
X59584700Y-85090000D01*
X59584700Y-85090000D02*
X58209300Y-83714600D01*
X36794600Y-108743000D02*
X28021900Y-108743000D01*
X28021900Y-108743000D02*
X25091700Y-111673200D01*
X18944600Y-106706400D02*
X18944600Y-84033600D01*
X18944600Y-84033600D02*
X26778200Y-76200000D01*
X44814600Y-100723000D02*
X36794600Y-108743000D01*
X23687000Y-113888600D02*
X22023700Y-113888600D01*
X25091700Y-112483900D02*
X23687000Y-113888600D01*
X26778200Y-76200000D02*
X29210000Y-76200000D01*
X58209300Y-83714600D02*
X52225100Y-83714600D01*
X20784600Y-108546400D02*
X18944600Y-106706400D01*
%TD*%
M02*
