%TF.GenerationSoftware,KiCad,Pcbnew,(6.0.6)*%
%TF.CreationDate,2023-08-03T10:39:42+02:00*%
%TF.ProjectId,SM01,534d3031-2e6b-4696-9361-645f70636258,1.2*%
%TF.SameCoordinates,Original*%
%TF.FileFunction,Soldermask,Bot*%
%TF.FilePolarity,Negative*%
%FSLAX46Y46*%
G04 Gerber Fmt 4.6, Leading zero omitted, Abs format (unit mm)*
G04 Created by KiCad (PCBNEW (6.0.6)) date 2023-08-03 10:39:42*
%MOMM*%
%LPD*%
G01*
G04 APERTURE LIST*
%ADD10C,3.200000*%
%ADD11R,1.600000X1.600000*%
%ADD12O,1.600000X1.600000*%
%ADD13C,1.600000*%
%ADD14R,2.200000X2.200000*%
%ADD15O,2.200000X2.200000*%
%ADD16R,3.000000X3.000000*%
%ADD17C,3.000000*%
%ADD18R,1.500000X1.050000*%
%ADD19O,1.500000X1.050000*%
%ADD20C,2.000000*%
%ADD21R,1.905000X2.000000*%
%ADD22O,1.905000X2.000000*%
%ADD23R,1.700000X1.700000*%
%ADD24O,1.700000X1.700000*%
%ADD25R,1.800000X1.800000*%
%ADD26C,1.800000*%
G04 APERTURE END LIST*
D10*
%TO.C,H4*%
X16486750Y-68609574D03*
%TD*%
D11*
%TO.C,A1*%
X30480000Y-71120000D03*
D12*
X33020000Y-71120000D03*
X35560000Y-71120000D03*
X38100000Y-71120000D03*
X40640000Y-71120000D03*
X43180000Y-71120000D03*
X45720000Y-71120000D03*
X48260000Y-71120000D03*
X50800000Y-71120000D03*
X53340000Y-71120000D03*
X55880000Y-71120000D03*
X58420000Y-71120000D03*
X60960000Y-71120000D03*
X63500000Y-71120000D03*
X66040000Y-71120000D03*
X66040000Y-55880000D03*
X63500000Y-55880000D03*
X60960000Y-55880000D03*
X58420000Y-55880000D03*
X55880000Y-55880000D03*
X53340000Y-55880000D03*
X50800000Y-55880000D03*
X48260000Y-55880000D03*
X45720000Y-55880000D03*
X43180000Y-55880000D03*
X40640000Y-55880000D03*
X38100000Y-55880000D03*
X35560000Y-55880000D03*
X33020000Y-55880000D03*
X30480000Y-55880000D03*
%TD*%
D11*
%TO.C,C1*%
X16510000Y-38100000D03*
D13*
X19010000Y-38100000D03*
%TD*%
D11*
%TO.C,C2*%
X36830000Y-38100000D03*
D13*
X34330000Y-38100000D03*
%TD*%
D14*
%TO.C,D1*%
X35560000Y-31750000D03*
D15*
X35560000Y-21590000D03*
%TD*%
D14*
%TO.C,D2*%
X29210000Y-27940000D03*
D15*
X29210000Y-38100000D03*
%TD*%
D14*
%TO.C,D3*%
X17780000Y-31750000D03*
D15*
X17780000Y-21590000D03*
%TD*%
D14*
%TO.C,D4*%
X24130000Y-27940000D03*
D15*
X24130000Y-38100000D03*
%TD*%
D14*
%TO.C,D10*%
X52070000Y-80010000D03*
D15*
X62230000Y-80010000D03*
%TD*%
D14*
%TO.C,D11*%
X52070000Y-76200000D03*
D15*
X62230000Y-76200000D03*
%TD*%
D16*
%TO.C,J1*%
X60960000Y-21590000D03*
D17*
X55880000Y-21590000D03*
%TD*%
D16*
%TO.C,J2*%
X29210000Y-21590000D03*
D17*
X24130000Y-21590000D03*
%TD*%
D16*
%TO.C,J3*%
X77470000Y-21590000D03*
D17*
X72390000Y-21590000D03*
X67310000Y-21590000D03*
%TD*%
D16*
%TO.C,J8*%
X17780000Y-111760000D03*
D17*
X22860000Y-111760000D03*
X27940000Y-111760000D03*
%TD*%
D16*
%TO.C,J9*%
X34290000Y-111760000D03*
D17*
X39370000Y-111760000D03*
X44450000Y-111760000D03*
%TD*%
D16*
%TO.C,J10*%
X50800000Y-111760000D03*
D17*
X55880000Y-111760000D03*
X60960000Y-111760000D03*
%TD*%
D16*
%TO.C,J11*%
X67310000Y-111760000D03*
D17*
X72390000Y-111760000D03*
X77470000Y-111760000D03*
%TD*%
D11*
%TO.C,K1*%
X20320000Y-85090000D03*
D12*
X20320000Y-87630000D03*
X20320000Y-90170000D03*
X20320000Y-92710000D03*
X20320000Y-95250000D03*
X20320000Y-97790000D03*
X20320000Y-100330000D03*
X20320000Y-102870000D03*
X27940000Y-102870000D03*
X27940000Y-100330000D03*
X27940000Y-97790000D03*
X27940000Y-95250000D03*
X27940000Y-92710000D03*
X27940000Y-90170000D03*
X27940000Y-87630000D03*
X27940000Y-85090000D03*
%TD*%
D11*
%TO.C,K2*%
X53340000Y-85090000D03*
D12*
X53340000Y-87630000D03*
X53340000Y-90170000D03*
X53340000Y-92710000D03*
X53340000Y-95250000D03*
X53340000Y-97790000D03*
X53340000Y-100330000D03*
X53340000Y-102870000D03*
X60960000Y-102870000D03*
X60960000Y-100330000D03*
X60960000Y-97790000D03*
X60960000Y-95250000D03*
X60960000Y-92710000D03*
X60960000Y-90170000D03*
X60960000Y-87630000D03*
X60960000Y-85090000D03*
%TD*%
D18*
%TO.C,Q4*%
X74930000Y-87630000D03*
D19*
X74930000Y-86360000D03*
X74930000Y-85090000D03*
%TD*%
D13*
%TO.C,R1*%
X54610000Y-29210000D03*
D12*
X67310000Y-29210000D03*
%TD*%
D13*
%TO.C,R2*%
X78740000Y-34290000D03*
D12*
X68580000Y-34290000D03*
%TD*%
D13*
%TO.C,R3*%
X78740000Y-38100000D03*
D12*
X68580000Y-38100000D03*
%TD*%
D13*
%TO.C,R4*%
X77470000Y-52070000D03*
D12*
X77470000Y-41910000D03*
%TD*%
D13*
%TO.C,R5*%
X64770000Y-34290000D03*
D12*
X54610000Y-34290000D03*
%TD*%
D13*
%TO.C,R6*%
X50800000Y-39370000D03*
D12*
X40640000Y-39370000D03*
%TD*%
D13*
%TO.C,R7*%
X34290000Y-44450000D03*
D12*
X44450000Y-44450000D03*
%TD*%
D13*
%TO.C,R8*%
X54610000Y-38100000D03*
D12*
X64770000Y-38100000D03*
%TD*%
D13*
%TO.C,R9*%
X33020000Y-80010000D03*
D12*
X43180000Y-80010000D03*
%TD*%
D13*
%TO.C,R10*%
X41910000Y-91440000D03*
D12*
X31750000Y-91440000D03*
%TD*%
D13*
%TO.C,R12*%
X66040000Y-91440000D03*
D12*
X76200000Y-91440000D03*
%TD*%
D20*
%TO.C,SW1*%
X21590000Y-48260000D03*
X21590000Y-54760000D03*
X17090000Y-54760000D03*
X17090000Y-48260000D03*
%TD*%
%TO.C,SW2*%
X53340000Y-50950000D03*
X53340000Y-44450000D03*
X48840000Y-44450000D03*
X48840000Y-50950000D03*
%TD*%
%TO.C,SW3*%
X72390000Y-50950000D03*
X72390000Y-44450000D03*
X67890000Y-44450000D03*
X67890000Y-50950000D03*
%TD*%
D11*
%TO.C,U1*%
X50800000Y-26670000D03*
D12*
X48260000Y-26670000D03*
X45720000Y-26670000D03*
X43180000Y-26670000D03*
X43180000Y-34290000D03*
X45720000Y-34290000D03*
X48260000Y-34290000D03*
X50800000Y-34290000D03*
%TD*%
D21*
%TO.C,U2*%
X24130000Y-44450000D03*
D22*
X26670000Y-44450000D03*
X29210000Y-44450000D03*
%TD*%
D23*
%TO.C,J5*%
X21590000Y-59690000D03*
D24*
X21590000Y-62230000D03*
X21590000Y-64770000D03*
X21590000Y-67310000D03*
%TD*%
D19*
%TO.C,Q1*%
X34290000Y-85090000D03*
X34290000Y-86360000D03*
D18*
X34290000Y-87630000D03*
%TD*%
%TO.C,Q3*%
X67310000Y-87630000D03*
D19*
X67310000Y-86360000D03*
X67310000Y-85090000D03*
%TD*%
D18*
%TO.C,Q2*%
X41910000Y-87630000D03*
D19*
X41910000Y-86360000D03*
X41910000Y-85090000D03*
%TD*%
D11*
%TO.C,D5*%
X50800000Y-22860000D03*
D12*
X43180000Y-22860000D03*
%TD*%
D24*
%TO.C,J6*%
X40640000Y-76200000D03*
X38100000Y-76200000D03*
D23*
X35560000Y-76200000D03*
%TD*%
%TO.C,J7*%
X68580000Y-76200000D03*
D24*
X71120000Y-76200000D03*
X73660000Y-76200000D03*
%TD*%
D13*
%TO.C,R11*%
X66040000Y-80010000D03*
D12*
X76200000Y-80010000D03*
%TD*%
D23*
%TO.C,J4*%
X77470000Y-29210000D03*
D24*
X74930000Y-29210000D03*
X72390000Y-29210000D03*
%TD*%
D23*
%TO.C,J12*%
X33020000Y-97790000D03*
D24*
X33020000Y-100330000D03*
X33020000Y-102870000D03*
%TD*%
D23*
%TO.C,J13*%
X40640000Y-97790000D03*
D24*
X40640000Y-100330000D03*
X40640000Y-102870000D03*
%TD*%
D23*
%TO.C,J14*%
X67310000Y-97790000D03*
D24*
X67310000Y-100330000D03*
X67310000Y-102870000D03*
%TD*%
D23*
%TO.C,J15*%
X74930000Y-97790000D03*
D24*
X74930000Y-100330000D03*
X74930000Y-102870000D03*
%TD*%
D25*
%TO.C,D6*%
X36830000Y-48260000D03*
D26*
X36830000Y-50800000D03*
%TD*%
D25*
%TO.C,D7*%
X41910000Y-48260000D03*
D26*
X41910000Y-50800000D03*
%TD*%
D25*
%TO.C,D8*%
X58420000Y-48260000D03*
D26*
X58420000Y-50800000D03*
%TD*%
D25*
%TO.C,D9*%
X63500000Y-48260000D03*
D26*
X63500000Y-50800000D03*
%TD*%
D14*
%TO.C,D12*%
X19050000Y-76200000D03*
D15*
X29210000Y-76200000D03*
%TD*%
D14*
%TO.C,D13*%
X19050000Y-80010000D03*
D15*
X29210000Y-80010000D03*
%TD*%
D10*
%TO.C,H1*%
X40183559Y-20319999D03*
%TD*%
%TO.C,H2*%
X78740000Y-68580000D03*
%TD*%
%TO.C,H3*%
X48260000Y-104140000D03*
%TD*%
M02*
