%TF.GenerationSoftware,KiCad,Pcbnew,(6.0.6)*%
%TF.CreationDate,2023-08-03T10:39:42+02:00*%
%TF.ProjectId,SM01,534d3031-2e6b-4696-9361-645f70636258,1.2*%
%TF.SameCoordinates,Original*%
%TF.FileFunction,Legend,Top*%
%TF.FilePolarity,Positive*%
%FSLAX46Y46*%
G04 Gerber Fmt 4.6, Leading zero omitted, Abs format (unit mm)*
G04 Created by KiCad (PCBNEW (6.0.6)) date 2023-08-03 10:39:42*
%MOMM*%
%LPD*%
G01*
G04 APERTURE LIST*
%ADD10C,0.150000*%
%ADD11C,0.120000*%
G04 APERTURE END LIST*
D10*
X65944046Y-26616452D02*
X66051189Y-26652166D01*
X66229760Y-26652166D01*
X66301189Y-26616452D01*
X66336903Y-26580738D01*
X66372617Y-26509309D01*
X66372617Y-26437881D01*
X66336903Y-26366452D01*
X66301189Y-26330738D01*
X66229760Y-26295023D01*
X66086903Y-26259309D01*
X66015474Y-26223595D01*
X65979760Y-26187881D01*
X65944046Y-26116452D01*
X65944046Y-26045023D01*
X65979760Y-25973595D01*
X66015474Y-25937881D01*
X66086903Y-25902166D01*
X66265474Y-25902166D01*
X66372617Y-25937881D01*
X66622617Y-25902166D02*
X66801189Y-26652166D01*
X66944046Y-26116452D01*
X67086903Y-26652166D01*
X67265474Y-25902166D01*
X67551189Y-26366452D02*
X68122617Y-26366452D01*
X68729760Y-26259309D02*
X68836903Y-26295023D01*
X68872617Y-26330738D01*
X68908331Y-26402166D01*
X68908331Y-26509309D01*
X68872617Y-26580738D01*
X68836903Y-26616452D01*
X68765474Y-26652166D01*
X68479760Y-26652166D01*
X68479760Y-25902166D01*
X68729760Y-25902166D01*
X68801189Y-25937881D01*
X68836903Y-25973595D01*
X68872617Y-26045023D01*
X68872617Y-26116452D01*
X68836903Y-26187881D01*
X68801189Y-26223595D01*
X68729760Y-26259309D01*
X68479760Y-26259309D01*
X76140750Y-26565737D02*
X76247893Y-26601451D01*
X76426464Y-26601451D01*
X76497893Y-26565737D01*
X76533607Y-26530023D01*
X76569322Y-26458594D01*
X76569322Y-26387166D01*
X76533607Y-26315737D01*
X76497893Y-26280023D01*
X76426464Y-26244308D01*
X76283607Y-26208594D01*
X76212179Y-26172880D01*
X76176464Y-26137166D01*
X76140750Y-26065737D01*
X76140750Y-25994308D01*
X76176464Y-25922880D01*
X76212179Y-25887166D01*
X76283607Y-25851451D01*
X76462179Y-25851451D01*
X76569322Y-25887166D01*
X76819322Y-25851451D02*
X76997893Y-26601451D01*
X77140750Y-26065737D01*
X77283607Y-26601451D01*
X77462179Y-25851451D01*
X77747893Y-26315737D02*
X78319322Y-26315737D01*
X78640750Y-26387166D02*
X78997893Y-26387166D01*
X78569322Y-26601451D02*
X78819322Y-25851451D01*
X79069322Y-26601451D01*
X36288627Y-53289335D02*
X36288627Y-52539335D01*
X36574341Y-52539335D01*
X36645770Y-52575050D01*
X36681484Y-52610764D01*
X36717198Y-52682192D01*
X36717198Y-52789335D01*
X36681484Y-52860764D01*
X36645770Y-52896478D01*
X36574341Y-52932192D01*
X36288627Y-52932192D01*
X37181484Y-52539335D02*
X37252912Y-52539335D01*
X37324341Y-52575050D01*
X37360055Y-52610764D01*
X37395770Y-52682192D01*
X37431484Y-52825050D01*
X37431484Y-53003621D01*
X37395770Y-53146478D01*
X37360055Y-53217907D01*
X37324341Y-53253621D01*
X37252912Y-53289335D01*
X37181484Y-53289335D01*
X37110055Y-53253621D01*
X37074341Y-53217907D01*
X37038627Y-53146478D01*
X37002912Y-53003621D01*
X37002912Y-52825050D01*
X37038627Y-52682192D01*
X37074341Y-52610764D01*
X37110055Y-52575050D01*
X37181484Y-52539335D01*
X38324341Y-53003621D02*
X38895770Y-53003621D01*
X39217198Y-53075050D02*
X39574341Y-53075050D01*
X39145770Y-53289335D02*
X39395770Y-52539335D01*
X39645770Y-53289335D01*
X39895770Y-53003621D02*
X40467198Y-53003621D01*
X41395770Y-53289335D02*
X41395770Y-52539335D01*
X41681484Y-52539335D01*
X41752912Y-52575050D01*
X41788627Y-52610764D01*
X41824341Y-52682192D01*
X41824341Y-52789335D01*
X41788627Y-52860764D01*
X41752912Y-52896478D01*
X41681484Y-52932192D01*
X41395770Y-52932192D01*
X42538627Y-53289335D02*
X42110055Y-53289335D01*
X42324341Y-53289335D02*
X42324341Y-52539335D01*
X42252912Y-52646478D01*
X42181484Y-52717907D01*
X42110055Y-52753621D01*
X57799285Y-53330677D02*
X57799285Y-52580677D01*
X58085000Y-52580677D01*
X58156428Y-52616392D01*
X58192142Y-52652106D01*
X58227857Y-52723534D01*
X58227857Y-52830677D01*
X58192142Y-52902106D01*
X58156428Y-52937820D01*
X58085000Y-52973534D01*
X57799285Y-52973534D01*
X58692142Y-52580677D02*
X58763571Y-52580677D01*
X58835000Y-52616392D01*
X58870714Y-52652106D01*
X58906428Y-52723534D01*
X58942142Y-52866392D01*
X58942142Y-53044963D01*
X58906428Y-53187820D01*
X58870714Y-53259249D01*
X58835000Y-53294963D01*
X58763571Y-53330677D01*
X58692142Y-53330677D01*
X58620714Y-53294963D01*
X58585000Y-53259249D01*
X58549285Y-53187820D01*
X58513571Y-53044963D01*
X58513571Y-52866392D01*
X58549285Y-52723534D01*
X58585000Y-52652106D01*
X58620714Y-52616392D01*
X58692142Y-52580677D01*
X59835000Y-53044963D02*
X60406428Y-53044963D01*
X61013571Y-52937820D02*
X61120714Y-52973534D01*
X61156428Y-53009249D01*
X61192142Y-53080677D01*
X61192142Y-53187820D01*
X61156428Y-53259249D01*
X61120714Y-53294963D01*
X61049285Y-53330677D01*
X60763571Y-53330677D01*
X60763571Y-52580677D01*
X61013571Y-52580677D01*
X61085000Y-52616392D01*
X61120714Y-52652106D01*
X61156428Y-52723534D01*
X61156428Y-52794963D01*
X61120714Y-52866392D01*
X61085000Y-52902106D01*
X61013571Y-52937820D01*
X60763571Y-52937820D01*
X61513571Y-53044963D02*
X62085000Y-53044963D01*
X63013571Y-53330677D02*
X63013571Y-52580677D01*
X63299285Y-52580677D01*
X63370714Y-52616392D01*
X63406428Y-52652106D01*
X63442142Y-52723534D01*
X63442142Y-52830677D01*
X63406428Y-52902106D01*
X63370714Y-52937820D01*
X63299285Y-52973534D01*
X63013571Y-52973534D01*
X64156428Y-53330677D02*
X63727857Y-53330677D01*
X63942142Y-53330677D02*
X63942142Y-52580677D01*
X63870714Y-52687820D01*
X63799285Y-52759249D01*
X63727857Y-52794963D01*
X21120358Y-69098544D02*
X21048929Y-69062829D01*
X20941786Y-69062829D01*
X20834643Y-69098544D01*
X20763215Y-69169972D01*
X20727501Y-69241401D01*
X20691786Y-69384258D01*
X20691786Y-69491401D01*
X20727501Y-69634258D01*
X20763215Y-69705686D01*
X20834643Y-69777115D01*
X20941786Y-69812829D01*
X21013215Y-69812829D01*
X21120358Y-69777115D01*
X21156072Y-69741401D01*
X21156072Y-69491401D01*
X21013215Y-69491401D01*
X21477501Y-69312829D02*
X21477501Y-69812829D01*
X21477501Y-69384258D02*
X21513215Y-69348544D01*
X21584643Y-69312829D01*
X21691786Y-69312829D01*
X21763215Y-69348544D01*
X21798929Y-69419972D01*
X21798929Y-69812829D01*
X22477501Y-69812829D02*
X22477501Y-69062829D01*
X22477501Y-69777115D02*
X22406072Y-69812829D01*
X22263215Y-69812829D01*
X22191786Y-69777115D01*
X22156072Y-69741401D01*
X22120358Y-69669972D01*
X22120358Y-69455686D01*
X22156072Y-69384258D01*
X22191786Y-69348544D01*
X22263215Y-69312829D01*
X22406072Y-69312829D01*
X22477501Y-69348544D01*
X69139092Y-102935080D02*
X69710521Y-102935080D01*
X70639092Y-103220794D02*
X70639092Y-102470794D01*
X70924806Y-102470794D01*
X70996235Y-102506509D01*
X71031949Y-102542223D01*
X71067664Y-102613651D01*
X71067664Y-102720794D01*
X71031949Y-102792223D01*
X70996235Y-102827937D01*
X70924806Y-102863651D01*
X70639092Y-102863651D01*
X71531949Y-102470794D02*
X71603378Y-102470794D01*
X71674806Y-102506509D01*
X71710521Y-102542223D01*
X71746235Y-102613651D01*
X71781949Y-102756509D01*
X71781949Y-102935080D01*
X71746235Y-103077937D01*
X71710521Y-103149366D01*
X71674806Y-103185080D01*
X71603378Y-103220794D01*
X71531949Y-103220794D01*
X71460521Y-103185080D01*
X71424806Y-103149366D01*
X71389092Y-103077937D01*
X71353378Y-102935080D01*
X71353378Y-102756509D01*
X71389092Y-102613651D01*
X71424806Y-102542223D01*
X71460521Y-102506509D01*
X71531949Y-102470794D01*
X72674806Y-102935080D02*
X73246235Y-102935080D01*
X69178087Y-97826736D02*
X69749516Y-97826736D01*
X70678087Y-98112450D02*
X70678087Y-97362450D01*
X70963801Y-97362450D01*
X71035230Y-97398165D01*
X71070944Y-97433879D01*
X71106659Y-97505307D01*
X71106659Y-97612450D01*
X71070944Y-97683879D01*
X71035230Y-97719593D01*
X70963801Y-97755307D01*
X70678087Y-97755307D01*
X71820944Y-98112450D02*
X71392373Y-98112450D01*
X71606659Y-98112450D02*
X71606659Y-97362450D01*
X71535230Y-97469593D01*
X71463801Y-97541022D01*
X71392373Y-97576736D01*
X72713801Y-97826736D02*
X73285230Y-97826736D01*
X69496235Y-100361411D02*
X70067664Y-100361411D01*
X71424806Y-100575697D02*
X71389092Y-100611411D01*
X71281949Y-100647125D01*
X71210521Y-100647125D01*
X71103378Y-100611411D01*
X71031949Y-100539982D01*
X70996235Y-100468554D01*
X70960521Y-100325697D01*
X70960521Y-100218554D01*
X70996235Y-100075697D01*
X71031949Y-100004268D01*
X71103378Y-99932840D01*
X71210521Y-99897125D01*
X71281949Y-99897125D01*
X71389092Y-99932840D01*
X71424806Y-99968554D01*
X72317664Y-100361411D02*
X72889092Y-100361411D01*
X34715272Y-97865730D02*
X35286701Y-97865730D01*
X36215272Y-98151444D02*
X36215272Y-97401444D01*
X36500986Y-97401444D01*
X36572415Y-97437159D01*
X36608129Y-97472873D01*
X36643844Y-97544301D01*
X36643844Y-97651444D01*
X36608129Y-97722873D01*
X36572415Y-97758587D01*
X36500986Y-97794301D01*
X36215272Y-97794301D01*
X37358129Y-98151444D02*
X36929558Y-98151444D01*
X37143844Y-98151444D02*
X37143844Y-97401444D01*
X37072415Y-97508587D01*
X37000986Y-97580016D01*
X36929558Y-97615730D01*
X38250986Y-97865730D02*
X38822415Y-97865730D01*
X34676277Y-102974074D02*
X35247706Y-102974074D01*
X36176277Y-103259788D02*
X36176277Y-102509788D01*
X36461991Y-102509788D01*
X36533420Y-102545503D01*
X36569134Y-102581217D01*
X36604849Y-102652645D01*
X36604849Y-102759788D01*
X36569134Y-102831217D01*
X36533420Y-102866931D01*
X36461991Y-102902645D01*
X36176277Y-102902645D01*
X37069134Y-102509788D02*
X37140563Y-102509788D01*
X37211991Y-102545503D01*
X37247706Y-102581217D01*
X37283420Y-102652645D01*
X37319134Y-102795503D01*
X37319134Y-102974074D01*
X37283420Y-103116931D01*
X37247706Y-103188360D01*
X37211991Y-103224074D01*
X37140563Y-103259788D01*
X37069134Y-103259788D01*
X36997706Y-103224074D01*
X36961991Y-103188360D01*
X36926277Y-103116931D01*
X36890563Y-102974074D01*
X36890563Y-102795503D01*
X36926277Y-102652645D01*
X36961991Y-102581217D01*
X36997706Y-102545503D01*
X37069134Y-102509788D01*
X38211991Y-102974074D02*
X38783420Y-102974074D01*
X35033420Y-100400405D02*
X35604849Y-100400405D01*
X36961991Y-100614691D02*
X36926277Y-100650405D01*
X36819134Y-100686119D01*
X36747706Y-100686119D01*
X36640563Y-100650405D01*
X36569134Y-100578976D01*
X36533420Y-100507548D01*
X36497706Y-100364691D01*
X36497706Y-100257548D01*
X36533420Y-100114691D01*
X36569134Y-100043262D01*
X36640563Y-99971834D01*
X36747706Y-99936119D01*
X36819134Y-99936119D01*
X36926277Y-99971834D01*
X36961991Y-100007548D01*
X37854849Y-100400405D02*
X38426277Y-100400405D01*
X43020557Y-75825000D02*
X42949128Y-75789285D01*
X42841985Y-75789285D01*
X42734842Y-75825000D01*
X42663414Y-75896428D01*
X42627700Y-75967857D01*
X42591985Y-76110714D01*
X42591985Y-76217857D01*
X42627700Y-76360714D01*
X42663414Y-76432142D01*
X42734842Y-76503571D01*
X42841985Y-76539285D01*
X42913414Y-76539285D01*
X43020557Y-76503571D01*
X43056271Y-76467857D01*
X43056271Y-76217857D01*
X42913414Y-76217857D01*
X43377700Y-76039285D02*
X43377700Y-76539285D01*
X43377700Y-76110714D02*
X43413414Y-76075000D01*
X43484842Y-76039285D01*
X43591985Y-76039285D01*
X43663414Y-76075000D01*
X43699128Y-76146428D01*
X43699128Y-76539285D01*
X44377700Y-76539285D02*
X44377700Y-75789285D01*
X44377700Y-76503571D02*
X44306271Y-76539285D01*
X44163414Y-76539285D01*
X44091985Y-76503571D01*
X44056271Y-76467857D01*
X44020557Y-76396428D01*
X44020557Y-76182142D01*
X44056271Y-76110714D01*
X44091985Y-76075000D01*
X44163414Y-76039285D01*
X44306271Y-76039285D01*
X44377700Y-76075000D01*
X76047148Y-75825000D02*
X75975719Y-75789285D01*
X75868576Y-75789285D01*
X75761433Y-75825000D01*
X75690005Y-75896428D01*
X75654291Y-75967857D01*
X75618576Y-76110714D01*
X75618576Y-76217857D01*
X75654291Y-76360714D01*
X75690005Y-76432142D01*
X75761433Y-76503571D01*
X75868576Y-76539285D01*
X75940005Y-76539285D01*
X76047148Y-76503571D01*
X76082862Y-76467857D01*
X76082862Y-76217857D01*
X75940005Y-76217857D01*
X76404291Y-76039285D02*
X76404291Y-76539285D01*
X76404291Y-76110714D02*
X76440005Y-76075000D01*
X76511433Y-76039285D01*
X76618576Y-76039285D01*
X76690005Y-76075000D01*
X76725719Y-76146428D01*
X76725719Y-76539285D01*
X77404291Y-76539285D02*
X77404291Y-75789285D01*
X77404291Y-76503571D02*
X77332862Y-76539285D01*
X77190005Y-76539285D01*
X77118576Y-76503571D01*
X77082862Y-76467857D01*
X77047148Y-76396428D01*
X77047148Y-76182142D01*
X77082862Y-76110714D01*
X77118576Y-76075000D01*
X77190005Y-76039285D01*
X77332862Y-76039285D01*
X77404291Y-76075000D01*
X22276960Y-105402046D02*
X22753150Y-105402046D01*
X22181722Y-105687760D02*
X22515055Y-104687760D01*
X22848388Y-105687760D01*
X23705531Y-105687760D02*
X23134103Y-105687760D01*
X23419817Y-105687760D02*
X23419817Y-104687760D01*
X23324579Y-104830618D01*
X23229341Y-104925856D01*
X23134103Y-104973475D01*
X72596318Y-107318952D02*
X72548699Y-107366571D01*
X72405842Y-107414190D01*
X72310604Y-107414190D01*
X72167747Y-107366571D01*
X72072509Y-107271333D01*
X72024890Y-107176095D01*
X71977271Y-106985619D01*
X71977271Y-106842762D01*
X72024890Y-106652286D01*
X72072509Y-106557048D01*
X72167747Y-106461810D01*
X72310604Y-106414190D01*
X72405842Y-106414190D01*
X72548699Y-106461810D01*
X72596318Y-106509429D01*
X66468699Y-107414190D02*
X66468699Y-106414190D01*
X66849652Y-106414190D01*
X66944890Y-106461810D01*
X66992509Y-106509429D01*
X67040128Y-106604667D01*
X67040128Y-106747524D01*
X66992509Y-106842762D01*
X66944890Y-106890381D01*
X66849652Y-106938000D01*
X66468699Y-106938000D01*
X67992509Y-107414190D02*
X67421080Y-107414190D01*
X67706795Y-107414190D02*
X67706795Y-106414190D01*
X67611556Y-106557048D01*
X67516318Y-106652286D01*
X67421080Y-106699905D01*
X76628699Y-107414190D02*
X76628699Y-106414190D01*
X77009652Y-106414190D01*
X77104890Y-106461810D01*
X77152509Y-106509429D01*
X77200128Y-106604667D01*
X77200128Y-106747524D01*
X77152509Y-106842762D01*
X77104890Y-106890381D01*
X77009652Y-106938000D01*
X76628699Y-106938000D01*
X77819175Y-106414190D02*
X77914414Y-106414190D01*
X78009652Y-106461810D01*
X78057271Y-106509429D01*
X78104890Y-106604667D01*
X78152509Y-106795143D01*
X78152509Y-107033238D01*
X78104890Y-107223714D01*
X78057271Y-107318952D01*
X78009652Y-107366571D01*
X77914414Y-107414190D01*
X77819175Y-107414190D01*
X77723937Y-107366571D01*
X77676318Y-107318952D01*
X77628699Y-107223714D01*
X77581080Y-107033238D01*
X77581080Y-106795143D01*
X77628699Y-106604667D01*
X77676318Y-106509429D01*
X77723937Y-106461810D01*
X77819175Y-106414190D01*
X56164699Y-107347296D02*
X56117080Y-107394915D01*
X55974223Y-107442534D01*
X55878985Y-107442534D01*
X55736128Y-107394915D01*
X55640890Y-107299677D01*
X55593271Y-107204439D01*
X55545652Y-107013963D01*
X55545652Y-106871106D01*
X55593271Y-106680630D01*
X55640890Y-106585392D01*
X55736128Y-106490154D01*
X55878985Y-106442534D01*
X55974223Y-106442534D01*
X56117080Y-106490154D01*
X56164699Y-106537773D01*
X50037080Y-107442534D02*
X50037080Y-106442534D01*
X50418033Y-106442534D01*
X50513271Y-106490154D01*
X50560890Y-106537773D01*
X50608509Y-106633011D01*
X50608509Y-106775868D01*
X50560890Y-106871106D01*
X50513271Y-106918725D01*
X50418033Y-106966344D01*
X50037080Y-106966344D01*
X51560890Y-107442534D02*
X50989461Y-107442534D01*
X51275176Y-107442534D02*
X51275176Y-106442534D01*
X51179937Y-106585392D01*
X51084699Y-106680630D01*
X50989461Y-106728249D01*
X60197080Y-107442534D02*
X60197080Y-106442534D01*
X60578033Y-106442534D01*
X60673271Y-106490154D01*
X60720890Y-106537773D01*
X60768509Y-106633011D01*
X60768509Y-106775868D01*
X60720890Y-106871106D01*
X60673271Y-106918725D01*
X60578033Y-106966344D01*
X60197080Y-106966344D01*
X61387556Y-106442534D02*
X61482795Y-106442534D01*
X61578033Y-106490154D01*
X61625652Y-106537773D01*
X61673271Y-106633011D01*
X61720890Y-106823487D01*
X61720890Y-107061582D01*
X61673271Y-107252058D01*
X61625652Y-107347296D01*
X61578033Y-107394915D01*
X61482795Y-107442534D01*
X61387556Y-107442534D01*
X61292318Y-107394915D01*
X61244699Y-107347296D01*
X61197080Y-107252058D01*
X61149461Y-107061582D01*
X61149461Y-106823487D01*
X61197080Y-106633011D01*
X61244699Y-106537773D01*
X61292318Y-106490154D01*
X61387556Y-106442534D01*
X39595905Y-107279957D02*
X39548286Y-107327576D01*
X39405429Y-107375195D01*
X39310191Y-107375195D01*
X39167334Y-107327576D01*
X39072096Y-107232338D01*
X39024477Y-107137100D01*
X38976858Y-106946624D01*
X38976858Y-106803767D01*
X39024477Y-106613291D01*
X39072096Y-106518053D01*
X39167334Y-106422815D01*
X39310191Y-106375195D01*
X39405429Y-106375195D01*
X39548286Y-106422815D01*
X39595905Y-106470434D01*
X33468286Y-107375195D02*
X33468286Y-106375195D01*
X33849239Y-106375195D01*
X33944477Y-106422815D01*
X33992096Y-106470434D01*
X34039715Y-106565672D01*
X34039715Y-106708529D01*
X33992096Y-106803767D01*
X33944477Y-106851386D01*
X33849239Y-106899005D01*
X33468286Y-106899005D01*
X34992096Y-107375195D02*
X34420667Y-107375195D01*
X34706382Y-107375195D02*
X34706382Y-106375195D01*
X34611143Y-106518053D01*
X34515905Y-106613291D01*
X34420667Y-106660910D01*
X43628286Y-107375195D02*
X43628286Y-106375195D01*
X44009239Y-106375195D01*
X44104477Y-106422815D01*
X44152096Y-106470434D01*
X44199715Y-106565672D01*
X44199715Y-106708529D01*
X44152096Y-106803767D01*
X44104477Y-106851386D01*
X44009239Y-106899005D01*
X43628286Y-106899005D01*
X44818762Y-106375195D02*
X44914001Y-106375195D01*
X45009239Y-106422815D01*
X45056858Y-106470434D01*
X45104477Y-106565672D01*
X45152096Y-106756148D01*
X45152096Y-106994243D01*
X45104477Y-107184719D01*
X45056858Y-107279957D01*
X45009239Y-107327576D01*
X44914001Y-107375195D01*
X44818762Y-107375195D01*
X44723524Y-107327576D01*
X44675905Y-107279957D01*
X44628286Y-107184719D01*
X44580667Y-106994243D01*
X44580667Y-106756148D01*
X44628286Y-106565672D01*
X44675905Y-106470434D01*
X44723524Y-106422815D01*
X44818762Y-106375195D01*
X17017080Y-107442534D02*
X17017080Y-106442534D01*
X17398033Y-106442534D01*
X17493271Y-106490154D01*
X17540890Y-106537773D01*
X17588509Y-106633011D01*
X17588509Y-106775868D01*
X17540890Y-106871106D01*
X17493271Y-106918725D01*
X17398033Y-106966344D01*
X17017080Y-106966344D01*
X18540890Y-107442534D02*
X17969461Y-107442534D01*
X18255176Y-107442534D02*
X18255176Y-106442534D01*
X18159937Y-106585392D01*
X18064699Y-106680630D01*
X17969461Y-106728249D01*
X23144699Y-107347296D02*
X23097080Y-107394915D01*
X22954223Y-107442534D01*
X22858985Y-107442534D01*
X22716128Y-107394915D01*
X22620890Y-107299677D01*
X22573271Y-107204439D01*
X22525652Y-107013963D01*
X22525652Y-106871106D01*
X22573271Y-106680630D01*
X22620890Y-106585392D01*
X22716128Y-106490154D01*
X22858985Y-106442534D01*
X22954223Y-106442534D01*
X23097080Y-106490154D01*
X23144699Y-106537773D01*
X35433333Y-74064761D02*
X35576190Y-74112380D01*
X35814285Y-74112380D01*
X35909523Y-74064761D01*
X35957142Y-74017142D01*
X36004761Y-73921904D01*
X36004761Y-73826666D01*
X35957142Y-73731428D01*
X35909523Y-73683809D01*
X35814285Y-73636190D01*
X35623809Y-73588571D01*
X35528571Y-73540952D01*
X35480952Y-73493333D01*
X35433333Y-73398095D01*
X35433333Y-73302857D01*
X35480952Y-73207619D01*
X35528571Y-73160000D01*
X35623809Y-73112380D01*
X35861904Y-73112380D01*
X36004761Y-73160000D01*
X36814285Y-74064761D02*
X36719047Y-74112380D01*
X36528571Y-74112380D01*
X36433333Y-74064761D01*
X36385714Y-73969523D01*
X36385714Y-73588571D01*
X36433333Y-73493333D01*
X36528571Y-73445714D01*
X36719047Y-73445714D01*
X36814285Y-73493333D01*
X36861904Y-73588571D01*
X36861904Y-73683809D01*
X36385714Y-73779047D01*
X37290476Y-74112380D02*
X37290476Y-73445714D01*
X37290476Y-73636190D02*
X37338095Y-73540952D01*
X37385714Y-73493333D01*
X37480952Y-73445714D01*
X37576190Y-73445714D01*
X37814285Y-73445714D02*
X38052380Y-74112380D01*
X38290476Y-73445714D01*
X38814285Y-74112380D02*
X38719047Y-74064761D01*
X38671428Y-74017142D01*
X38623809Y-73921904D01*
X38623809Y-73636190D01*
X38671428Y-73540952D01*
X38719047Y-73493333D01*
X38814285Y-73445714D01*
X38957142Y-73445714D01*
X39052380Y-73493333D01*
X39100000Y-73540952D01*
X39147619Y-73636190D01*
X39147619Y-73921904D01*
X39100000Y-74017142D01*
X39052380Y-74064761D01*
X38957142Y-74112380D01*
X38814285Y-74112380D01*
X40290476Y-73826666D02*
X40766666Y-73826666D01*
X40195238Y-74112380D02*
X40528571Y-73112380D01*
X40861904Y-74112380D01*
X43402857Y-63666666D02*
X43879047Y-63666666D01*
X43307619Y-63952380D02*
X43640952Y-62952380D01*
X43974285Y-63952380D01*
X44307619Y-63952380D02*
X44307619Y-63285714D01*
X44307619Y-63476190D02*
X44355238Y-63380952D01*
X44402857Y-63333333D01*
X44498095Y-63285714D01*
X44593333Y-63285714D01*
X45355238Y-63952380D02*
X45355238Y-62952380D01*
X45355238Y-63904761D02*
X45260000Y-63952380D01*
X45069523Y-63952380D01*
X44974285Y-63904761D01*
X44926666Y-63857142D01*
X44879047Y-63761904D01*
X44879047Y-63476190D01*
X44926666Y-63380952D01*
X44974285Y-63333333D01*
X45069523Y-63285714D01*
X45260000Y-63285714D01*
X45355238Y-63333333D01*
X46260000Y-63285714D02*
X46260000Y-63952380D01*
X45831428Y-63285714D02*
X45831428Y-63809523D01*
X45879047Y-63904761D01*
X45974285Y-63952380D01*
X46117142Y-63952380D01*
X46212380Y-63904761D01*
X46260000Y-63857142D01*
X46736190Y-63952380D02*
X46736190Y-63285714D01*
X46736190Y-62952380D02*
X46688571Y-63000000D01*
X46736190Y-63047619D01*
X46783809Y-63000000D01*
X46736190Y-62952380D01*
X46736190Y-63047619D01*
X47212380Y-63285714D02*
X47212380Y-63952380D01*
X47212380Y-63380952D02*
X47260000Y-63333333D01*
X47355238Y-63285714D01*
X47498095Y-63285714D01*
X47593333Y-63333333D01*
X47640952Y-63428571D01*
X47640952Y-63952380D01*
X48260000Y-63952380D02*
X48164761Y-63904761D01*
X48117142Y-63857142D01*
X48069523Y-63761904D01*
X48069523Y-63476190D01*
X48117142Y-63380952D01*
X48164761Y-63333333D01*
X48260000Y-63285714D01*
X48402857Y-63285714D01*
X48498095Y-63333333D01*
X48545714Y-63380952D01*
X48593333Y-63476190D01*
X48593333Y-63761904D01*
X48545714Y-63857142D01*
X48498095Y-63904761D01*
X48402857Y-63952380D01*
X48260000Y-63952380D01*
X49783809Y-63952380D02*
X49783809Y-62952380D01*
X50355238Y-63952380D01*
X50355238Y-62952380D01*
X51260000Y-63952380D02*
X51260000Y-63428571D01*
X51212380Y-63333333D01*
X51117142Y-63285714D01*
X50926666Y-63285714D01*
X50831428Y-63333333D01*
X51260000Y-63904761D02*
X51164761Y-63952380D01*
X50926666Y-63952380D01*
X50831428Y-63904761D01*
X50783809Y-63809523D01*
X50783809Y-63714285D01*
X50831428Y-63619047D01*
X50926666Y-63571428D01*
X51164761Y-63571428D01*
X51260000Y-63523809D01*
X51736190Y-63285714D02*
X51736190Y-63952380D01*
X51736190Y-63380952D02*
X51783809Y-63333333D01*
X51879047Y-63285714D01*
X52021904Y-63285714D01*
X52117142Y-63333333D01*
X52164761Y-63428571D01*
X52164761Y-63952380D01*
X52783809Y-63952380D02*
X52688571Y-63904761D01*
X52640952Y-63857142D01*
X52593333Y-63761904D01*
X52593333Y-63476190D01*
X52640952Y-63380952D01*
X52688571Y-63333333D01*
X52783809Y-63285714D01*
X52926666Y-63285714D01*
X53021904Y-63333333D01*
X53069523Y-63380952D01*
X53117142Y-63476190D01*
X53117142Y-63761904D01*
X53069523Y-63857142D01*
X53021904Y-63904761D01*
X52926666Y-63952380D01*
X52783809Y-63952380D01*
X71485238Y-26697893D02*
X71818571Y-26697893D01*
X71961428Y-27221702D02*
X71485238Y-27221702D01*
X71485238Y-26221702D01*
X71961428Y-26221702D01*
X72294761Y-27221702D02*
X72818571Y-26555036D01*
X72294761Y-26555036D02*
X72818571Y-27221702D01*
X73056666Y-26555036D02*
X73437619Y-26555036D01*
X73199523Y-26221702D02*
X73199523Y-27078845D01*
X73247142Y-27174083D01*
X73342380Y-27221702D01*
X73437619Y-27221702D01*
X74671606Y-95262908D02*
X74778749Y-95298622D01*
X74814463Y-95334337D01*
X74850178Y-95405765D01*
X74850178Y-95512908D01*
X74814463Y-95584337D01*
X74778749Y-95620051D01*
X74707320Y-95655765D01*
X74421606Y-95655765D01*
X74421606Y-94905765D01*
X74671606Y-94905765D01*
X74743035Y-94941480D01*
X74778749Y-94977194D01*
X74814463Y-95048622D01*
X74814463Y-95120051D01*
X74778749Y-95191480D01*
X74743035Y-95227194D01*
X74671606Y-95262908D01*
X74421606Y-95262908D01*
X75135892Y-94977194D02*
X75171606Y-94941480D01*
X75243035Y-94905765D01*
X75421606Y-94905765D01*
X75493035Y-94941480D01*
X75528749Y-94977194D01*
X75564463Y-95048622D01*
X75564463Y-95120051D01*
X75528749Y-95227194D01*
X75100178Y-95655765D01*
X75564463Y-95655765D01*
X38655714Y-105430344D02*
X39131904Y-105430344D01*
X38560476Y-105716058D02*
X38893809Y-104716058D01*
X39227142Y-105716058D01*
X39512857Y-104811297D02*
X39560476Y-104763678D01*
X39655714Y-104716058D01*
X39893809Y-104716058D01*
X39989047Y-104763678D01*
X40036666Y-104811297D01*
X40084285Y-104906535D01*
X40084285Y-105001773D01*
X40036666Y-105144630D01*
X39465238Y-105716058D01*
X40084285Y-105716058D01*
X16856673Y-19502380D02*
X16856673Y-18502380D01*
X17237625Y-18502380D01*
X17332864Y-18550000D01*
X17380483Y-18597619D01*
X17428102Y-18692857D01*
X17428102Y-18835714D01*
X17380483Y-18930952D01*
X17332864Y-18978571D01*
X17237625Y-19026190D01*
X16856673Y-19026190D01*
X17999530Y-19502380D02*
X17904292Y-19454761D01*
X17856673Y-19407142D01*
X17809054Y-19311904D01*
X17809054Y-19026190D01*
X17856673Y-18930952D01*
X17904292Y-18883333D01*
X17999530Y-18835714D01*
X18142387Y-18835714D01*
X18237625Y-18883333D01*
X18285244Y-18930952D01*
X18332864Y-19026190D01*
X18332864Y-19311904D01*
X18285244Y-19407142D01*
X18237625Y-19454761D01*
X18142387Y-19502380D01*
X17999530Y-19502380D01*
X18666197Y-18835714D02*
X18856673Y-19502380D01*
X19047149Y-19026190D01*
X19237625Y-19502380D01*
X19428102Y-18835714D01*
X20190006Y-19454761D02*
X20094768Y-19502380D01*
X19904292Y-19502380D01*
X19809054Y-19454761D01*
X19761435Y-19359523D01*
X19761435Y-18978571D01*
X19809054Y-18883333D01*
X19904292Y-18835714D01*
X20094768Y-18835714D01*
X20190006Y-18883333D01*
X20237625Y-18978571D01*
X20237625Y-19073809D01*
X19761435Y-19169047D01*
X20666197Y-19502380D02*
X20666197Y-18835714D01*
X20666197Y-19026190D02*
X20713816Y-18930952D01*
X20761435Y-18883333D01*
X20856673Y-18835714D01*
X20951911Y-18835714D01*
X19571249Y-65406865D02*
X19618868Y-65264008D01*
X19618868Y-65025913D01*
X19571249Y-64930675D01*
X19523630Y-64883055D01*
X19428392Y-64835436D01*
X19333154Y-64835436D01*
X19237916Y-64883055D01*
X19190297Y-64930675D01*
X19142678Y-65025913D01*
X19095059Y-65216389D01*
X19047440Y-65311627D01*
X18999821Y-65359246D01*
X18904583Y-65406865D01*
X18809345Y-65406865D01*
X18714107Y-65359246D01*
X18666488Y-65311627D01*
X18618868Y-65216389D01*
X18618868Y-64978294D01*
X18666488Y-64835436D01*
X19571249Y-64025913D02*
X19618868Y-64121151D01*
X19618868Y-64311627D01*
X19571249Y-64406865D01*
X19476011Y-64454484D01*
X19095059Y-64454484D01*
X18999821Y-64406865D01*
X18952202Y-64311627D01*
X18952202Y-64121151D01*
X18999821Y-64025913D01*
X19095059Y-63978294D01*
X19190297Y-63978294D01*
X19285535Y-64454484D01*
X19618868Y-63549722D02*
X18952202Y-63549722D01*
X19142678Y-63549722D02*
X19047440Y-63502103D01*
X18999821Y-63454484D01*
X18952202Y-63359246D01*
X18952202Y-63264008D01*
X19618868Y-62930675D02*
X18952202Y-62930675D01*
X18618868Y-62930675D02*
X18666488Y-62978294D01*
X18714107Y-62930675D01*
X18666488Y-62883055D01*
X18618868Y-62930675D01*
X18714107Y-62930675D01*
X19618868Y-62025913D02*
X19095059Y-62025913D01*
X18999821Y-62073532D01*
X18952202Y-62168770D01*
X18952202Y-62359246D01*
X18999821Y-62454484D01*
X19571249Y-62025913D02*
X19618868Y-62121151D01*
X19618868Y-62359246D01*
X19571249Y-62454484D01*
X19476011Y-62502103D01*
X19380773Y-62502103D01*
X19285535Y-62454484D01*
X19237916Y-62359246D01*
X19237916Y-62121151D01*
X19190297Y-62025913D01*
X19618868Y-61406865D02*
X19571249Y-61502103D01*
X19476011Y-61549722D01*
X18618868Y-61549722D01*
X66890296Y-42682550D02*
X67033154Y-42730169D01*
X67271249Y-42730169D01*
X67366487Y-42682550D01*
X67414106Y-42634931D01*
X67461725Y-42539693D01*
X67461725Y-42444455D01*
X67414106Y-42349217D01*
X67366487Y-42301598D01*
X67271249Y-42253979D01*
X67080773Y-42206360D01*
X66985535Y-42158741D01*
X66937915Y-42111122D01*
X66890296Y-42015884D01*
X66890296Y-41920646D01*
X66937915Y-41825408D01*
X66985535Y-41777789D01*
X67080773Y-41730169D01*
X67318868Y-41730169D01*
X67461725Y-41777789D01*
X67795058Y-42063503D02*
X67985535Y-42730169D01*
X68176011Y-42253979D01*
X68366487Y-42730169D01*
X68556963Y-42063503D01*
X68937915Y-42730169D02*
X68937915Y-42063503D01*
X68937915Y-41730169D02*
X68890296Y-41777789D01*
X68937915Y-41825408D01*
X68985535Y-41777789D01*
X68937915Y-41730169D01*
X68937915Y-41825408D01*
X69271249Y-42063503D02*
X69652201Y-42063503D01*
X69414106Y-41730169D02*
X69414106Y-42587312D01*
X69461725Y-42682550D01*
X69556963Y-42730169D01*
X69652201Y-42730169D01*
X70414106Y-42682550D02*
X70318868Y-42730169D01*
X70128392Y-42730169D01*
X70033154Y-42682550D01*
X69985535Y-42634931D01*
X69937915Y-42539693D01*
X69937915Y-42253979D01*
X69985535Y-42158741D01*
X70033154Y-42111122D01*
X70128392Y-42063503D01*
X70318868Y-42063503D01*
X70414106Y-42111122D01*
X70842677Y-42730169D02*
X70842677Y-41730169D01*
X71271249Y-42730169D02*
X71271249Y-42206360D01*
X71223630Y-42111122D01*
X71128392Y-42063503D01*
X70985535Y-42063503D01*
X70890296Y-42111122D01*
X70842677Y-42158741D01*
X72842677Y-42206360D02*
X72985535Y-42253979D01*
X73033154Y-42301598D01*
X73080773Y-42396836D01*
X73080773Y-42539693D01*
X73033154Y-42634931D01*
X72985535Y-42682550D01*
X72890296Y-42730169D01*
X72509344Y-42730169D01*
X72509344Y-41730169D01*
X72842677Y-41730169D01*
X72937915Y-41777789D01*
X72985535Y-41825408D01*
X73033154Y-41920646D01*
X73033154Y-42015884D01*
X72985535Y-42111122D01*
X72937915Y-42158741D01*
X72842677Y-42206360D01*
X72509344Y-42206360D01*
X40104285Y-95368816D02*
X40461428Y-95368816D01*
X40032857Y-95583101D02*
X40282857Y-94833101D01*
X40532857Y-95583101D01*
X40747142Y-94904530D02*
X40782857Y-94868816D01*
X40854285Y-94833101D01*
X41032857Y-94833101D01*
X41104285Y-94868816D01*
X41140000Y-94904530D01*
X41175714Y-94975958D01*
X41175714Y-95047387D01*
X41140000Y-95154530D01*
X40711428Y-95583101D01*
X41175714Y-95583101D01*
X17483483Y-46689966D02*
X17483483Y-45689966D01*
X17816816Y-46404252D01*
X18150150Y-45689966D01*
X18150150Y-46689966D01*
X18769197Y-46689966D02*
X18673959Y-46642347D01*
X18626340Y-46594728D01*
X18578721Y-46499490D01*
X18578721Y-46213776D01*
X18626340Y-46118538D01*
X18673959Y-46070919D01*
X18769197Y-46023300D01*
X18912054Y-46023300D01*
X19007292Y-46070919D01*
X19054911Y-46118538D01*
X19102530Y-46213776D01*
X19102530Y-46499490D01*
X19054911Y-46594728D01*
X19007292Y-46642347D01*
X18912054Y-46689966D01*
X18769197Y-46689966D01*
X19959673Y-46689966D02*
X19959673Y-45689966D01*
X19959673Y-46642347D02*
X19864435Y-46689966D01*
X19673959Y-46689966D01*
X19578721Y-46642347D01*
X19531102Y-46594728D01*
X19483483Y-46499490D01*
X19483483Y-46213776D01*
X19531102Y-46118538D01*
X19578721Y-46070919D01*
X19673959Y-46023300D01*
X19864435Y-46023300D01*
X19959673Y-46070919D01*
X20816816Y-46642347D02*
X20721578Y-46689966D01*
X20531102Y-46689966D01*
X20435864Y-46642347D01*
X20388245Y-46547109D01*
X20388245Y-46166157D01*
X20435864Y-46070919D01*
X20531102Y-46023300D01*
X20721578Y-46023300D01*
X20816816Y-46070919D01*
X20864435Y-46166157D01*
X20864435Y-46261395D01*
X20388245Y-46356633D01*
X49538095Y-19502380D02*
X49538095Y-18502380D01*
X49776190Y-18502380D01*
X49919047Y-18550000D01*
X50014285Y-18645238D01*
X50061904Y-18740476D01*
X50109523Y-18930952D01*
X50109523Y-19073809D01*
X50061904Y-19264285D01*
X50014285Y-19359523D01*
X49919047Y-19454761D01*
X49776190Y-19502380D01*
X49538095Y-19502380D01*
X51109523Y-19407142D02*
X51061904Y-19454761D01*
X50919047Y-19502380D01*
X50823809Y-19502380D01*
X50680952Y-19454761D01*
X50585714Y-19359523D01*
X50538095Y-19264285D01*
X50490476Y-19073809D01*
X50490476Y-18930952D01*
X50538095Y-18740476D01*
X50585714Y-18645238D01*
X50680952Y-18550000D01*
X50823809Y-18502380D01*
X50919047Y-18502380D01*
X51061904Y-18550000D01*
X51109523Y-18597619D01*
X52109523Y-19407142D02*
X52061904Y-19454761D01*
X51919047Y-19502380D01*
X51823809Y-19502380D01*
X51680952Y-19454761D01*
X51585714Y-19359523D01*
X51538095Y-19264285D01*
X51490476Y-19073809D01*
X51490476Y-18930952D01*
X51538095Y-18740476D01*
X51585714Y-18645238D01*
X51680952Y-18550000D01*
X51823809Y-18502380D01*
X51919047Y-18502380D01*
X52061904Y-18550000D01*
X52109523Y-18597619D01*
X27177080Y-107442534D02*
X27177080Y-106442534D01*
X27558033Y-106442534D01*
X27653271Y-106490154D01*
X27700890Y-106537773D01*
X27748509Y-106633011D01*
X27748509Y-106775868D01*
X27700890Y-106871106D01*
X27653271Y-106918725D01*
X27558033Y-106966344D01*
X27177080Y-106966344D01*
X28367556Y-106442534D02*
X28462795Y-106442534D01*
X28558033Y-106490154D01*
X28605652Y-106537773D01*
X28653271Y-106633011D01*
X28700890Y-106823487D01*
X28700890Y-107061582D01*
X28653271Y-107252058D01*
X28605652Y-107347296D01*
X28558033Y-107394915D01*
X28462795Y-107442534D01*
X28367556Y-107442534D01*
X28272318Y-107394915D01*
X28224699Y-107347296D01*
X28177080Y-107252058D01*
X28129461Y-107061582D01*
X28129461Y-106823487D01*
X28177080Y-106633011D01*
X28224699Y-106537773D01*
X28272318Y-106490154D01*
X28367556Y-106442534D01*
X48062153Y-42708547D02*
X48205010Y-42756166D01*
X48443105Y-42756166D01*
X48538343Y-42708547D01*
X48585963Y-42660928D01*
X48633582Y-42565690D01*
X48633582Y-42470452D01*
X48585963Y-42375214D01*
X48538343Y-42327595D01*
X48443105Y-42279976D01*
X48252629Y-42232357D01*
X48157391Y-42184738D01*
X48109772Y-42137119D01*
X48062153Y-42041881D01*
X48062153Y-41946643D01*
X48109772Y-41851405D01*
X48157391Y-41803786D01*
X48252629Y-41756166D01*
X48490724Y-41756166D01*
X48633582Y-41803786D01*
X48966915Y-42089500D02*
X49157391Y-42756166D01*
X49347867Y-42279976D01*
X49538343Y-42756166D01*
X49728820Y-42089500D01*
X50109772Y-42756166D02*
X50109772Y-42089500D01*
X50109772Y-41756166D02*
X50062153Y-41803786D01*
X50109772Y-41851405D01*
X50157391Y-41803786D01*
X50109772Y-41756166D01*
X50109772Y-41851405D01*
X50443105Y-42089500D02*
X50824058Y-42089500D01*
X50585963Y-41756166D02*
X50585963Y-42613309D01*
X50633582Y-42708547D01*
X50728820Y-42756166D01*
X50824058Y-42756166D01*
X51585963Y-42708547D02*
X51490724Y-42756166D01*
X51300248Y-42756166D01*
X51205010Y-42708547D01*
X51157391Y-42660928D01*
X51109772Y-42565690D01*
X51109772Y-42279976D01*
X51157391Y-42184738D01*
X51205010Y-42137119D01*
X51300248Y-42089500D01*
X51490724Y-42089500D01*
X51585963Y-42137119D01*
X52014534Y-42756166D02*
X52014534Y-41756166D01*
X52443105Y-42756166D02*
X52443105Y-42232357D01*
X52395486Y-42137119D01*
X52300248Y-42089500D01*
X52157391Y-42089500D01*
X52062153Y-42137119D01*
X52014534Y-42184738D01*
X53633582Y-42470452D02*
X54109772Y-42470452D01*
X53538343Y-42756166D02*
X53871677Y-41756166D01*
X54205010Y-42756166D01*
X47812142Y-97320952D02*
X47859761Y-97368571D01*
X47907380Y-97511428D01*
X47907380Y-97606666D01*
X47859761Y-97749523D01*
X47764523Y-97844761D01*
X47669285Y-97892380D01*
X47478809Y-97940000D01*
X47335952Y-97940000D01*
X47145476Y-97892380D01*
X47050238Y-97844761D01*
X46955000Y-97749523D01*
X46907380Y-97606666D01*
X46907380Y-97511428D01*
X46955000Y-97368571D01*
X47002619Y-97320952D01*
X46907380Y-97035238D02*
X46907380Y-96463809D01*
X47907380Y-96749523D02*
X46907380Y-96749523D01*
X47907380Y-96130476D02*
X46907380Y-96130476D01*
X47621666Y-95797142D01*
X46907380Y-95463809D01*
X47907380Y-95463809D01*
X47526428Y-94987619D02*
X47526428Y-94225714D01*
X47859761Y-93797142D02*
X47907380Y-93654285D01*
X47907380Y-93416190D01*
X47859761Y-93320952D01*
X47812142Y-93273333D01*
X47716904Y-93225714D01*
X47621666Y-93225714D01*
X47526428Y-93273333D01*
X47478809Y-93320952D01*
X47431190Y-93416190D01*
X47383571Y-93606666D01*
X47335952Y-93701904D01*
X47288333Y-93749523D01*
X47193095Y-93797142D01*
X47097857Y-93797142D01*
X47002619Y-93749523D01*
X46955000Y-93701904D01*
X46907380Y-93606666D01*
X46907380Y-93368571D01*
X46955000Y-93225714D01*
X47907380Y-92797142D02*
X46907380Y-92797142D01*
X47621666Y-92463809D01*
X46907380Y-92130476D01*
X47907380Y-92130476D01*
X46907380Y-91463809D02*
X46907380Y-91368571D01*
X46955000Y-91273333D01*
X47002619Y-91225714D01*
X47097857Y-91178095D01*
X47288333Y-91130476D01*
X47526428Y-91130476D01*
X47716904Y-91178095D01*
X47812142Y-91225714D01*
X47859761Y-91273333D01*
X47907380Y-91368571D01*
X47907380Y-91463809D01*
X47859761Y-91559047D01*
X47812142Y-91606666D01*
X47716904Y-91654285D01*
X47526428Y-91701904D01*
X47288333Y-91701904D01*
X47097857Y-91654285D01*
X47002619Y-91606666D01*
X46955000Y-91559047D01*
X46907380Y-91463809D01*
X47907380Y-90178095D02*
X47907380Y-90749523D01*
X47907380Y-90463809D02*
X46907380Y-90463809D01*
X47050238Y-90559047D01*
X47145476Y-90654285D01*
X47193095Y-90749523D01*
X48288333Y-88701904D02*
X48240714Y-88749523D01*
X48097857Y-88844761D01*
X48002619Y-88892380D01*
X47859761Y-88940000D01*
X47621666Y-88987619D01*
X47431190Y-88987619D01*
X47193095Y-88940000D01*
X47050238Y-88892380D01*
X46955000Y-88844761D01*
X46812142Y-88749523D01*
X46764523Y-88701904D01*
X47240714Y-88416190D02*
X47907380Y-88178095D01*
X47240714Y-87940000D01*
X47907380Y-87035238D02*
X47907380Y-87606666D01*
X47907380Y-87320952D02*
X46907380Y-87320952D01*
X47050238Y-87416190D01*
X47145476Y-87511428D01*
X47193095Y-87606666D01*
X47812142Y-86606666D02*
X47859761Y-86559047D01*
X47907380Y-86606666D01*
X47859761Y-86654285D01*
X47812142Y-86606666D01*
X47907380Y-86606666D01*
X46907380Y-86225714D02*
X46907380Y-85606666D01*
X47288333Y-85940000D01*
X47288333Y-85797142D01*
X47335952Y-85701904D01*
X47383571Y-85654285D01*
X47478809Y-85606666D01*
X47716904Y-85606666D01*
X47812142Y-85654285D01*
X47859761Y-85701904D01*
X47907380Y-85797142D01*
X47907380Y-86082857D01*
X47859761Y-86178095D01*
X47812142Y-86225714D01*
X48288333Y-85273333D02*
X48240714Y-85225714D01*
X48097857Y-85130476D01*
X48002619Y-85082857D01*
X47859761Y-85035238D01*
X47621666Y-84987619D01*
X47431190Y-84987619D01*
X47193095Y-85035238D01*
X47050238Y-85082857D01*
X46955000Y-85130476D01*
X46812142Y-85225714D01*
X46764523Y-85273333D01*
X49469761Y-96940000D02*
X49517380Y-97035238D01*
X49517380Y-97225714D01*
X49469761Y-97320952D01*
X49422142Y-97368571D01*
X49326904Y-97416190D01*
X49041190Y-97416190D01*
X48945952Y-97368571D01*
X48898333Y-97320952D01*
X48850714Y-97225714D01*
X48850714Y-97035238D01*
X48898333Y-96940000D01*
X48850714Y-96654285D02*
X48850714Y-96273333D01*
X48517380Y-96511428D02*
X49374523Y-96511428D01*
X49469761Y-96463809D01*
X49517380Y-96368571D01*
X49517380Y-96273333D01*
X49136428Y-95940000D02*
X49136428Y-95178095D01*
X49517380Y-94701904D02*
X48850714Y-94701904D01*
X48945952Y-94701904D02*
X48898333Y-94654285D01*
X48850714Y-94559047D01*
X48850714Y-94416190D01*
X48898333Y-94320952D01*
X48993571Y-94273333D01*
X49517380Y-94273333D01*
X48993571Y-94273333D02*
X48898333Y-94225714D01*
X48850714Y-94130476D01*
X48850714Y-93987619D01*
X48898333Y-93892380D01*
X48993571Y-93844761D01*
X49517380Y-93844761D01*
X49517380Y-93225714D02*
X49469761Y-93320952D01*
X49422142Y-93368571D01*
X49326904Y-93416190D01*
X49041190Y-93416190D01*
X48945952Y-93368571D01*
X48898333Y-93320952D01*
X48850714Y-93225714D01*
X48850714Y-93082857D01*
X48898333Y-92987619D01*
X48945952Y-92940000D01*
X49041190Y-92892380D01*
X49326904Y-92892380D01*
X49422142Y-92940000D01*
X49469761Y-92987619D01*
X49517380Y-93082857D01*
X49517380Y-93225714D01*
X49517380Y-92035238D02*
X48517380Y-92035238D01*
X49469761Y-92035238D02*
X49517380Y-92130476D01*
X49517380Y-92320952D01*
X49469761Y-92416190D01*
X49422142Y-92463809D01*
X49326904Y-92511428D01*
X49041190Y-92511428D01*
X48945952Y-92463809D01*
X48898333Y-92416190D01*
X48850714Y-92320952D01*
X48850714Y-92130476D01*
X48898333Y-92035238D01*
X49469761Y-91178095D02*
X49517380Y-91273333D01*
X49517380Y-91463809D01*
X49469761Y-91559047D01*
X49374523Y-91606666D01*
X48993571Y-91606666D01*
X48898333Y-91559047D01*
X48850714Y-91463809D01*
X48850714Y-91273333D01*
X48898333Y-91178095D01*
X48993571Y-91130476D01*
X49088809Y-91130476D01*
X49184047Y-91606666D01*
X49517380Y-90559047D02*
X49469761Y-90654285D01*
X49374523Y-90701904D01*
X48517380Y-90701904D01*
X49517380Y-90178095D02*
X48850714Y-90178095D01*
X48517380Y-90178095D02*
X48565000Y-90225714D01*
X48612619Y-90178095D01*
X48565000Y-90130476D01*
X48517380Y-90178095D01*
X48612619Y-90178095D01*
X49469761Y-89749523D02*
X49517380Y-89654285D01*
X49517380Y-89463809D01*
X49469761Y-89368571D01*
X49374523Y-89320952D01*
X49326904Y-89320952D01*
X49231666Y-89368571D01*
X49184047Y-89463809D01*
X49184047Y-89606666D01*
X49136428Y-89701904D01*
X49041190Y-89749523D01*
X48993571Y-89749523D01*
X48898333Y-89701904D01*
X48850714Y-89606666D01*
X48850714Y-89463809D01*
X48898333Y-89368571D01*
X49517380Y-88892380D02*
X48850714Y-88892380D01*
X48945952Y-88892380D02*
X48898333Y-88844761D01*
X48850714Y-88749523D01*
X48850714Y-88606666D01*
X48898333Y-88511428D01*
X48993571Y-88463809D01*
X49517380Y-88463809D01*
X48993571Y-88463809D02*
X48898333Y-88416190D01*
X48850714Y-88320952D01*
X48850714Y-88178095D01*
X48898333Y-88082857D01*
X48993571Y-88035238D01*
X49517380Y-88035238D01*
X49469761Y-87178095D02*
X49517380Y-87273333D01*
X49517380Y-87463809D01*
X49469761Y-87559047D01*
X49374523Y-87606666D01*
X48993571Y-87606666D01*
X48898333Y-87559047D01*
X48850714Y-87463809D01*
X48850714Y-87273333D01*
X48898333Y-87178095D01*
X48993571Y-87130476D01*
X49088809Y-87130476D01*
X49184047Y-87606666D01*
X49422142Y-86701904D02*
X49469761Y-86654285D01*
X49517380Y-86701904D01*
X49469761Y-86749523D01*
X49422142Y-86701904D01*
X49517380Y-86701904D01*
X48850714Y-86368571D02*
X48850714Y-85987619D01*
X49517380Y-86225714D02*
X48660238Y-86225714D01*
X48565000Y-86178095D01*
X48517380Y-86082857D01*
X48517380Y-85987619D01*
X49517380Y-85654285D02*
X48850714Y-85654285D01*
X49041190Y-85654285D02*
X48945952Y-85606666D01*
X48898333Y-85559047D01*
X48850714Y-85463809D01*
X48850714Y-85368571D01*
X55475238Y-105278904D02*
X55618095Y-105326523D01*
X55665714Y-105374142D01*
X55713333Y-105469380D01*
X55713333Y-105612237D01*
X55665714Y-105707475D01*
X55618095Y-105755094D01*
X55522857Y-105802713D01*
X55141904Y-105802713D01*
X55141904Y-104802713D01*
X55475238Y-104802713D01*
X55570476Y-104850333D01*
X55618095Y-104897952D01*
X55665714Y-104993190D01*
X55665714Y-105088428D01*
X55618095Y-105183666D01*
X55570476Y-105231285D01*
X55475238Y-105278904D01*
X55141904Y-105278904D01*
X56665714Y-105802713D02*
X56094285Y-105802713D01*
X56380000Y-105802713D02*
X56380000Y-104802713D01*
X56284761Y-104945571D01*
X56189523Y-105040809D01*
X56094285Y-105088428D01*
X71957120Y-105382891D02*
X72099977Y-105430510D01*
X72147596Y-105478129D01*
X72195215Y-105573367D01*
X72195215Y-105716224D01*
X72147596Y-105811462D01*
X72099977Y-105859081D01*
X72004739Y-105906700D01*
X71623786Y-105906700D01*
X71623786Y-104906700D01*
X71957120Y-104906700D01*
X72052358Y-104954320D01*
X72099977Y-105001939D01*
X72147596Y-105097177D01*
X72147596Y-105192415D01*
X72099977Y-105287653D01*
X72052358Y-105335272D01*
X71957120Y-105382891D01*
X71623786Y-105382891D01*
X72576167Y-105001939D02*
X72623786Y-104954320D01*
X72719024Y-104906700D01*
X72957120Y-104906700D01*
X73052358Y-104954320D01*
X73099977Y-105001939D01*
X73147596Y-105097177D01*
X73147596Y-105192415D01*
X73099977Y-105335272D01*
X72528548Y-105906700D01*
X73147596Y-105906700D01*
X67028588Y-95340898D02*
X67135731Y-95376612D01*
X67171445Y-95412327D01*
X67207160Y-95483755D01*
X67207160Y-95590898D01*
X67171445Y-95662327D01*
X67135731Y-95698041D01*
X67064302Y-95733755D01*
X66778588Y-95733755D01*
X66778588Y-94983755D01*
X67028588Y-94983755D01*
X67100017Y-95019470D01*
X67135731Y-95055184D01*
X67171445Y-95126612D01*
X67171445Y-95198041D01*
X67135731Y-95269470D01*
X67100017Y-95305184D01*
X67028588Y-95340898D01*
X66778588Y-95340898D01*
X67921445Y-95733755D02*
X67492874Y-95733755D01*
X67707160Y-95733755D02*
X67707160Y-94983755D01*
X67635731Y-95090898D01*
X67564302Y-95162327D01*
X67492874Y-95198041D01*
X68381904Y-74064761D02*
X68524761Y-74112380D01*
X68762857Y-74112380D01*
X68858095Y-74064761D01*
X68905714Y-74017142D01*
X68953333Y-73921904D01*
X68953333Y-73826666D01*
X68905714Y-73731428D01*
X68858095Y-73683809D01*
X68762857Y-73636190D01*
X68572380Y-73588571D01*
X68477142Y-73540952D01*
X68429523Y-73493333D01*
X68381904Y-73398095D01*
X68381904Y-73302857D01*
X68429523Y-73207619D01*
X68477142Y-73160000D01*
X68572380Y-73112380D01*
X68810476Y-73112380D01*
X68953333Y-73160000D01*
X69762857Y-74064761D02*
X69667619Y-74112380D01*
X69477142Y-74112380D01*
X69381904Y-74064761D01*
X69334285Y-73969523D01*
X69334285Y-73588571D01*
X69381904Y-73493333D01*
X69477142Y-73445714D01*
X69667619Y-73445714D01*
X69762857Y-73493333D01*
X69810476Y-73588571D01*
X69810476Y-73683809D01*
X69334285Y-73779047D01*
X70239047Y-74112380D02*
X70239047Y-73445714D01*
X70239047Y-73636190D02*
X70286666Y-73540952D01*
X70334285Y-73493333D01*
X70429523Y-73445714D01*
X70524761Y-73445714D01*
X70762857Y-73445714D02*
X71000952Y-74112380D01*
X71239047Y-73445714D01*
X71762857Y-74112380D02*
X71667619Y-74064761D01*
X71620000Y-74017142D01*
X71572380Y-73921904D01*
X71572380Y-73636190D01*
X71620000Y-73540952D01*
X71667619Y-73493333D01*
X71762857Y-73445714D01*
X71905714Y-73445714D01*
X72000952Y-73493333D01*
X72048571Y-73540952D01*
X72096190Y-73636190D01*
X72096190Y-73921904D01*
X72048571Y-74017142D01*
X72000952Y-74064761D01*
X71905714Y-74112380D01*
X71762857Y-74112380D01*
X73620000Y-73588571D02*
X73762857Y-73636190D01*
X73810476Y-73683809D01*
X73858095Y-73779047D01*
X73858095Y-73921904D01*
X73810476Y-74017142D01*
X73762857Y-74064761D01*
X73667619Y-74112380D01*
X73286666Y-74112380D01*
X73286666Y-73112380D01*
X73620000Y-73112380D01*
X73715238Y-73160000D01*
X73762857Y-73207619D01*
X73810476Y-73302857D01*
X73810476Y-73398095D01*
X73762857Y-73493333D01*
X73715238Y-73540952D01*
X73620000Y-73588571D01*
X73286666Y-73588571D01*
X32606595Y-95446806D02*
X32963738Y-95446806D01*
X32535167Y-95661091D02*
X32785167Y-94911091D01*
X33035167Y-95661091D01*
X33678024Y-95661091D02*
X33249452Y-95661091D01*
X33463738Y-95661091D02*
X33463738Y-94911091D01*
X33392310Y-95018234D01*
X33320881Y-95089663D01*
X33249452Y-95125377D01*
%TO.C,A1*%
X29765714Y-63666666D02*
X30241904Y-63666666D01*
X29670476Y-63952380D02*
X30003809Y-62952380D01*
X30337142Y-63952380D01*
X31194285Y-63952380D02*
X30622857Y-63952380D01*
X30908571Y-63952380D02*
X30908571Y-62952380D01*
X30813333Y-63095238D01*
X30718095Y-63190476D01*
X30622857Y-63238095D01*
%TO.C,C1*%
X16434094Y-40318250D02*
X16386475Y-40365869D01*
X16243618Y-40413488D01*
X16148380Y-40413488D01*
X16005522Y-40365869D01*
X15910284Y-40270631D01*
X15862665Y-40175393D01*
X15815046Y-39984917D01*
X15815046Y-39842060D01*
X15862665Y-39651584D01*
X15910284Y-39556346D01*
X16005522Y-39461108D01*
X16148380Y-39413488D01*
X16243618Y-39413488D01*
X16386475Y-39461108D01*
X16434094Y-39508727D01*
X17386475Y-40413488D02*
X16815046Y-40413488D01*
X17100761Y-40413488D02*
X17100761Y-39413488D01*
X17005522Y-39556346D01*
X16910284Y-39651584D01*
X16815046Y-39699203D01*
%TO.C,C2*%
X36659496Y-40318250D02*
X36611877Y-40365869D01*
X36469020Y-40413488D01*
X36373782Y-40413488D01*
X36230924Y-40365869D01*
X36135686Y-40270631D01*
X36088067Y-40175393D01*
X36040448Y-39984917D01*
X36040448Y-39842060D01*
X36088067Y-39651584D01*
X36135686Y-39556346D01*
X36230924Y-39461108D01*
X36373782Y-39413488D01*
X36469020Y-39413488D01*
X36611877Y-39461108D01*
X36659496Y-39508727D01*
X37040448Y-39508727D02*
X37088067Y-39461108D01*
X37183305Y-39413488D01*
X37421401Y-39413488D01*
X37516639Y-39461108D01*
X37564258Y-39508727D01*
X37611877Y-39603965D01*
X37611877Y-39699203D01*
X37564258Y-39842060D01*
X36992829Y-40413488D01*
X37611877Y-40413488D01*
%TO.C,D1*%
X36012380Y-27408095D02*
X35012380Y-27408095D01*
X35012380Y-27170000D01*
X35060000Y-27027142D01*
X35155238Y-26931904D01*
X35250476Y-26884285D01*
X35440952Y-26836666D01*
X35583809Y-26836666D01*
X35774285Y-26884285D01*
X35869523Y-26931904D01*
X35964761Y-27027142D01*
X36012380Y-27170000D01*
X36012380Y-27408095D01*
X36012380Y-25884285D02*
X36012380Y-26455714D01*
X36012380Y-26170000D02*
X35012380Y-26170000D01*
X35155238Y-26265238D01*
X35250476Y-26360476D01*
X35298095Y-26455714D01*
%TO.C,D2*%
X29640219Y-33758095D02*
X28640219Y-33758095D01*
X28640219Y-33520000D01*
X28687839Y-33377142D01*
X28783077Y-33281904D01*
X28878315Y-33234285D01*
X29068791Y-33186666D01*
X29211648Y-33186666D01*
X29402124Y-33234285D01*
X29497362Y-33281904D01*
X29592600Y-33377142D01*
X29640219Y-33520000D01*
X29640219Y-33758095D01*
X28735458Y-32805714D02*
X28687839Y-32758095D01*
X28640219Y-32662857D01*
X28640219Y-32424761D01*
X28687839Y-32329523D01*
X28735458Y-32281904D01*
X28830696Y-32234285D01*
X28925934Y-32234285D01*
X29068791Y-32281904D01*
X29640219Y-32853333D01*
X29640219Y-32234285D01*
%TO.C,D3*%
X18232380Y-27408095D02*
X17232380Y-27408095D01*
X17232380Y-27170000D01*
X17280000Y-27027142D01*
X17375238Y-26931904D01*
X17470476Y-26884285D01*
X17660952Y-26836666D01*
X17803809Y-26836666D01*
X17994285Y-26884285D01*
X18089523Y-26931904D01*
X18184761Y-27027142D01*
X18232380Y-27170000D01*
X18232380Y-27408095D01*
X17232380Y-26503333D02*
X17232380Y-25884285D01*
X17613333Y-26217619D01*
X17613333Y-26074761D01*
X17660952Y-25979523D01*
X17708571Y-25931904D01*
X17803809Y-25884285D01*
X18041904Y-25884285D01*
X18137142Y-25931904D01*
X18184761Y-25979523D01*
X18232380Y-26074761D01*
X18232380Y-26360476D01*
X18184761Y-26455714D01*
X18137142Y-26503333D01*
%TO.C,D4*%
X24614198Y-33758095D02*
X23614198Y-33758095D01*
X23614198Y-33520000D01*
X23661818Y-33377142D01*
X23757056Y-33281904D01*
X23852294Y-33234285D01*
X24042770Y-33186666D01*
X24185627Y-33186666D01*
X24376103Y-33234285D01*
X24471341Y-33281904D01*
X24566579Y-33377142D01*
X24614198Y-33520000D01*
X24614198Y-33758095D01*
X23947532Y-32329523D02*
X24614198Y-32329523D01*
X23566579Y-32567619D02*
X24280865Y-32805714D01*
X24280865Y-32186666D01*
%TO.C,D10*%
X55935714Y-80440219D02*
X55935714Y-79440219D01*
X56173809Y-79440219D01*
X56316666Y-79487839D01*
X56411904Y-79583077D01*
X56459523Y-79678315D01*
X56507142Y-79868791D01*
X56507142Y-80011648D01*
X56459523Y-80202124D01*
X56411904Y-80297362D01*
X56316666Y-80392600D01*
X56173809Y-80440219D01*
X55935714Y-80440219D01*
X57459523Y-80440219D02*
X56888095Y-80440219D01*
X57173809Y-80440219D02*
X57173809Y-79440219D01*
X57078571Y-79583077D01*
X56983333Y-79678315D01*
X56888095Y-79725934D01*
X58078571Y-79440219D02*
X58173809Y-79440219D01*
X58269047Y-79487839D01*
X58316666Y-79535458D01*
X58364285Y-79630696D01*
X58411904Y-79821172D01*
X58411904Y-80059267D01*
X58364285Y-80249743D01*
X58316666Y-80344981D01*
X58269047Y-80392600D01*
X58173809Y-80440219D01*
X58078571Y-80440219D01*
X57983333Y-80392600D01*
X57935714Y-80344981D01*
X57888095Y-80249743D01*
X57840476Y-80059267D01*
X57840476Y-79821172D01*
X57888095Y-79630696D01*
X57935714Y-79535458D01*
X57983333Y-79487839D01*
X58078571Y-79440219D01*
%TO.C,D11*%
X55935714Y-76652380D02*
X55935714Y-75652380D01*
X56173809Y-75652380D01*
X56316666Y-75700000D01*
X56411904Y-75795238D01*
X56459523Y-75890476D01*
X56507142Y-76080952D01*
X56507142Y-76223809D01*
X56459523Y-76414285D01*
X56411904Y-76509523D01*
X56316666Y-76604761D01*
X56173809Y-76652380D01*
X55935714Y-76652380D01*
X57459523Y-76652380D02*
X56888095Y-76652380D01*
X57173809Y-76652380D02*
X57173809Y-75652380D01*
X57078571Y-75795238D01*
X56983333Y-75890476D01*
X56888095Y-75938095D01*
X58411904Y-76652380D02*
X57840476Y-76652380D01*
X58126190Y-76652380D02*
X58126190Y-75652380D01*
X58030952Y-75795238D01*
X57935714Y-75890476D01*
X57840476Y-75938095D01*
%TO.C,J1*%
X58086666Y-23632884D02*
X58086666Y-24347170D01*
X58039047Y-24490027D01*
X57943809Y-24585265D01*
X57800952Y-24632884D01*
X57705714Y-24632884D01*
X59086666Y-24632884D02*
X58515238Y-24632884D01*
X58800952Y-24632884D02*
X58800952Y-23632884D01*
X58705714Y-23775742D01*
X58610476Y-23870980D01*
X58515238Y-23918599D01*
%TO.C,J2*%
X26336666Y-23881838D02*
X26336666Y-24596124D01*
X26289047Y-24738981D01*
X26193809Y-24834219D01*
X26050952Y-24881838D01*
X25955714Y-24881838D01*
X26765238Y-23977077D02*
X26812857Y-23929458D01*
X26908095Y-23881838D01*
X27146190Y-23881838D01*
X27241428Y-23929458D01*
X27289047Y-23977077D01*
X27336666Y-24072315D01*
X27336666Y-24167553D01*
X27289047Y-24310410D01*
X26717619Y-24881838D01*
X27336666Y-24881838D01*
%TO.C,J3*%
X72056666Y-23788864D02*
X72056666Y-24503150D01*
X72009047Y-24646007D01*
X71913809Y-24741245D01*
X71770952Y-24788864D01*
X71675714Y-24788864D01*
X72437619Y-23788864D02*
X73056666Y-23788864D01*
X72723333Y-24169817D01*
X72866190Y-24169817D01*
X72961428Y-24217436D01*
X73009047Y-24265055D01*
X73056666Y-24360293D01*
X73056666Y-24598388D01*
X73009047Y-24693626D01*
X72961428Y-24741245D01*
X72866190Y-24788864D01*
X72580476Y-24788864D01*
X72485238Y-24741245D01*
X72437619Y-24693626D01*
%TO.C,J8*%
X22526666Y-108672380D02*
X22526666Y-109386666D01*
X22479047Y-109529523D01*
X22383809Y-109624761D01*
X22240952Y-109672380D01*
X22145714Y-109672380D01*
X23145714Y-109100952D02*
X23050476Y-109053333D01*
X23002857Y-109005714D01*
X22955238Y-108910476D01*
X22955238Y-108862857D01*
X23002857Y-108767619D01*
X23050476Y-108720000D01*
X23145714Y-108672380D01*
X23336190Y-108672380D01*
X23431428Y-108720000D01*
X23479047Y-108767619D01*
X23526666Y-108862857D01*
X23526666Y-108910476D01*
X23479047Y-109005714D01*
X23431428Y-109053333D01*
X23336190Y-109100952D01*
X23145714Y-109100952D01*
X23050476Y-109148571D01*
X23002857Y-109196190D01*
X22955238Y-109291428D01*
X22955238Y-109481904D01*
X23002857Y-109577142D01*
X23050476Y-109624761D01*
X23145714Y-109672380D01*
X23336190Y-109672380D01*
X23431428Y-109624761D01*
X23479047Y-109577142D01*
X23526666Y-109481904D01*
X23526666Y-109291428D01*
X23479047Y-109196190D01*
X23431428Y-109148571D01*
X23336190Y-109100952D01*
%TO.C,J9*%
X39055862Y-108677705D02*
X39055862Y-109391991D01*
X39008243Y-109534848D01*
X38913005Y-109630086D01*
X38770148Y-109677705D01*
X38674910Y-109677705D01*
X39579672Y-109677705D02*
X39770148Y-109677705D01*
X39865386Y-109630086D01*
X39913005Y-109582467D01*
X40008243Y-109439610D01*
X40055862Y-109249134D01*
X40055862Y-108868182D01*
X40008243Y-108772944D01*
X39960624Y-108725325D01*
X39865386Y-108677705D01*
X39674910Y-108677705D01*
X39579672Y-108725325D01*
X39532053Y-108772944D01*
X39484434Y-108868182D01*
X39484434Y-109106277D01*
X39532053Y-109201515D01*
X39579672Y-109249134D01*
X39674910Y-109296753D01*
X39865386Y-109296753D01*
X39960624Y-109249134D01*
X40008243Y-109201515D01*
X40055862Y-109106277D01*
%TO.C,J10*%
X55070476Y-108672380D02*
X55070476Y-109386666D01*
X55022857Y-109529523D01*
X54927619Y-109624761D01*
X54784761Y-109672380D01*
X54689523Y-109672380D01*
X56070476Y-109672380D02*
X55499047Y-109672380D01*
X55784761Y-109672380D02*
X55784761Y-108672380D01*
X55689523Y-108815238D01*
X55594285Y-108910476D01*
X55499047Y-108958095D01*
X56689523Y-108672380D02*
X56784761Y-108672380D01*
X56880000Y-108720000D01*
X56927619Y-108767619D01*
X56975238Y-108862857D01*
X57022857Y-109053333D01*
X57022857Y-109291428D01*
X56975238Y-109481904D01*
X56927619Y-109577142D01*
X56880000Y-109624761D01*
X56784761Y-109672380D01*
X56689523Y-109672380D01*
X56594285Y-109624761D01*
X56546666Y-109577142D01*
X56499047Y-109481904D01*
X56451428Y-109291428D01*
X56451428Y-109053333D01*
X56499047Y-108862857D01*
X56546666Y-108767619D01*
X56594285Y-108720000D01*
X56689523Y-108672380D01*
%TO.C,J11*%
X71569434Y-108677705D02*
X71569434Y-109391991D01*
X71521815Y-109534848D01*
X71426577Y-109630086D01*
X71283719Y-109677705D01*
X71188481Y-109677705D01*
X72569434Y-109677705D02*
X71998005Y-109677705D01*
X72283719Y-109677705D02*
X72283719Y-108677705D01*
X72188481Y-108820563D01*
X72093243Y-108915801D01*
X71998005Y-108963420D01*
X73521815Y-109677705D02*
X72950386Y-109677705D01*
X73236100Y-109677705D02*
X73236100Y-108677705D01*
X73140862Y-108820563D01*
X73045624Y-108915801D01*
X72950386Y-108963420D01*
%TO.C,K1*%
X23391904Y-94432380D02*
X23391904Y-93432380D01*
X23963333Y-94432380D02*
X23534761Y-93860952D01*
X23963333Y-93432380D02*
X23391904Y-94003809D01*
X24915714Y-94432380D02*
X24344285Y-94432380D01*
X24630000Y-94432380D02*
X24630000Y-93432380D01*
X24534761Y-93575238D01*
X24439523Y-93670476D01*
X24344285Y-93718095D01*
%TO.C,K2*%
X56411904Y-94432380D02*
X56411904Y-93432380D01*
X56983333Y-94432380D02*
X56554761Y-93860952D01*
X56983333Y-93432380D02*
X56411904Y-94003809D01*
X57364285Y-93527619D02*
X57411904Y-93480000D01*
X57507142Y-93432380D01*
X57745238Y-93432380D01*
X57840476Y-93480000D01*
X57888095Y-93527619D01*
X57935714Y-93622857D01*
X57935714Y-93718095D01*
X57888095Y-93860952D01*
X57316666Y-94432380D01*
X57935714Y-94432380D01*
%TO.C,Q4*%
X73814780Y-86455238D02*
X73767161Y-86550476D01*
X73671922Y-86645714D01*
X73529065Y-86788571D01*
X73481446Y-86883809D01*
X73481446Y-86979047D01*
X73719541Y-86931428D02*
X73671922Y-87026666D01*
X73576684Y-87121904D01*
X73386208Y-87169523D01*
X73052875Y-87169523D01*
X72862399Y-87121904D01*
X72767161Y-87026666D01*
X72719541Y-86931428D01*
X72719541Y-86740952D01*
X72767161Y-86645714D01*
X72862399Y-86550476D01*
X73052875Y-86502857D01*
X73386208Y-86502857D01*
X73576684Y-86550476D01*
X73671922Y-86645714D01*
X73719541Y-86740952D01*
X73719541Y-86931428D01*
X73052875Y-85645714D02*
X73719541Y-85645714D01*
X72671922Y-85883809D02*
X73386208Y-86121904D01*
X73386208Y-85502857D01*
%TO.C,R1*%
X60793333Y-29624874D02*
X60460000Y-29148684D01*
X60221904Y-29624874D02*
X60221904Y-28624874D01*
X60602857Y-28624874D01*
X60698095Y-28672494D01*
X60745714Y-28720113D01*
X60793333Y-28815351D01*
X60793333Y-28958208D01*
X60745714Y-29053446D01*
X60698095Y-29101065D01*
X60602857Y-29148684D01*
X60221904Y-29148684D01*
X61745714Y-29624874D02*
X61174285Y-29624874D01*
X61460000Y-29624874D02*
X61460000Y-28624874D01*
X61364761Y-28767732D01*
X61269523Y-28862970D01*
X61174285Y-28910589D01*
%TO.C,R2*%
X73493333Y-34713178D02*
X73160000Y-34236988D01*
X72921904Y-34713178D02*
X72921904Y-33713178D01*
X73302857Y-33713178D01*
X73398095Y-33760798D01*
X73445714Y-33808417D01*
X73493333Y-33903655D01*
X73493333Y-34046512D01*
X73445714Y-34141750D01*
X73398095Y-34189369D01*
X73302857Y-34236988D01*
X72921904Y-34236988D01*
X73874285Y-33808417D02*
X73921904Y-33760798D01*
X74017142Y-33713178D01*
X74255238Y-33713178D01*
X74350476Y-33760798D01*
X74398095Y-33808417D01*
X74445714Y-33903655D01*
X74445714Y-33998893D01*
X74398095Y-34141750D01*
X73826666Y-34713178D01*
X74445714Y-34713178D01*
%TO.C,R3*%
X73493333Y-38552380D02*
X73160000Y-38076190D01*
X72921904Y-38552380D02*
X72921904Y-37552380D01*
X73302857Y-37552380D01*
X73398095Y-37600000D01*
X73445714Y-37647619D01*
X73493333Y-37742857D01*
X73493333Y-37885714D01*
X73445714Y-37980952D01*
X73398095Y-38028571D01*
X73302857Y-38076190D01*
X72921904Y-38076190D01*
X73826666Y-37552380D02*
X74445714Y-37552380D01*
X74112380Y-37933333D01*
X74255238Y-37933333D01*
X74350476Y-37980952D01*
X74398095Y-38028571D01*
X74445714Y-38123809D01*
X74445714Y-38361904D01*
X74398095Y-38457142D01*
X74350476Y-38504761D01*
X74255238Y-38552380D01*
X73969523Y-38552380D01*
X73874285Y-38504761D01*
X73826666Y-38457142D01*
%TO.C,R4*%
X77939214Y-47156666D02*
X77463024Y-47490000D01*
X77939214Y-47728095D02*
X76939214Y-47728095D01*
X76939214Y-47347142D01*
X76986834Y-47251904D01*
X77034453Y-47204285D01*
X77129691Y-47156666D01*
X77272548Y-47156666D01*
X77367786Y-47204285D01*
X77415405Y-47251904D01*
X77463024Y-47347142D01*
X77463024Y-47728095D01*
X77272548Y-46299523D02*
X77939214Y-46299523D01*
X76891595Y-46537619D02*
X77605881Y-46775714D01*
X77605881Y-46156666D01*
%TO.C,R5*%
X59523333Y-34746216D02*
X59190000Y-34270026D01*
X58951904Y-34746216D02*
X58951904Y-33746216D01*
X59332857Y-33746216D01*
X59428095Y-33793836D01*
X59475714Y-33841455D01*
X59523333Y-33936693D01*
X59523333Y-34079550D01*
X59475714Y-34174788D01*
X59428095Y-34222407D01*
X59332857Y-34270026D01*
X58951904Y-34270026D01*
X60428095Y-33746216D02*
X59951904Y-33746216D01*
X59904285Y-34222407D01*
X59951904Y-34174788D01*
X60047142Y-34127169D01*
X60285238Y-34127169D01*
X60380476Y-34174788D01*
X60428095Y-34222407D01*
X60475714Y-34317645D01*
X60475714Y-34555740D01*
X60428095Y-34650978D01*
X60380476Y-34698597D01*
X60285238Y-34746216D01*
X60047142Y-34746216D01*
X59951904Y-34698597D01*
X59904285Y-34650978D01*
%TO.C,R6*%
X45553333Y-39815565D02*
X45220000Y-39339375D01*
X44981904Y-39815565D02*
X44981904Y-38815565D01*
X45362857Y-38815565D01*
X45458095Y-38863185D01*
X45505714Y-38910804D01*
X45553333Y-39006042D01*
X45553333Y-39148899D01*
X45505714Y-39244137D01*
X45458095Y-39291756D01*
X45362857Y-39339375D01*
X44981904Y-39339375D01*
X46410476Y-38815565D02*
X46220000Y-38815565D01*
X46124761Y-38863185D01*
X46077142Y-38910804D01*
X45981904Y-39053661D01*
X45934285Y-39244137D01*
X45934285Y-39625089D01*
X45981904Y-39720327D01*
X46029523Y-39767946D01*
X46124761Y-39815565D01*
X46315238Y-39815565D01*
X46410476Y-39767946D01*
X46458095Y-39720327D01*
X46505714Y-39625089D01*
X46505714Y-39386994D01*
X46458095Y-39291756D01*
X46410476Y-39244137D01*
X46315238Y-39196518D01*
X46124761Y-39196518D01*
X46029523Y-39244137D01*
X45981904Y-39291756D01*
X45934285Y-39386994D01*
%TO.C,R7*%
X39203333Y-44910910D02*
X38870000Y-44434720D01*
X38631904Y-44910910D02*
X38631904Y-43910910D01*
X39012857Y-43910910D01*
X39108095Y-43958530D01*
X39155714Y-44006149D01*
X39203333Y-44101387D01*
X39203333Y-44244244D01*
X39155714Y-44339482D01*
X39108095Y-44387101D01*
X39012857Y-44434720D01*
X38631904Y-44434720D01*
X39536666Y-43910910D02*
X40203333Y-43910910D01*
X39774761Y-44910910D01*
%TO.C,R8*%
X59523333Y-38552380D02*
X59190000Y-38076190D01*
X58951904Y-38552380D02*
X58951904Y-37552380D01*
X59332857Y-37552380D01*
X59428095Y-37600000D01*
X59475714Y-37647619D01*
X59523333Y-37742857D01*
X59523333Y-37885714D01*
X59475714Y-37980952D01*
X59428095Y-38028571D01*
X59332857Y-38076190D01*
X58951904Y-38076190D01*
X60094761Y-37980952D02*
X59999523Y-37933333D01*
X59951904Y-37885714D01*
X59904285Y-37790476D01*
X59904285Y-37742857D01*
X59951904Y-37647619D01*
X59999523Y-37600000D01*
X60094761Y-37552380D01*
X60285238Y-37552380D01*
X60380476Y-37600000D01*
X60428095Y-37647619D01*
X60475714Y-37742857D01*
X60475714Y-37790476D01*
X60428095Y-37885714D01*
X60380476Y-37933333D01*
X60285238Y-37980952D01*
X60094761Y-37980952D01*
X59999523Y-38028571D01*
X59951904Y-38076190D01*
X59904285Y-38171428D01*
X59904285Y-38361904D01*
X59951904Y-38457142D01*
X59999523Y-38504761D01*
X60094761Y-38552380D01*
X60285238Y-38552380D01*
X60380476Y-38504761D01*
X60428095Y-38457142D01*
X60475714Y-38361904D01*
X60475714Y-38171428D01*
X60428095Y-38076190D01*
X60380476Y-38028571D01*
X60285238Y-37980952D01*
%TO.C,R9*%
X37933333Y-80421895D02*
X37600000Y-79945705D01*
X37361904Y-80421895D02*
X37361904Y-79421895D01*
X37742857Y-79421895D01*
X37838095Y-79469515D01*
X37885714Y-79517134D01*
X37933333Y-79612372D01*
X37933333Y-79755229D01*
X37885714Y-79850467D01*
X37838095Y-79898086D01*
X37742857Y-79945705D01*
X37361904Y-79945705D01*
X38409523Y-80421895D02*
X38600000Y-80421895D01*
X38695238Y-80374276D01*
X38742857Y-80326657D01*
X38838095Y-80183800D01*
X38885714Y-79993324D01*
X38885714Y-79612372D01*
X38838095Y-79517134D01*
X38790476Y-79469515D01*
X38695238Y-79421895D01*
X38504761Y-79421895D01*
X38409523Y-79469515D01*
X38361904Y-79517134D01*
X38314285Y-79612372D01*
X38314285Y-79850467D01*
X38361904Y-79945705D01*
X38409523Y-79993324D01*
X38504761Y-80040943D01*
X38695238Y-80040943D01*
X38790476Y-79993324D01*
X38838095Y-79945705D01*
X38885714Y-79850467D01*
%TO.C,R10*%
X36187142Y-91892380D02*
X35853809Y-91416190D01*
X35615714Y-91892380D02*
X35615714Y-90892380D01*
X35996666Y-90892380D01*
X36091904Y-90940000D01*
X36139523Y-90987619D01*
X36187142Y-91082857D01*
X36187142Y-91225714D01*
X36139523Y-91320952D01*
X36091904Y-91368571D01*
X35996666Y-91416190D01*
X35615714Y-91416190D01*
X37139523Y-91892380D02*
X36568095Y-91892380D01*
X36853809Y-91892380D02*
X36853809Y-90892380D01*
X36758571Y-91035238D01*
X36663333Y-91130476D01*
X36568095Y-91178095D01*
X37758571Y-90892380D02*
X37853809Y-90892380D01*
X37949047Y-90940000D01*
X37996666Y-90987619D01*
X38044285Y-91082857D01*
X38091904Y-91273333D01*
X38091904Y-91511428D01*
X38044285Y-91701904D01*
X37996666Y-91797142D01*
X37949047Y-91844761D01*
X37853809Y-91892380D01*
X37758571Y-91892380D01*
X37663333Y-91844761D01*
X37615714Y-91797142D01*
X37568095Y-91701904D01*
X37520476Y-91511428D01*
X37520476Y-91273333D01*
X37568095Y-91082857D01*
X37615714Y-90987619D01*
X37663333Y-90940000D01*
X37758571Y-90892380D01*
%TO.C,R12*%
X70477142Y-91892380D02*
X70143809Y-91416190D01*
X69905714Y-91892380D02*
X69905714Y-90892380D01*
X70286666Y-90892380D01*
X70381904Y-90940000D01*
X70429523Y-90987619D01*
X70477142Y-91082857D01*
X70477142Y-91225714D01*
X70429523Y-91320952D01*
X70381904Y-91368571D01*
X70286666Y-91416190D01*
X69905714Y-91416190D01*
X71429523Y-91892380D02*
X70858095Y-91892380D01*
X71143809Y-91892380D02*
X71143809Y-90892380D01*
X71048571Y-91035238D01*
X70953333Y-91130476D01*
X70858095Y-91178095D01*
X71810476Y-90987619D02*
X71858095Y-90940000D01*
X71953333Y-90892380D01*
X72191428Y-90892380D01*
X72286666Y-90940000D01*
X72334285Y-90987619D01*
X72381904Y-91082857D01*
X72381904Y-91178095D01*
X72334285Y-91320952D01*
X71762857Y-91892380D01*
X72381904Y-91892380D01*
%TO.C,SW1*%
X19526656Y-52821973D02*
X19574275Y-52679116D01*
X19574275Y-52441020D01*
X19526656Y-52345782D01*
X19479037Y-52298163D01*
X19383799Y-52250544D01*
X19288561Y-52250544D01*
X19193323Y-52298163D01*
X19145704Y-52345782D01*
X19098085Y-52441020D01*
X19050466Y-52631497D01*
X19002847Y-52726735D01*
X18955228Y-52774354D01*
X18859990Y-52821973D01*
X18764752Y-52821973D01*
X18669514Y-52774354D01*
X18621895Y-52726735D01*
X18574275Y-52631497D01*
X18574275Y-52393401D01*
X18621895Y-52250544D01*
X18574275Y-51917211D02*
X19574275Y-51679116D01*
X18859990Y-51488640D01*
X19574275Y-51298163D01*
X18574275Y-51060068D01*
X19574275Y-50155306D02*
X19574275Y-50726735D01*
X19574275Y-50441020D02*
X18574275Y-50441020D01*
X18717133Y-50536259D01*
X18812371Y-50631497D01*
X18859990Y-50726735D01*
%TO.C,SW2*%
X51375815Y-48961469D02*
X51423434Y-48818612D01*
X51423434Y-48580516D01*
X51375815Y-48485278D01*
X51328196Y-48437659D01*
X51232958Y-48390040D01*
X51137720Y-48390040D01*
X51042482Y-48437659D01*
X50994863Y-48485278D01*
X50947244Y-48580516D01*
X50899625Y-48770993D01*
X50852006Y-48866231D01*
X50804387Y-48913850D01*
X50709149Y-48961469D01*
X50613911Y-48961469D01*
X50518673Y-48913850D01*
X50471054Y-48866231D01*
X50423434Y-48770993D01*
X50423434Y-48532897D01*
X50471054Y-48390040D01*
X50423434Y-48056707D02*
X51423434Y-47818612D01*
X50709149Y-47628136D01*
X51423434Y-47437659D01*
X50423434Y-47199564D01*
X50518673Y-46866231D02*
X50471054Y-46818612D01*
X50423434Y-46723374D01*
X50423434Y-46485278D01*
X50471054Y-46390040D01*
X50518673Y-46342421D01*
X50613911Y-46294802D01*
X50709149Y-46294802D01*
X50852006Y-46342421D01*
X51423434Y-46913850D01*
X51423434Y-46294802D01*
%TO.C,SW3*%
X70757228Y-49017254D02*
X70804847Y-48874397D01*
X70804847Y-48636301D01*
X70757228Y-48541063D01*
X70709609Y-48493444D01*
X70614371Y-48445825D01*
X70519133Y-48445825D01*
X70423895Y-48493444D01*
X70376276Y-48541063D01*
X70328657Y-48636301D01*
X70281038Y-48826778D01*
X70233419Y-48922016D01*
X70185800Y-48969635D01*
X70090562Y-49017254D01*
X69995324Y-49017254D01*
X69900086Y-48969635D01*
X69852467Y-48922016D01*
X69804847Y-48826778D01*
X69804847Y-48588682D01*
X69852467Y-48445825D01*
X69804847Y-48112492D02*
X70804847Y-47874397D01*
X70090562Y-47683921D01*
X70804847Y-47493444D01*
X69804847Y-47255349D01*
X69804847Y-46969635D02*
X69804847Y-46350587D01*
X70185800Y-46683921D01*
X70185800Y-46541063D01*
X70233419Y-46445825D01*
X70281038Y-46398206D01*
X70376276Y-46350587D01*
X70614371Y-46350587D01*
X70709609Y-46398206D01*
X70757228Y-46445825D01*
X70804847Y-46541063D01*
X70804847Y-46826778D01*
X70757228Y-46922016D01*
X70709609Y-46969635D01*
%TO.C,U1*%
X46391244Y-31208234D02*
X47200768Y-31208234D01*
X47296006Y-31160615D01*
X47343625Y-31112996D01*
X47391244Y-31017758D01*
X47391244Y-30827282D01*
X47343625Y-30732044D01*
X47296006Y-30684425D01*
X47200768Y-30636806D01*
X46391244Y-30636806D01*
X47391244Y-29636806D02*
X47391244Y-30208234D01*
X47391244Y-29922520D02*
X46391244Y-29922520D01*
X46534102Y-30017758D01*
X46629340Y-30112996D01*
X46676959Y-30208234D01*
%TO.C,U2*%
X25900392Y-41418056D02*
X25900392Y-42227580D01*
X25948011Y-42322818D01*
X25995630Y-42370437D01*
X26090868Y-42418056D01*
X26281344Y-42418056D01*
X26376582Y-42370437D01*
X26424201Y-42322818D01*
X26471820Y-42227580D01*
X26471820Y-41418056D01*
X26900392Y-41513295D02*
X26948011Y-41465676D01*
X27043249Y-41418056D01*
X27281344Y-41418056D01*
X27376582Y-41465676D01*
X27424201Y-41513295D01*
X27471820Y-41608533D01*
X27471820Y-41703771D01*
X27424201Y-41846628D01*
X26852773Y-42418056D01*
X27471820Y-42418056D01*
%TO.C,Q1*%
X33093902Y-86455238D02*
X33046283Y-86550476D01*
X32951044Y-86645714D01*
X32808187Y-86788571D01*
X32760568Y-86883809D01*
X32760568Y-86979047D01*
X32998663Y-86931428D02*
X32951044Y-87026666D01*
X32855806Y-87121904D01*
X32665330Y-87169523D01*
X32331997Y-87169523D01*
X32141521Y-87121904D01*
X32046283Y-87026666D01*
X31998663Y-86931428D01*
X31998663Y-86740952D01*
X32046283Y-86645714D01*
X32141521Y-86550476D01*
X32331997Y-86502857D01*
X32665330Y-86502857D01*
X32855806Y-86550476D01*
X32951044Y-86645714D01*
X32998663Y-86740952D01*
X32998663Y-86931428D01*
X32998663Y-85550476D02*
X32998663Y-86121904D01*
X32998663Y-85836190D02*
X31998663Y-85836190D01*
X32141521Y-85931428D01*
X32236759Y-86026666D01*
X32284378Y-86121904D01*
%TO.C,Q3*%
X66189093Y-86455238D02*
X66141474Y-86550476D01*
X66046235Y-86645714D01*
X65903378Y-86788571D01*
X65855759Y-86883809D01*
X65855759Y-86979047D01*
X66093854Y-86931428D02*
X66046235Y-87026666D01*
X65950997Y-87121904D01*
X65760521Y-87169523D01*
X65427188Y-87169523D01*
X65236712Y-87121904D01*
X65141474Y-87026666D01*
X65093854Y-86931428D01*
X65093854Y-86740952D01*
X65141474Y-86645714D01*
X65236712Y-86550476D01*
X65427188Y-86502857D01*
X65760521Y-86502857D01*
X65950997Y-86550476D01*
X66046235Y-86645714D01*
X66093854Y-86740952D01*
X66093854Y-86931428D01*
X65093854Y-86169523D02*
X65093854Y-85550476D01*
X65474807Y-85883809D01*
X65474807Y-85740952D01*
X65522426Y-85645714D01*
X65570045Y-85598095D01*
X65665283Y-85550476D01*
X65903378Y-85550476D01*
X65998616Y-85598095D01*
X66046235Y-85645714D01*
X66093854Y-85740952D01*
X66093854Y-86026666D01*
X66046235Y-86121904D01*
X65998616Y-86169523D01*
%TO.C,Q2*%
X40731143Y-86455238D02*
X40683524Y-86550476D01*
X40588285Y-86645714D01*
X40445428Y-86788571D01*
X40397809Y-86883809D01*
X40397809Y-86979047D01*
X40635904Y-86931428D02*
X40588285Y-87026666D01*
X40493047Y-87121904D01*
X40302571Y-87169523D01*
X39969238Y-87169523D01*
X39778762Y-87121904D01*
X39683524Y-87026666D01*
X39635904Y-86931428D01*
X39635904Y-86740952D01*
X39683524Y-86645714D01*
X39778762Y-86550476D01*
X39969238Y-86502857D01*
X40302571Y-86502857D01*
X40493047Y-86550476D01*
X40588285Y-86645714D01*
X40635904Y-86740952D01*
X40635904Y-86931428D01*
X39731143Y-86121904D02*
X39683524Y-86074285D01*
X39635904Y-85979047D01*
X39635904Y-85740952D01*
X39683524Y-85645714D01*
X39731143Y-85598095D01*
X39826381Y-85550476D01*
X39921619Y-85550476D01*
X40064476Y-85598095D01*
X40635904Y-86169523D01*
X40635904Y-85550476D01*
%TO.C,D5*%
X46251904Y-23312380D02*
X46251904Y-22312380D01*
X46490000Y-22312380D01*
X46632857Y-22360000D01*
X46728095Y-22455238D01*
X46775714Y-22550476D01*
X46823333Y-22740952D01*
X46823333Y-22883809D01*
X46775714Y-23074285D01*
X46728095Y-23169523D01*
X46632857Y-23264761D01*
X46490000Y-23312380D01*
X46251904Y-23312380D01*
X47728095Y-22312380D02*
X47251904Y-22312380D01*
X47204285Y-22788571D01*
X47251904Y-22740952D01*
X47347142Y-22693333D01*
X47585238Y-22693333D01*
X47680476Y-22740952D01*
X47728095Y-22788571D01*
X47775714Y-22883809D01*
X47775714Y-23121904D01*
X47728095Y-23217142D01*
X47680476Y-23264761D01*
X47585238Y-23312380D01*
X47347142Y-23312380D01*
X47251904Y-23264761D01*
X47204285Y-23217142D01*
%TO.C,R11*%
X70477142Y-80440219D02*
X70143809Y-79964029D01*
X69905714Y-80440219D02*
X69905714Y-79440219D01*
X70286666Y-79440219D01*
X70381904Y-79487839D01*
X70429523Y-79535458D01*
X70477142Y-79630696D01*
X70477142Y-79773553D01*
X70429523Y-79868791D01*
X70381904Y-79916410D01*
X70286666Y-79964029D01*
X69905714Y-79964029D01*
X71429523Y-80440219D02*
X70858095Y-80440219D01*
X71143809Y-80440219D02*
X71143809Y-79440219D01*
X71048571Y-79583077D01*
X70953333Y-79678315D01*
X70858095Y-79725934D01*
X72381904Y-80440219D02*
X71810476Y-80440219D01*
X72096190Y-80440219D02*
X72096190Y-79440219D01*
X72000952Y-79583077D01*
X71905714Y-79678315D01*
X71810476Y-79725934D01*
%TO.C,D6*%
X36313935Y-46898166D02*
X36313935Y-46148166D01*
X36492507Y-46148166D01*
X36599649Y-46183881D01*
X36671078Y-46255309D01*
X36706792Y-46326738D01*
X36742507Y-46469595D01*
X36742507Y-46576738D01*
X36706792Y-46719595D01*
X36671078Y-46791023D01*
X36599649Y-46862452D01*
X36492507Y-46898166D01*
X36313935Y-46898166D01*
X37385364Y-46148166D02*
X37242507Y-46148166D01*
X37171078Y-46183881D01*
X37135364Y-46219595D01*
X37063935Y-46326738D01*
X37028221Y-46469595D01*
X37028221Y-46755309D01*
X37063935Y-46826738D01*
X37099649Y-46862452D01*
X37171078Y-46898166D01*
X37313935Y-46898166D01*
X37385364Y-46862452D01*
X37421078Y-46826738D01*
X37456792Y-46755309D01*
X37456792Y-46576738D01*
X37421078Y-46505309D01*
X37385364Y-46469595D01*
X37313935Y-46433881D01*
X37171078Y-46433881D01*
X37099649Y-46469595D01*
X37063935Y-46505309D01*
X37028221Y-46576738D01*
%TO.C,D7*%
X41461273Y-46898166D02*
X41461273Y-46148166D01*
X41639845Y-46148166D01*
X41746987Y-46183881D01*
X41818416Y-46255309D01*
X41854130Y-46326738D01*
X41889845Y-46469595D01*
X41889845Y-46576738D01*
X41854130Y-46719595D01*
X41818416Y-46791023D01*
X41746987Y-46862452D01*
X41639845Y-46898166D01*
X41461273Y-46898166D01*
X42139845Y-46148166D02*
X42639845Y-46148166D01*
X42318416Y-46898166D01*
%TO.C,D8*%
X57813173Y-46768182D02*
X57813173Y-46018182D01*
X57991745Y-46018182D01*
X58098887Y-46053897D01*
X58170316Y-46125325D01*
X58206030Y-46196754D01*
X58241745Y-46339611D01*
X58241745Y-46446754D01*
X58206030Y-46589611D01*
X58170316Y-46661039D01*
X58098887Y-46732468D01*
X57991745Y-46768182D01*
X57813173Y-46768182D01*
X58670316Y-46339611D02*
X58598887Y-46303897D01*
X58563173Y-46268182D01*
X58527459Y-46196754D01*
X58527459Y-46161039D01*
X58563173Y-46089611D01*
X58598887Y-46053897D01*
X58670316Y-46018182D01*
X58813173Y-46018182D01*
X58884602Y-46053897D01*
X58920316Y-46089611D01*
X58956030Y-46161039D01*
X58956030Y-46196754D01*
X58920316Y-46268182D01*
X58884602Y-46303897D01*
X58813173Y-46339611D01*
X58670316Y-46339611D01*
X58598887Y-46375325D01*
X58563173Y-46411039D01*
X58527459Y-46482468D01*
X58527459Y-46625325D01*
X58563173Y-46696754D01*
X58598887Y-46732468D01*
X58670316Y-46768182D01*
X58813173Y-46768182D01*
X58884602Y-46732468D01*
X58920316Y-46696754D01*
X58956030Y-46625325D01*
X58956030Y-46482468D01*
X58920316Y-46411039D01*
X58884602Y-46375325D01*
X58813173Y-46339611D01*
%TO.C,D9*%
X62908518Y-46768182D02*
X62908518Y-46018182D01*
X63087090Y-46018182D01*
X63194232Y-46053897D01*
X63265661Y-46125325D01*
X63301375Y-46196754D01*
X63337090Y-46339611D01*
X63337090Y-46446754D01*
X63301375Y-46589611D01*
X63265661Y-46661039D01*
X63194232Y-46732468D01*
X63087090Y-46768182D01*
X62908518Y-46768182D01*
X63694232Y-46768182D02*
X63837090Y-46768182D01*
X63908518Y-46732468D01*
X63944232Y-46696754D01*
X64015661Y-46589611D01*
X64051375Y-46446754D01*
X64051375Y-46161039D01*
X64015661Y-46089611D01*
X63979947Y-46053897D01*
X63908518Y-46018182D01*
X63765661Y-46018182D01*
X63694232Y-46053897D01*
X63658518Y-46089611D01*
X63622804Y-46161039D01*
X63622804Y-46339611D01*
X63658518Y-46411039D01*
X63694232Y-46446754D01*
X63765661Y-46482468D01*
X63908518Y-46482468D01*
X63979947Y-46446754D01*
X64015661Y-46411039D01*
X64051375Y-46339611D01*
%TO.C,D12*%
X22915714Y-76652380D02*
X22915714Y-75652380D01*
X23153809Y-75652380D01*
X23296666Y-75700000D01*
X23391904Y-75795238D01*
X23439523Y-75890476D01*
X23487142Y-76080952D01*
X23487142Y-76223809D01*
X23439523Y-76414285D01*
X23391904Y-76509523D01*
X23296666Y-76604761D01*
X23153809Y-76652380D01*
X22915714Y-76652380D01*
X24439523Y-76652380D02*
X23868095Y-76652380D01*
X24153809Y-76652380D02*
X24153809Y-75652380D01*
X24058571Y-75795238D01*
X23963333Y-75890476D01*
X23868095Y-75938095D01*
X24820476Y-75747619D02*
X24868095Y-75700000D01*
X24963333Y-75652380D01*
X25201428Y-75652380D01*
X25296666Y-75700000D01*
X25344285Y-75747619D01*
X25391904Y-75842857D01*
X25391904Y-75938095D01*
X25344285Y-76080952D01*
X24772857Y-76652380D01*
X25391904Y-76652380D01*
%TO.C,D13*%
X22891658Y-80465223D02*
X22891658Y-79465223D01*
X23129753Y-79465223D01*
X23272610Y-79512843D01*
X23367848Y-79608081D01*
X23415467Y-79703319D01*
X23463086Y-79893795D01*
X23463086Y-80036652D01*
X23415467Y-80227128D01*
X23367848Y-80322366D01*
X23272610Y-80417604D01*
X23129753Y-80465223D01*
X22891658Y-80465223D01*
X24415467Y-80465223D02*
X23844039Y-80465223D01*
X24129753Y-80465223D02*
X24129753Y-79465223D01*
X24034515Y-79608081D01*
X23939277Y-79703319D01*
X23844039Y-79750938D01*
X24748801Y-79465223D02*
X25367848Y-79465223D01*
X25034515Y-79846176D01*
X25177372Y-79846176D01*
X25272610Y-79893795D01*
X25320229Y-79941414D01*
X25367848Y-80036652D01*
X25367848Y-80274747D01*
X25320229Y-80369985D01*
X25272610Y-80417604D01*
X25177372Y-80465223D01*
X24891658Y-80465223D01*
X24796420Y-80417604D01*
X24748801Y-80369985D01*
D11*
%TO.C,A1*%
X67310000Y-57150000D02*
X67310000Y-54480000D01*
X67310000Y-69850000D02*
X67310000Y-72520000D01*
X29210000Y-57150000D02*
X29210000Y-54480000D01*
X69980000Y-72520000D02*
X69980000Y-54480000D01*
X31750000Y-69850000D02*
X31750000Y-72520000D01*
X31750000Y-69850000D02*
X29210000Y-69850000D01*
X26540000Y-72520000D02*
X29210000Y-72520000D01*
X69980000Y-54480000D02*
X26540000Y-54480000D01*
X26540000Y-54480000D02*
X26540000Y-72520000D01*
X29210000Y-69850000D02*
X29210000Y-72520000D01*
X31750000Y-72520000D02*
X69980000Y-72520000D01*
X29210000Y-57150000D02*
X67310000Y-57150000D01*
X31750000Y-69850000D02*
X67310000Y-69850000D01*
%TO.C,C1*%
X18641000Y-34990000D02*
X18641000Y-37060000D01*
X18440000Y-39140000D02*
X18440000Y-41259000D01*
X20321000Y-36105000D02*
X20321000Y-40095000D01*
X19081000Y-35148000D02*
X19081000Y-37060000D01*
X20721000Y-36750000D02*
X20721000Y-39450000D01*
X17960000Y-34876000D02*
X17960000Y-41324000D01*
X20881000Y-37160000D02*
X20881000Y-39040000D01*
X20521000Y-36386000D02*
X20521000Y-39814000D01*
X20281000Y-36056000D02*
X20281000Y-40144000D01*
X18521000Y-34959000D02*
X18521000Y-37060000D01*
X20081000Y-35835000D02*
X20081000Y-40365000D01*
X18561000Y-34969000D02*
X18561000Y-37060000D01*
X18681000Y-39140000D02*
X18681000Y-41198000D01*
X19721000Y-35522000D02*
X19721000Y-37060000D01*
X18320000Y-39140000D02*
X18320000Y-41282000D01*
X18160000Y-39140000D02*
X18160000Y-41306000D01*
X14259759Y-36261000D02*
X14889759Y-36261000D01*
X19521000Y-35384000D02*
X19521000Y-37060000D01*
X17880000Y-34872000D02*
X17880000Y-41328000D01*
X19841000Y-35616000D02*
X19841000Y-37060000D01*
X19001000Y-35114000D02*
X19001000Y-37060000D01*
X19161000Y-35184000D02*
X19161000Y-37060000D01*
X18761000Y-39140000D02*
X18761000Y-41174000D01*
X18681000Y-35002000D02*
X18681000Y-37060000D01*
X20641000Y-36591000D02*
X20641000Y-39609000D01*
X18080000Y-34885000D02*
X18080000Y-37060000D01*
X18801000Y-39140000D02*
X18801000Y-41161000D01*
X19201000Y-39140000D02*
X19201000Y-40996000D01*
X20441000Y-36266000D02*
X20441000Y-39934000D01*
X19121000Y-39140000D02*
X19121000Y-41034000D01*
X19441000Y-39140000D02*
X19441000Y-40866000D01*
X18280000Y-34911000D02*
X18280000Y-37060000D01*
X20761000Y-36838000D02*
X20761000Y-39362000D01*
X20961000Y-37467000D02*
X20961000Y-38733000D01*
X19641000Y-35464000D02*
X19641000Y-37060000D01*
X19961000Y-39140000D02*
X19961000Y-40480000D01*
X18961000Y-35098000D02*
X18961000Y-37060000D01*
X20841000Y-37041000D02*
X20841000Y-39159000D01*
X18320000Y-34918000D02*
X18320000Y-37060000D01*
X19321000Y-35266000D02*
X19321000Y-37060000D01*
X18200000Y-39140000D02*
X18200000Y-41301000D01*
X20681000Y-36668000D02*
X20681000Y-39532000D01*
X18400000Y-39140000D02*
X18400000Y-41267000D01*
X18961000Y-39140000D02*
X18961000Y-41102000D01*
X18000000Y-34878000D02*
X18000000Y-37060000D01*
X19401000Y-39140000D02*
X19401000Y-40890000D01*
X20041000Y-39140000D02*
X20041000Y-40405000D01*
X18561000Y-39140000D02*
X18561000Y-41231000D01*
X20561000Y-36450000D02*
X20561000Y-39750000D01*
X19801000Y-35584000D02*
X19801000Y-37060000D01*
X18440000Y-34941000D02*
X18440000Y-37060000D01*
X19561000Y-39140000D02*
X19561000Y-40790000D01*
X19841000Y-39140000D02*
X19841000Y-40584000D01*
X18841000Y-39140000D02*
X18841000Y-41147000D01*
X17840000Y-34870000D02*
X17840000Y-41330000D01*
X19521000Y-39140000D02*
X19521000Y-40816000D01*
X19201000Y-35204000D02*
X19201000Y-37060000D01*
X18721000Y-35014000D02*
X18721000Y-37060000D01*
X19481000Y-35358000D02*
X19481000Y-37060000D01*
X18040000Y-34882000D02*
X18040000Y-37060000D01*
X18721000Y-39140000D02*
X18721000Y-41186000D01*
X20161000Y-35918000D02*
X20161000Y-40282000D01*
X19881000Y-39140000D02*
X19881000Y-40550000D01*
X19081000Y-39140000D02*
X19081000Y-41052000D01*
X20201000Y-35963000D02*
X20201000Y-40237000D01*
X19921000Y-35684000D02*
X19921000Y-37060000D01*
X19641000Y-39140000D02*
X19641000Y-40736000D01*
X19041000Y-39140000D02*
X19041000Y-41070000D01*
X20401000Y-36210000D02*
X20401000Y-39990000D01*
X18481000Y-34950000D02*
X18481000Y-37060000D01*
X21001000Y-37698000D02*
X21001000Y-38502000D01*
X17800000Y-34870000D02*
X17800000Y-41330000D01*
X18040000Y-39140000D02*
X18040000Y-41318000D01*
X19401000Y-35310000D02*
X19401000Y-37060000D01*
X20001000Y-39140000D02*
X20001000Y-40443000D01*
X18761000Y-35026000D02*
X18761000Y-37060000D01*
X20241000Y-36008000D02*
X20241000Y-40192000D01*
X18240000Y-34905000D02*
X18240000Y-37060000D01*
X20481000Y-36324000D02*
X20481000Y-39876000D01*
X18000000Y-39140000D02*
X18000000Y-41322000D01*
X18400000Y-34933000D02*
X18400000Y-37060000D01*
X19041000Y-35130000D02*
X19041000Y-37060000D01*
X19281000Y-39140000D02*
X19281000Y-40956000D01*
X19481000Y-39140000D02*
X19481000Y-40842000D01*
X18841000Y-35053000D02*
X18841000Y-37060000D01*
X19361000Y-39140000D02*
X19361000Y-40912000D01*
X18360000Y-34925000D02*
X18360000Y-37060000D01*
X14574759Y-35946000D02*
X14574759Y-36576000D01*
X19961000Y-35720000D02*
X19961000Y-37060000D01*
X18240000Y-39140000D02*
X18240000Y-41295000D01*
X19241000Y-35224000D02*
X19241000Y-37060000D01*
X19281000Y-35244000D02*
X19281000Y-37060000D01*
X18921000Y-35082000D02*
X18921000Y-37060000D01*
X18280000Y-39140000D02*
X18280000Y-41289000D01*
X18120000Y-34889000D02*
X18120000Y-37060000D01*
X19681000Y-39140000D02*
X19681000Y-40707000D01*
X18921000Y-39140000D02*
X18921000Y-41118000D01*
X19121000Y-35166000D02*
X19121000Y-37060000D01*
X18481000Y-39140000D02*
X18481000Y-41250000D01*
X19801000Y-39140000D02*
X19801000Y-40616000D01*
X20041000Y-35795000D02*
X20041000Y-37060000D01*
X17920000Y-34873000D02*
X17920000Y-41327000D01*
X19241000Y-39140000D02*
X19241000Y-40976000D01*
X18360000Y-39140000D02*
X18360000Y-41275000D01*
X18200000Y-34899000D02*
X18200000Y-37060000D01*
X19001000Y-39140000D02*
X19001000Y-41086000D01*
X19881000Y-35650000D02*
X19881000Y-37060000D01*
X19761000Y-39140000D02*
X19761000Y-40648000D01*
X20801000Y-36935000D02*
X20801000Y-39265000D01*
X18801000Y-35039000D02*
X18801000Y-37060000D01*
X18120000Y-39140000D02*
X18120000Y-41311000D01*
X18641000Y-39140000D02*
X18641000Y-41210000D01*
X19561000Y-35410000D02*
X19561000Y-37060000D01*
X19761000Y-35552000D02*
X19761000Y-37060000D01*
X19361000Y-35288000D02*
X19361000Y-37060000D01*
X19921000Y-39140000D02*
X19921000Y-40516000D01*
X18080000Y-39140000D02*
X18080000Y-41315000D01*
X18521000Y-39140000D02*
X18521000Y-41241000D01*
X19161000Y-39140000D02*
X19161000Y-41016000D01*
X19441000Y-35334000D02*
X19441000Y-37060000D01*
X18601000Y-39140000D02*
X18601000Y-41221000D01*
X19601000Y-39140000D02*
X19601000Y-40764000D01*
X18160000Y-34894000D02*
X18160000Y-37060000D01*
X20361000Y-36156000D02*
X20361000Y-40044000D01*
X19721000Y-39140000D02*
X19721000Y-40678000D01*
X20121000Y-35876000D02*
X20121000Y-40324000D01*
X19681000Y-35493000D02*
X19681000Y-37060000D01*
X19601000Y-35436000D02*
X19601000Y-37060000D01*
X20001000Y-35757000D02*
X20001000Y-37060000D01*
X18601000Y-34979000D02*
X18601000Y-37060000D01*
X17760000Y-34870000D02*
X17760000Y-41330000D01*
X19321000Y-39140000D02*
X19321000Y-40934000D01*
X20601000Y-36519000D02*
X20601000Y-39681000D01*
X18881000Y-39140000D02*
X18881000Y-41133000D01*
X18881000Y-35067000D02*
X18881000Y-37060000D01*
X20921000Y-37298000D02*
X20921000Y-38902000D01*
X21030000Y-38100000D02*
G75*
G03*
X21030000Y-38100000I-3270000J0D01*
G01*
%TO.C,C2*%
X35060000Y-41289000D02*
X35060000Y-39140000D01*
X33779000Y-37060000D02*
X33779000Y-35410000D01*
X38765241Y-40254000D02*
X38765241Y-39624000D01*
X34299000Y-41070000D02*
X34299000Y-39140000D01*
X35340000Y-41322000D02*
X35340000Y-39140000D01*
X33339000Y-40443000D02*
X33339000Y-39140000D01*
X34419000Y-37060000D02*
X34419000Y-35082000D01*
X33539000Y-40616000D02*
X33539000Y-39140000D01*
X33339000Y-37060000D02*
X33339000Y-35757000D01*
X33539000Y-37060000D02*
X33539000Y-35584000D01*
X32779000Y-39750000D02*
X32779000Y-36450000D01*
X34259000Y-37060000D02*
X34259000Y-35148000D01*
X33699000Y-40736000D02*
X33699000Y-39140000D01*
X33899000Y-37060000D02*
X33899000Y-35334000D01*
X33259000Y-40365000D02*
X33259000Y-35835000D01*
X35540000Y-41330000D02*
X35540000Y-34870000D01*
X35220000Y-41311000D02*
X35220000Y-39140000D01*
X34099000Y-40976000D02*
X34099000Y-39140000D01*
X35060000Y-37060000D02*
X35060000Y-34911000D01*
X32419000Y-38902000D02*
X32419000Y-37298000D01*
X34940000Y-37060000D02*
X34940000Y-34933000D01*
X33939000Y-40890000D02*
X33939000Y-39140000D01*
X33659000Y-40707000D02*
X33659000Y-39140000D01*
X32739000Y-39681000D02*
X32739000Y-36519000D01*
X35340000Y-37060000D02*
X35340000Y-34878000D01*
X33139000Y-40237000D02*
X33139000Y-35963000D01*
X34739000Y-37060000D02*
X34739000Y-34979000D01*
X33499000Y-40584000D02*
X33499000Y-39140000D01*
X33659000Y-37060000D02*
X33659000Y-35493000D01*
X34739000Y-41221000D02*
X34739000Y-39140000D01*
X34419000Y-41118000D02*
X34419000Y-39140000D01*
X33979000Y-40912000D02*
X33979000Y-39140000D01*
X32819000Y-39814000D02*
X32819000Y-36386000D01*
X34819000Y-37060000D02*
X34819000Y-34959000D01*
X34259000Y-41052000D02*
X34259000Y-39140000D01*
X32859000Y-39876000D02*
X32859000Y-36324000D01*
X33379000Y-40480000D02*
X33379000Y-39140000D01*
X34659000Y-41198000D02*
X34659000Y-39140000D01*
X33699000Y-37060000D02*
X33699000Y-35464000D01*
X32339000Y-38502000D02*
X32339000Y-37698000D01*
X33859000Y-40842000D02*
X33859000Y-39140000D01*
X32659000Y-39532000D02*
X32659000Y-36668000D01*
X35140000Y-37060000D02*
X35140000Y-34899000D01*
X34499000Y-41147000D02*
X34499000Y-39140000D01*
X35100000Y-37060000D02*
X35100000Y-34905000D01*
X33739000Y-37060000D02*
X33739000Y-35436000D01*
X34579000Y-37060000D02*
X34579000Y-35026000D01*
X34779000Y-37060000D02*
X34779000Y-34969000D01*
X33899000Y-40866000D02*
X33899000Y-39140000D01*
X34219000Y-41034000D02*
X34219000Y-39140000D01*
X34219000Y-37060000D02*
X34219000Y-35166000D01*
X34900000Y-37060000D02*
X34900000Y-34941000D01*
X33939000Y-37060000D02*
X33939000Y-35310000D01*
X35140000Y-41301000D02*
X35140000Y-39140000D01*
X35300000Y-37060000D02*
X35300000Y-34882000D01*
X34980000Y-37060000D02*
X34980000Y-34925000D01*
X34819000Y-41241000D02*
X34819000Y-39140000D01*
X33579000Y-40648000D02*
X33579000Y-39140000D01*
X33219000Y-40324000D02*
X33219000Y-35876000D01*
X35420000Y-41327000D02*
X35420000Y-34873000D01*
X32899000Y-39934000D02*
X32899000Y-36266000D01*
X33019000Y-40095000D02*
X33019000Y-36105000D01*
X33099000Y-40192000D02*
X33099000Y-36008000D01*
X35100000Y-41295000D02*
X35100000Y-39140000D01*
X35180000Y-41306000D02*
X35180000Y-39140000D01*
X32579000Y-39362000D02*
X32579000Y-36838000D01*
X34019000Y-40934000D02*
X34019000Y-39140000D01*
X33979000Y-37060000D02*
X33979000Y-35288000D01*
X34379000Y-37060000D02*
X34379000Y-35098000D01*
X34659000Y-37060000D02*
X34659000Y-35002000D01*
X33179000Y-40282000D02*
X33179000Y-35918000D01*
X34179000Y-37060000D02*
X34179000Y-35184000D01*
X32499000Y-39159000D02*
X32499000Y-37041000D01*
X32459000Y-39040000D02*
X32459000Y-37160000D01*
X33579000Y-37060000D02*
X33579000Y-35552000D01*
X34339000Y-41086000D02*
X34339000Y-39140000D01*
X34139000Y-40996000D02*
X34139000Y-39140000D01*
X34779000Y-41231000D02*
X34779000Y-39140000D01*
X33819000Y-37060000D02*
X33819000Y-35384000D01*
X35300000Y-41318000D02*
X35300000Y-39140000D01*
X33419000Y-37060000D02*
X33419000Y-35684000D01*
X34859000Y-41250000D02*
X34859000Y-39140000D01*
X35460000Y-41328000D02*
X35460000Y-34872000D01*
X34859000Y-37060000D02*
X34859000Y-34950000D01*
X33299000Y-40405000D02*
X33299000Y-39140000D01*
X33059000Y-40144000D02*
X33059000Y-36056000D01*
X32979000Y-40044000D02*
X32979000Y-36156000D01*
X34980000Y-41275000D02*
X34980000Y-39140000D01*
X32699000Y-39609000D02*
X32699000Y-36591000D01*
X32939000Y-39990000D02*
X32939000Y-36210000D01*
X35580000Y-41330000D02*
X35580000Y-34870000D01*
X34379000Y-41102000D02*
X34379000Y-39140000D01*
X34940000Y-41267000D02*
X34940000Y-39140000D01*
X34099000Y-37060000D02*
X34099000Y-35224000D01*
X33859000Y-37060000D02*
X33859000Y-35358000D01*
X33419000Y-40516000D02*
X33419000Y-39140000D01*
X33619000Y-40678000D02*
X33619000Y-39140000D01*
X33499000Y-37060000D02*
X33499000Y-35616000D01*
X34699000Y-37060000D02*
X34699000Y-34990000D01*
X35220000Y-37060000D02*
X35220000Y-34889000D01*
X34299000Y-37060000D02*
X34299000Y-35130000D01*
X34459000Y-37060000D02*
X34459000Y-35067000D01*
X34059000Y-40956000D02*
X34059000Y-39140000D01*
X33459000Y-37060000D02*
X33459000Y-35650000D01*
X34619000Y-37060000D02*
X34619000Y-35014000D01*
X35180000Y-37060000D02*
X35180000Y-34894000D01*
X34579000Y-41174000D02*
X34579000Y-39140000D01*
X34019000Y-37060000D02*
X34019000Y-35266000D01*
X32379000Y-38733000D02*
X32379000Y-37467000D01*
X34900000Y-41259000D02*
X34900000Y-39140000D01*
X34619000Y-41186000D02*
X34619000Y-39140000D01*
X33739000Y-40764000D02*
X33739000Y-39140000D01*
X35500000Y-41330000D02*
X35500000Y-34870000D01*
X34539000Y-37060000D02*
X34539000Y-35039000D01*
X33819000Y-40816000D02*
X33819000Y-39140000D01*
X33379000Y-37060000D02*
X33379000Y-35720000D01*
X35260000Y-41315000D02*
X35260000Y-39140000D01*
X34179000Y-41016000D02*
X34179000Y-39140000D01*
X34339000Y-37060000D02*
X34339000Y-35114000D01*
X35020000Y-41282000D02*
X35020000Y-39140000D01*
X34699000Y-41210000D02*
X34699000Y-39140000D01*
X34539000Y-41161000D02*
X34539000Y-39140000D01*
X35380000Y-41324000D02*
X35380000Y-34876000D01*
X34059000Y-37060000D02*
X34059000Y-35244000D01*
X32539000Y-39265000D02*
X32539000Y-36935000D01*
X33779000Y-40790000D02*
X33779000Y-39140000D01*
X34499000Y-37060000D02*
X34499000Y-35053000D01*
X32619000Y-39450000D02*
X32619000Y-36750000D01*
X34139000Y-37060000D02*
X34139000Y-35204000D01*
X39080241Y-39939000D02*
X38450241Y-39939000D01*
X33299000Y-37060000D02*
X33299000Y-35795000D01*
X33619000Y-37060000D02*
X33619000Y-35522000D01*
X33459000Y-40550000D02*
X33459000Y-39140000D01*
X35260000Y-37060000D02*
X35260000Y-34885000D01*
X35020000Y-37060000D02*
X35020000Y-34918000D01*
X34459000Y-41133000D02*
X34459000Y-39140000D01*
X38850000Y-38100000D02*
G75*
G03*
X38850000Y-38100000I-3270000J0D01*
G01*
%TO.C,D1*%
X34090000Y-28370000D02*
X37030000Y-28370000D01*
X35560000Y-22930000D02*
X35560000Y-23950000D01*
X37030000Y-29390000D02*
X37030000Y-23950000D01*
X35560000Y-30410000D02*
X35560000Y-29390000D01*
X34090000Y-28490000D02*
X37030000Y-28490000D01*
X37030000Y-23950000D02*
X34090000Y-23950000D01*
X34090000Y-28610000D02*
X37030000Y-28610000D01*
X34090000Y-23950000D02*
X34090000Y-29390000D01*
X34090000Y-29390000D02*
X37030000Y-29390000D01*
%TO.C,D2*%
X27740000Y-30300000D02*
X27740000Y-35740000D01*
X27740000Y-35740000D02*
X30680000Y-35740000D01*
X29210000Y-29280000D02*
X29210000Y-30300000D01*
X29210000Y-36760000D02*
X29210000Y-35740000D01*
X30680000Y-31200000D02*
X27740000Y-31200000D01*
X30680000Y-31320000D02*
X27740000Y-31320000D01*
X30680000Y-31080000D02*
X27740000Y-31080000D01*
X30680000Y-35740000D02*
X30680000Y-30300000D01*
X30680000Y-30300000D02*
X27740000Y-30300000D01*
%TO.C,D3*%
X16310000Y-28370000D02*
X19250000Y-28370000D01*
X16310000Y-23950000D02*
X16310000Y-29390000D01*
X19250000Y-23950000D02*
X16310000Y-23950000D01*
X17780000Y-22930000D02*
X17780000Y-23950000D01*
X16310000Y-28610000D02*
X19250000Y-28610000D01*
X16310000Y-28490000D02*
X19250000Y-28490000D01*
X19250000Y-29390000D02*
X19250000Y-23950000D01*
X16310000Y-29390000D02*
X19250000Y-29390000D01*
X17780000Y-30410000D02*
X17780000Y-29390000D01*
%TO.C,D4*%
X25600000Y-31320000D02*
X22660000Y-31320000D01*
X25600000Y-31080000D02*
X22660000Y-31080000D01*
X25600000Y-35740000D02*
X25600000Y-30300000D01*
X24130000Y-29280000D02*
X24130000Y-30300000D01*
X25600000Y-30300000D02*
X22660000Y-30300000D01*
X24130000Y-36760000D02*
X24130000Y-35740000D01*
X22660000Y-30300000D02*
X22660000Y-35740000D01*
X22660000Y-35740000D02*
X25600000Y-35740000D01*
X25600000Y-31200000D02*
X22660000Y-31200000D01*
%TO.C,D10*%
X55210000Y-78540000D02*
X55210000Y-81480000D01*
X54430000Y-78540000D02*
X54430000Y-81480000D01*
X59870000Y-81480000D02*
X59870000Y-78540000D01*
X55450000Y-78540000D02*
X55450000Y-81480000D01*
X59870000Y-78540000D02*
X54430000Y-78540000D01*
X55330000Y-78540000D02*
X55330000Y-81480000D01*
X53410000Y-80010000D02*
X54430000Y-80010000D01*
X54430000Y-81480000D02*
X59870000Y-81480000D01*
X60890000Y-80010000D02*
X59870000Y-80010000D01*
%TO.C,D11*%
X54430000Y-77670000D02*
X59870000Y-77670000D01*
X55210000Y-74730000D02*
X55210000Y-77670000D01*
X54430000Y-74730000D02*
X54430000Y-77670000D01*
X53410000Y-76200000D02*
X54430000Y-76200000D01*
X59870000Y-74730000D02*
X54430000Y-74730000D01*
X55330000Y-74730000D02*
X55330000Y-77670000D01*
X55450000Y-74730000D02*
X55450000Y-77670000D01*
X59870000Y-77670000D02*
X59870000Y-74730000D01*
X60890000Y-76200000D02*
X59870000Y-76200000D01*
%TO.C,J1*%
X53340000Y-19050000D02*
X63500000Y-19050000D01*
X63500000Y-17780000D02*
X53340000Y-17780000D01*
X53340000Y-25400000D02*
X63500000Y-25400000D01*
X53340000Y-17780000D02*
X53340000Y-25400000D01*
X63500000Y-25400000D02*
X63500000Y-17780000D01*
%TO.C,J2*%
X21590000Y-19050000D02*
X31750000Y-19050000D01*
X21590000Y-25400000D02*
X31750000Y-25400000D01*
X31750000Y-17780000D02*
X21590000Y-17780000D01*
X21590000Y-17780000D02*
X21590000Y-25400000D01*
X31750000Y-25400000D02*
X31750000Y-17780000D01*
%TO.C,J3*%
X80010000Y-17780000D02*
X64770000Y-17780000D01*
X64770000Y-17780000D02*
X64770000Y-25400000D01*
X80010000Y-19050000D02*
X64770000Y-19050000D01*
X80010000Y-25400000D02*
X64770000Y-25400000D01*
X80010000Y-17780000D02*
X80010000Y-25400000D01*
%TO.C,J8*%
X15240000Y-107950000D02*
X30480000Y-107950000D01*
X15240000Y-115570000D02*
X15240000Y-107950000D01*
X30480000Y-115570000D02*
X30480000Y-107950000D01*
X15240000Y-114300000D02*
X30480000Y-114300000D01*
X15240000Y-115570000D02*
X30480000Y-115570000D01*
%TO.C,J9*%
X46990000Y-115570000D02*
X46990000Y-107950000D01*
X31750000Y-115570000D02*
X46990000Y-115570000D01*
X31750000Y-114300000D02*
X46990000Y-114300000D01*
X31750000Y-115570000D02*
X31750000Y-107950000D01*
X31750000Y-107950000D02*
X46990000Y-107950000D01*
%TO.C,J10*%
X63500000Y-115570000D02*
X63500000Y-107950000D01*
X48260000Y-115570000D02*
X48260000Y-107950000D01*
X48260000Y-115570000D02*
X63500000Y-115570000D01*
X48260000Y-114300000D02*
X63500000Y-114300000D01*
X48260000Y-107950000D02*
X63500000Y-107950000D01*
%TO.C,J11*%
X64770000Y-115570000D02*
X80010000Y-115570000D01*
X64770000Y-115570000D02*
X64770000Y-107950000D01*
X80010000Y-115570000D02*
X80010000Y-107950000D01*
X64770000Y-107950000D02*
X80010000Y-107950000D01*
X64770000Y-114300000D02*
X80010000Y-114300000D01*
%TO.C,K1*%
X29270000Y-104260000D02*
X29270000Y-83700000D01*
X23130000Y-83760000D02*
X21480000Y-83760000D01*
X26780000Y-83760000D02*
X25130000Y-83760000D01*
X18990000Y-83700000D02*
X18990000Y-104260000D01*
X18990000Y-104260000D02*
X29270000Y-104260000D01*
X26780000Y-104200000D02*
X26780000Y-83760000D01*
X29270000Y-83700000D02*
X18990000Y-83700000D01*
X21480000Y-83760000D02*
X21480000Y-104200000D01*
X21480000Y-104200000D02*
X26780000Y-104200000D01*
X23130000Y-83760000D02*
G75*
G03*
X25130000Y-83760000I1000000J0D01*
G01*
%TO.C,K2*%
X52010000Y-83700000D02*
X52010000Y-104260000D01*
X52010000Y-104260000D02*
X62290000Y-104260000D01*
X54500000Y-83760000D02*
X54500000Y-104200000D01*
X62290000Y-104260000D02*
X62290000Y-83700000D01*
X62290000Y-83700000D02*
X52010000Y-83700000D01*
X59800000Y-104200000D02*
X59800000Y-83760000D01*
X54500000Y-104200000D02*
X59800000Y-104200000D01*
X59800000Y-83760000D02*
X58150000Y-83760000D01*
X56150000Y-83760000D02*
X54500000Y-83760000D01*
X56150000Y-83760000D02*
G75*
G03*
X58150000Y-83760000I1000000J0D01*
G01*
%TO.C,Q4*%
X76780000Y-88160000D02*
X76780000Y-84560000D01*
X72329999Y-86360000D02*
G75*
G03*
X76768478Y-88198478I2600001J0D01*
G01*
X76768478Y-84521522D02*
G75*
G03*
X72330000Y-86360000I-1838478J-1838478D01*
G01*
%TO.C,R1*%
X65580000Y-30930000D02*
X65580000Y-27490000D01*
X56340000Y-27490000D02*
X56340000Y-30930000D01*
X65580000Y-27490000D02*
X56340000Y-27490000D01*
X56340000Y-30930000D02*
X65580000Y-30930000D01*
X66270000Y-29210000D02*
X65580000Y-29210000D01*
X55650000Y-29210000D02*
X56340000Y-29210000D01*
%TO.C,R2*%
X77700000Y-34290000D02*
X76930000Y-34290000D01*
X76930000Y-35660000D02*
X76930000Y-32920000D01*
X70390000Y-32920000D02*
X70390000Y-35660000D01*
X69620000Y-34290000D02*
X70390000Y-34290000D01*
X70390000Y-35660000D02*
X76930000Y-35660000D01*
X76930000Y-32920000D02*
X70390000Y-32920000D01*
%TO.C,R3*%
X69620000Y-38100000D02*
X70390000Y-38100000D01*
X76930000Y-36730000D02*
X70390000Y-36730000D01*
X70390000Y-39470000D02*
X76930000Y-39470000D01*
X70390000Y-36730000D02*
X70390000Y-39470000D01*
X76930000Y-39470000D02*
X76930000Y-36730000D01*
X77700000Y-38100000D02*
X76930000Y-38100000D01*
%TO.C,R4*%
X78840000Y-50260000D02*
X78840000Y-43720000D01*
X76100000Y-50260000D02*
X78840000Y-50260000D01*
X77470000Y-51030000D02*
X77470000Y-50260000D01*
X77470000Y-42950000D02*
X77470000Y-43720000D01*
X78840000Y-43720000D02*
X76100000Y-43720000D01*
X76100000Y-43720000D02*
X76100000Y-50260000D01*
%TO.C,R5*%
X63730000Y-34290000D02*
X62960000Y-34290000D01*
X62960000Y-35660000D02*
X62960000Y-32920000D01*
X56420000Y-35660000D02*
X62960000Y-35660000D01*
X55650000Y-34290000D02*
X56420000Y-34290000D01*
X56420000Y-32920000D02*
X56420000Y-35660000D01*
X62960000Y-32920000D02*
X56420000Y-32920000D01*
%TO.C,R6*%
X42450000Y-38000000D02*
X42450000Y-40740000D01*
X49760000Y-39370000D02*
X48990000Y-39370000D01*
X48990000Y-38000000D02*
X42450000Y-38000000D01*
X41680000Y-39370000D02*
X42450000Y-39370000D01*
X48990000Y-40740000D02*
X48990000Y-38000000D01*
X42450000Y-40740000D02*
X48990000Y-40740000D01*
%TO.C,R7*%
X42640000Y-43080000D02*
X36100000Y-43080000D01*
X36100000Y-43080000D02*
X36100000Y-45820000D01*
X42640000Y-45820000D02*
X42640000Y-43080000D01*
X36100000Y-45820000D02*
X42640000Y-45820000D01*
X35330000Y-44450000D02*
X36100000Y-44450000D01*
X43410000Y-44450000D02*
X42640000Y-44450000D01*
%TO.C,R8*%
X56420000Y-36730000D02*
X56420000Y-39470000D01*
X62960000Y-39470000D02*
X62960000Y-36730000D01*
X55650000Y-38100000D02*
X56420000Y-38100000D01*
X63730000Y-38100000D02*
X62960000Y-38100000D01*
X56420000Y-39470000D02*
X62960000Y-39470000D01*
X62960000Y-36730000D02*
X56420000Y-36730000D01*
%TO.C,R9*%
X42140000Y-80010000D02*
X41370000Y-80010000D01*
X41370000Y-78640000D02*
X34830000Y-78640000D01*
X34830000Y-81380000D02*
X41370000Y-81380000D01*
X34060000Y-80010000D02*
X34830000Y-80010000D01*
X41370000Y-81380000D02*
X41370000Y-78640000D01*
X34830000Y-78640000D02*
X34830000Y-81380000D01*
%TO.C,R10*%
X40870000Y-91440000D02*
X40100000Y-91440000D01*
X33560000Y-90070000D02*
X33560000Y-92810000D01*
X32790000Y-91440000D02*
X33560000Y-91440000D01*
X40100000Y-90070000D02*
X33560000Y-90070000D01*
X33560000Y-92810000D02*
X40100000Y-92810000D01*
X40100000Y-92810000D02*
X40100000Y-90070000D01*
%TO.C,R12*%
X67850000Y-90070000D02*
X67850000Y-92810000D01*
X67080000Y-91440000D02*
X67850000Y-91440000D01*
X75160000Y-91440000D02*
X74390000Y-91440000D01*
X74390000Y-90070000D02*
X67850000Y-90070000D01*
X74390000Y-92810000D02*
X74390000Y-90070000D01*
X67850000Y-92810000D02*
X74390000Y-92810000D01*
%TO.C,SW1*%
X16090000Y-49260000D02*
X16090000Y-53760000D01*
X22590000Y-53760000D02*
X22590000Y-49260000D01*
X18590000Y-55010000D02*
X20090000Y-55010000D01*
X20090000Y-48010000D02*
X18590000Y-48010000D01*
%TO.C,SW2*%
X54340000Y-49950000D02*
X54340000Y-45450000D01*
X51840000Y-44200000D02*
X50340000Y-44200000D01*
X47840000Y-45450000D02*
X47840000Y-49950000D01*
X50340000Y-51200000D02*
X51840000Y-51200000D01*
%TO.C,SW3*%
X73390000Y-49950000D02*
X73390000Y-45450000D01*
X70890000Y-44200000D02*
X69390000Y-44200000D01*
X66890000Y-45450000D02*
X66890000Y-49950000D01*
X69390000Y-51200000D02*
X70890000Y-51200000D01*
%TO.C,U1*%
X52130000Y-29480000D02*
X52130000Y-27830000D01*
X41850000Y-33130000D02*
X52130000Y-33130000D01*
X52130000Y-27830000D02*
X41850000Y-27830000D01*
X41850000Y-27830000D02*
X41850000Y-33130000D01*
X52130000Y-33130000D02*
X52130000Y-31480000D01*
X52130000Y-29480000D02*
G75*
G03*
X52130000Y-31480000I0J-1000000D01*
G01*
%TO.C,U2*%
X21550000Y-42690000D02*
X31790000Y-42690000D01*
X21550000Y-45821000D02*
X31790000Y-45821000D01*
X31790000Y-41180000D02*
X31790000Y-45821000D01*
X21550000Y-41180000D02*
X31790000Y-41180000D01*
X21550000Y-41180000D02*
X21550000Y-45821000D01*
X28521000Y-41180000D02*
X28521000Y-42690000D01*
X24820000Y-41180000D02*
X24820000Y-42690000D01*
%TO.C,J5*%
X22920000Y-60960000D02*
X22920000Y-68640000D01*
X20260000Y-60960000D02*
X20260000Y-68640000D01*
X20260000Y-59690000D02*
X20260000Y-58360000D01*
X20260000Y-58360000D02*
X21590000Y-58360000D01*
X20260000Y-68640000D02*
X22920000Y-68640000D01*
X20260000Y-60960000D02*
X22920000Y-60960000D01*
%TO.C,Q1*%
X36128478Y-84521522D02*
G75*
G03*
X31690000Y-86360000I-1838478J-1838478D01*
G01*
X31689999Y-86360000D02*
G75*
G03*
X36128478Y-88198478I2600001J0D01*
G01*
X36140000Y-88160000D02*
X36140000Y-84560000D01*
%TO.C,Q3*%
X69160000Y-88160000D02*
X69160000Y-84560000D01*
X69148478Y-84521522D02*
G75*
G03*
X64710000Y-86360000I-1838478J-1838478D01*
G01*
X64709999Y-86360000D02*
G75*
G03*
X69148478Y-88198478I2600001J0D01*
G01*
%TO.C,Q2*%
X43760000Y-88160000D02*
X43760000Y-84560000D01*
X43748478Y-84521522D02*
G75*
G03*
X39310000Y-86360000I-1838478J-1838478D01*
G01*
X39309999Y-86360000D02*
G75*
G03*
X43748478Y-88198478I2600001J0D01*
G01*
%TO.C,D5*%
X48270000Y-23980000D02*
X48270000Y-21740000D01*
X49110000Y-23980000D02*
X49110000Y-21740000D01*
X44870000Y-21740000D02*
X44870000Y-23980000D01*
X44220000Y-22860000D02*
X44870000Y-22860000D01*
X49110000Y-21740000D02*
X44870000Y-21740000D01*
X49760000Y-22860000D02*
X49110000Y-22860000D01*
X48390000Y-23980000D02*
X48390000Y-21740000D01*
X48510000Y-23980000D02*
X48510000Y-21740000D01*
X44870000Y-23980000D02*
X49110000Y-23980000D01*
%TO.C,J6*%
X36830000Y-77530000D02*
X36830000Y-74870000D01*
X36830000Y-74870000D02*
X41970000Y-74870000D01*
X36830000Y-77530000D02*
X41970000Y-77530000D01*
X41970000Y-77530000D02*
X41970000Y-74870000D01*
X35560000Y-77530000D02*
X34230000Y-77530000D01*
X34230000Y-77530000D02*
X34230000Y-76200000D01*
%TO.C,J7*%
X68580000Y-77530000D02*
X67250000Y-77530000D01*
X74990000Y-77530000D02*
X74990000Y-74870000D01*
X69850000Y-77530000D02*
X74990000Y-77530000D01*
X67250000Y-77530000D02*
X67250000Y-76200000D01*
X69850000Y-77530000D02*
X69850000Y-74870000D01*
X69850000Y-74870000D02*
X74990000Y-74870000D01*
%TO.C,R11*%
X74390000Y-81380000D02*
X74390000Y-78640000D01*
X67850000Y-81380000D02*
X74390000Y-81380000D01*
X74390000Y-78640000D02*
X67850000Y-78640000D01*
X67850000Y-78640000D02*
X67850000Y-81380000D01*
X75160000Y-80010000D02*
X74390000Y-80010000D01*
X67080000Y-80010000D02*
X67850000Y-80010000D01*
%TO.C,J4*%
X71060000Y-27880000D02*
X71060000Y-30540000D01*
X76200000Y-30540000D02*
X71060000Y-30540000D01*
X76200000Y-27880000D02*
X71060000Y-27880000D01*
X76200000Y-27880000D02*
X76200000Y-30540000D01*
X77470000Y-27880000D02*
X78800000Y-27880000D01*
X78800000Y-27880000D02*
X78800000Y-29210000D01*
%TO.C,J12*%
X31690000Y-96460000D02*
X33020000Y-96460000D01*
X31690000Y-104200000D02*
X34350000Y-104200000D01*
X31690000Y-97790000D02*
X31690000Y-96460000D01*
X31690000Y-99060000D02*
X31690000Y-104200000D01*
X31690000Y-99060000D02*
X34350000Y-99060000D01*
X34350000Y-99060000D02*
X34350000Y-104200000D01*
%TO.C,J13*%
X39310000Y-97790000D02*
X39310000Y-96460000D01*
X39310000Y-96460000D02*
X40640000Y-96460000D01*
X41970000Y-99060000D02*
X41970000Y-104200000D01*
X39310000Y-99060000D02*
X41970000Y-99060000D01*
X39310000Y-104200000D02*
X41970000Y-104200000D01*
X39310000Y-99060000D02*
X39310000Y-104200000D01*
%TO.C,J14*%
X65980000Y-99060000D02*
X65980000Y-104200000D01*
X65980000Y-96460000D02*
X67310000Y-96460000D01*
X68640000Y-99060000D02*
X68640000Y-104200000D01*
X65980000Y-97790000D02*
X65980000Y-96460000D01*
X65980000Y-104200000D02*
X68640000Y-104200000D01*
X65980000Y-99060000D02*
X68640000Y-99060000D01*
%TO.C,J15*%
X73600000Y-97790000D02*
X73600000Y-96460000D01*
X73600000Y-99060000D02*
X73600000Y-104200000D01*
X73600000Y-104200000D02*
X76260000Y-104200000D01*
X76260000Y-99060000D02*
X76260000Y-104200000D01*
X73600000Y-96460000D02*
X74930000Y-96460000D01*
X73600000Y-99060000D02*
X76260000Y-99060000D01*
%TO.C,D6*%
X38066000Y-47970000D02*
X37910000Y-47970000D01*
X35750000Y-47970000D02*
X35594000Y-47970000D01*
X37909837Y-50571130D02*
G75*
G03*
X37910000Y-48489039I-1079837J1041130D01*
G01*
X35594484Y-47970000D02*
G75*
G03*
X35751392Y-51202335I1235516J-1560000D01*
G01*
X37908608Y-51202335D02*
G75*
G03*
X38065516Y-47970000I-1078608J1672335D01*
G01*
X35750000Y-48489039D02*
G75*
G03*
X35750163Y-50571130I1080000J-1040961D01*
G01*
%TO.C,D7*%
X40830000Y-47970000D02*
X40674000Y-47970000D01*
X43146000Y-47970000D02*
X42990000Y-47970000D01*
X40674484Y-47970000D02*
G75*
G03*
X40831392Y-51202335I1235516J-1560000D01*
G01*
X40830000Y-48489039D02*
G75*
G03*
X40830163Y-50571130I1080000J-1040961D01*
G01*
X42988608Y-51202335D02*
G75*
G03*
X43145516Y-47970000I-1078608J1672335D01*
G01*
X42989837Y-50571130D02*
G75*
G03*
X42990000Y-48489039I-1079837J1041130D01*
G01*
%TO.C,D8*%
X57340000Y-47970000D02*
X57184000Y-47970000D01*
X59656000Y-47970000D02*
X59500000Y-47970000D01*
X59499837Y-50571130D02*
G75*
G03*
X59500000Y-48489039I-1079837J1041130D01*
G01*
X57340000Y-48489039D02*
G75*
G03*
X57340163Y-50571130I1080000J-1040961D01*
G01*
X57184484Y-47970000D02*
G75*
G03*
X57341392Y-51202335I1235516J-1560000D01*
G01*
X59498608Y-51202335D02*
G75*
G03*
X59655516Y-47970000I-1078608J1672335D01*
G01*
%TO.C,D9*%
X62420000Y-47970000D02*
X62264000Y-47970000D01*
X64736000Y-47970000D02*
X64580000Y-47970000D01*
X62264484Y-47970000D02*
G75*
G03*
X62421392Y-51202335I1235516J-1560000D01*
G01*
X64578608Y-51202335D02*
G75*
G03*
X64735516Y-47970000I-1078608J1672335D01*
G01*
X62420000Y-48489039D02*
G75*
G03*
X62420163Y-50571130I1080000J-1040961D01*
G01*
X64579837Y-50571130D02*
G75*
G03*
X64580000Y-48489039I-1079837J1041130D01*
G01*
%TO.C,D12*%
X22190000Y-74730000D02*
X22190000Y-77670000D01*
X27870000Y-76200000D02*
X26850000Y-76200000D01*
X21410000Y-74730000D02*
X21410000Y-77670000D01*
X22430000Y-74730000D02*
X22430000Y-77670000D01*
X22310000Y-74730000D02*
X22310000Y-77670000D01*
X20390000Y-76200000D02*
X21410000Y-76200000D01*
X26850000Y-77670000D02*
X26850000Y-74730000D01*
X21410000Y-77670000D02*
X26850000Y-77670000D01*
X26850000Y-74730000D02*
X21410000Y-74730000D01*
%TO.C,D13*%
X22430000Y-78540000D02*
X22430000Y-81480000D01*
X22190000Y-78540000D02*
X22190000Y-81480000D01*
X21410000Y-78540000D02*
X21410000Y-81480000D01*
X21410000Y-81480000D02*
X26850000Y-81480000D01*
X22310000Y-78540000D02*
X22310000Y-81480000D01*
X26850000Y-78540000D02*
X21410000Y-78540000D01*
X26850000Y-81480000D02*
X26850000Y-78540000D01*
X27870000Y-80010000D02*
X26850000Y-80010000D01*
X20390000Y-80010000D02*
X21410000Y-80010000D01*
%TO.C,G\u002A\u002A\u002A*%
G36*
X76701258Y-59748953D02*
G01*
X76467914Y-59601962D01*
X76273260Y-59415028D01*
X76121309Y-59195738D01*
X76016074Y-58951681D01*
X75961569Y-58690443D01*
X75961681Y-58563954D01*
X76156868Y-58563954D01*
X76188581Y-58825698D01*
X76276832Y-59066826D01*
X76415593Y-59280089D01*
X76598834Y-59458240D01*
X76820526Y-59594030D01*
X77074641Y-59680212D01*
X77087720Y-59683012D01*
X77191687Y-59704680D01*
X77383627Y-59704680D01*
X77487594Y-59683230D01*
X77734995Y-59601382D01*
X77957403Y-59467659D01*
X78146124Y-59290716D01*
X78292465Y-59079208D01*
X78387733Y-58841791D01*
X78404350Y-58770440D01*
X78423517Y-58670910D01*
X78432587Y-58602747D01*
X78431543Y-58541092D01*
X78420364Y-58461087D01*
X78404043Y-58366766D01*
X78382080Y-58266243D01*
X78358853Y-58199854D01*
X78340063Y-58182091D01*
X78325249Y-58220952D01*
X78314876Y-58304905D01*
X78311335Y-58405893D01*
X78309329Y-58511260D01*
X78304085Y-58585538D01*
X78297168Y-58611939D01*
X78263282Y-58597196D01*
X78195985Y-58560394D01*
X78171090Y-58545910D01*
X78059178Y-58479880D01*
X78008490Y-58577900D01*
X77982718Y-58643460D01*
X77986778Y-58675165D01*
X77990614Y-58675919D01*
X78008619Y-58705317D01*
X78020332Y-58783359D01*
X78023425Y-58867859D01*
X78023425Y-59059798D01*
X77383627Y-59059798D01*
X77383627Y-59704680D01*
X77191687Y-59704680D01*
X77191687Y-59059798D01*
X76551889Y-59059798D01*
X76551889Y-58870525D01*
X76556756Y-58767889D01*
X76569378Y-58694928D01*
X76583238Y-58670587D01*
X76579880Y-58641688D01*
X76549986Y-58572821D01*
X76501476Y-58477930D01*
X76442269Y-58370957D01*
X76380284Y-58265844D01*
X76323442Y-58176534D01*
X76279662Y-58116970D01*
X76259190Y-58100100D01*
X76229131Y-58129544D01*
X76200542Y-58207740D01*
X76176776Y-58319492D01*
X76161185Y-58449602D01*
X76156868Y-58563954D01*
X75961681Y-58563954D01*
X75961809Y-58419614D01*
X76020808Y-58146780D01*
X76040216Y-58092103D01*
X76097883Y-57940151D01*
X75464231Y-57940151D01*
X75464231Y-57840865D01*
X76408987Y-57840865D01*
X76415673Y-57896273D01*
X76457569Y-57997249D01*
X76535681Y-58145953D01*
X76617965Y-58288962D01*
X76846349Y-58675919D01*
X77729437Y-58675919D01*
X77817500Y-58525650D01*
X77866869Y-58428729D01*
X77877899Y-58373452D01*
X77868953Y-58363177D01*
X77817827Y-58335640D01*
X77759948Y-58291727D01*
X77715062Y-58248319D01*
X77702915Y-58222298D01*
X77703526Y-58221753D01*
X77735901Y-58200026D01*
X77808555Y-58152198D01*
X77908131Y-58087048D01*
X77951448Y-58058794D01*
X78056144Y-57986727D01*
X78136263Y-57924270D01*
X78179322Y-57881464D01*
X78183375Y-57872233D01*
X78161652Y-57831652D01*
X78106148Y-57766926D01*
X78063413Y-57724623D01*
X77865806Y-57581280D01*
X77635700Y-57483048D01*
X77388260Y-57432974D01*
X77138653Y-57434105D01*
X76902045Y-57489487D01*
X76898898Y-57490662D01*
X76765710Y-57551146D01*
X76634813Y-57628342D01*
X76521272Y-57711484D01*
X76440148Y-57789804D01*
X76408987Y-57840865D01*
X75464231Y-57840865D01*
X75464231Y-57748211D01*
X76207024Y-57748211D01*
X76379531Y-57590549D01*
X76498908Y-57493317D01*
X76634330Y-57400383D01*
X76735906Y-57342628D01*
X76821708Y-57302998D01*
X76897598Y-57276999D01*
X76980907Y-57261795D01*
X77088965Y-57254550D01*
X77239104Y-57252429D01*
X77287657Y-57252367D01*
X77451715Y-57253613D01*
X77569142Y-57259238D01*
X77657270Y-57272078D01*
X77733430Y-57294969D01*
X77814953Y-57330746D01*
X77839408Y-57342628D01*
X77963065Y-57414468D01*
X78098102Y-57509687D01*
X78195783Y-57590549D01*
X78368290Y-57748211D01*
X79111083Y-57748211D01*
X79111083Y-57940151D01*
X78474549Y-57940151D01*
X78517845Y-58044118D01*
X78593451Y-58298657D01*
X78618033Y-58564956D01*
X78601231Y-58757962D01*
X78521041Y-59045063D01*
X78388749Y-59299147D01*
X78209055Y-59515064D01*
X77986659Y-59687665D01*
X77726261Y-59811799D01*
X77606038Y-59848413D01*
X77383627Y-59905707D01*
X77383627Y-60074566D01*
X77381820Y-60172569D01*
X77370309Y-60222666D01*
X77339962Y-60240927D01*
X77287657Y-60243425D01*
X77231958Y-60240246D01*
X77203486Y-60219993D01*
X77193107Y-60166597D01*
X77191687Y-60074566D01*
X77191687Y-59905707D01*
X76969276Y-59848413D01*
X76701258Y-59748953D01*
G37*
G36*
X75496221Y-55764836D02*
G01*
X75416246Y-55764836D01*
X75366896Y-55758869D01*
X75343514Y-55729541D01*
X75336577Y-55659709D01*
X75336272Y-55620881D01*
X75336272Y-55476927D01*
X74512531Y-55478744D01*
X73688791Y-55480561D01*
X74432556Y-55854307D01*
X74657614Y-55967562D01*
X74831967Y-56056269D01*
X74962086Y-56124585D01*
X75054443Y-56176668D01*
X75115511Y-56216678D01*
X75151761Y-56248772D01*
X75169666Y-56277110D01*
X75175697Y-56305849D01*
X75176322Y-56332201D01*
X75175122Y-56364619D01*
X75167163Y-56393195D01*
X75145905Y-56422157D01*
X75104808Y-56455731D01*
X75037332Y-56498147D01*
X74936936Y-56553630D01*
X74797082Y-56626410D01*
X74611228Y-56720714D01*
X74448551Y-56802656D01*
X73720780Y-57168962D01*
X74528526Y-57170677D01*
X75336272Y-57172393D01*
X75336272Y-57044433D01*
X75340637Y-56961991D01*
X75361226Y-56925348D01*
X75409282Y-56916519D01*
X75416246Y-56916473D01*
X75496221Y-56916473D01*
X75496221Y-57652242D01*
X75416246Y-57652242D01*
X75366896Y-57646275D01*
X75343514Y-57616947D01*
X75336577Y-57547115D01*
X75336272Y-57508287D01*
X75336272Y-57364332D01*
X73480856Y-57364332D01*
X73480856Y-57508287D01*
X73477541Y-57597118D01*
X73461248Y-57639206D01*
X73422452Y-57651692D01*
X73400881Y-57652242D01*
X73364301Y-57650233D01*
X73341024Y-57636345D01*
X73328044Y-57598780D01*
X73322353Y-57525742D01*
X73320945Y-57405437D01*
X73320906Y-57338543D01*
X73320906Y-57024844D01*
X74089884Y-56643289D01*
X74858861Y-56261735D01*
X74089884Y-55877634D01*
X73320906Y-55493533D01*
X73320906Y-55197321D01*
X73321499Y-55058681D01*
X73325462Y-54971882D01*
X73336073Y-54924786D01*
X73356609Y-54905254D01*
X73390347Y-54901147D01*
X73400881Y-54901108D01*
X73450232Y-54907075D01*
X73473614Y-54936403D01*
X73480551Y-55006235D01*
X73480856Y-55045063D01*
X73480856Y-55189017D01*
X75336272Y-55189017D01*
X75336272Y-55045063D01*
X75339586Y-54956231D01*
X75355880Y-54914144D01*
X75394676Y-54901658D01*
X75416246Y-54901108D01*
X75496221Y-54901108D01*
X75496221Y-55764836D01*
G37*
G36*
X73832745Y-57906815D02*
G01*
X73829357Y-57964419D01*
X73808187Y-57993144D01*
X73752727Y-58003032D01*
X73672796Y-58004131D01*
X73512846Y-58004131D01*
X73512846Y-58643929D01*
X75336272Y-58643929D01*
X75336272Y-58499975D01*
X75339586Y-58411143D01*
X75355880Y-58369056D01*
X75394676Y-58356570D01*
X75416246Y-58356020D01*
X75496221Y-58356020D01*
X75496221Y-59219748D01*
X75416246Y-59219748D01*
X75364720Y-59212764D01*
X75341818Y-59179820D01*
X75336300Y-59102932D01*
X75336272Y-59091788D01*
X75336272Y-58963828D01*
X73512846Y-58963828D01*
X73512846Y-59571637D01*
X73672796Y-59571637D01*
X73767482Y-59573734D01*
X73814698Y-59586625D01*
X73830949Y-59620215D01*
X73832745Y-59667607D01*
X73832745Y-59763577D01*
X73319968Y-59763577D01*
X73328435Y-58795881D01*
X73336901Y-57828186D01*
X73832745Y-57809500D01*
X73832745Y-57906815D01*
G37*
G36*
X75004819Y-60001922D02*
G01*
X75101587Y-60046485D01*
X75105619Y-60048556D01*
X75274142Y-60169822D01*
X75405607Y-60335900D01*
X75495699Y-60536634D01*
X75540103Y-60761871D01*
X75534504Y-61001456D01*
X75528220Y-61043174D01*
X75457104Y-61288652D01*
X75335917Y-61497506D01*
X75169144Y-61666536D01*
X74961271Y-61792543D01*
X74716782Y-61872326D01*
X74440162Y-61902686D01*
X74326568Y-61900547D01*
X74057527Y-61859470D01*
X73820063Y-61768611D01*
X73619673Y-61631965D01*
X73461853Y-61453530D01*
X73352099Y-61237302D01*
X73332880Y-61178031D01*
X73298943Y-60979676D01*
X73297857Y-60747949D01*
X73328300Y-60503566D01*
X73388948Y-60267243D01*
X73391585Y-60259420D01*
X73467747Y-60035491D01*
X73722223Y-60035491D01*
X73849385Y-60036765D01*
X73926136Y-60042986D01*
X73966030Y-60057754D01*
X73982622Y-60084668D01*
X73986693Y-60105720D01*
X73981783Y-60152016D01*
X73943404Y-60191263D01*
X73858994Y-60234997D01*
X73834003Y-60245935D01*
X73663496Y-60346335D01*
X73544290Y-60480815D01*
X73473884Y-60653525D01*
X73449775Y-60868617D01*
X73449747Y-60883224D01*
X73480086Y-61079913D01*
X73566299Y-61250517D01*
X73703446Y-61388827D01*
X73886588Y-61488639D01*
X73948352Y-61509724D01*
X74086089Y-61536646D01*
X74264148Y-61551209D01*
X74460096Y-61553510D01*
X74651501Y-61543646D01*
X74815928Y-61521716D01*
X74883057Y-61505654D01*
X75047074Y-61434072D01*
X75190667Y-61328901D01*
X75295933Y-61204604D01*
X75325042Y-61148668D01*
X75356148Y-61024622D01*
X75366684Y-60870514D01*
X75356693Y-60716090D01*
X75326220Y-60591099D01*
X75324217Y-60586290D01*
X75245440Y-60461353D01*
X75131691Y-60350536D01*
X75008375Y-60278242D01*
X74950501Y-60246965D01*
X74925435Y-60196828D01*
X74920403Y-60116258D01*
X74925894Y-60032544D01*
X74950144Y-59995853D01*
X75004819Y-60001922D01*
G37*
%TD*%
M02*
