M48
; DRILL file {KiCad (6.0.6)} date Thu Aug  3 10:40:04 2023
; FORMAT={-:-/ absolute / inch / decimal}
; #@! TF.CreationDate,2023-08-03T10:40:04+02:00
; #@! TF.GenerationSoftware,Kicad,Pcbnew,(6.0.6)
; #@! TF.FileFunction,Plated,1,2,PTH
FMAT,2
INCH
; #@! TA.AperFunction,Plated,PTH,ComponentDrill
T1C0.0295
; #@! TA.AperFunction,Plated,PTH,ComponentDrill
T2C0.0315
; #@! TA.AperFunction,Plated,PTH,ComponentDrill
T3C0.0354
; #@! TA.AperFunction,Plated,PTH,ComponentDrill
T4C0.0394
; #@! TA.AperFunction,Plated,PTH,ComponentDrill
T5C0.0433
; #@! TA.AperFunction,Plated,PTH,ComponentDrill
T6C0.0598
%
G90
G05
T1
X1.35Y-3.35
X1.35Y-3.4
X1.35Y-3.45
X1.65Y-3.35
X1.65Y-3.4
X1.65Y-3.45
X2.65Y-3.35
X2.65Y-3.4
X2.65Y-3.45
X2.95Y-3.35
X2.95Y-3.4
X2.95Y-3.45
T2
X0.65Y-1.5
X0.7484Y-1.5
X0.8Y-3.35
X0.8Y-3.45
X0.8Y-3.55
X0.8Y-3.65
X0.8Y-3.75
X0.8Y-3.85
X0.8Y-3.95
X0.8Y-4.05
X1.1Y-3.35
X1.1Y-3.45
X1.1Y-3.55
X1.1Y-3.65
X1.1Y-3.75
X1.1Y-3.85
X1.1Y-3.95
X1.1Y-4.05
X1.25Y-3.6
X1.3Y-3.15
X1.35Y-1.75
X1.3516Y-1.5
X1.45Y-1.5
X1.6Y-1.55
X1.65Y-3.6
X1.7Y-0.9
X1.7Y-1.05
X1.7Y-1.35
X1.7Y-3.15
X1.75Y-1.75
X1.8Y-1.05
X1.8Y-1.35
X1.9Y-1.05
X1.9Y-1.35
X2.0Y-0.9
X2.0Y-1.05
X2.0Y-1.35
X2.0Y-1.55
X2.1Y-3.35
X2.1Y-3.45
X2.1Y-3.55
X2.1Y-3.65
X2.1Y-3.75
X2.1Y-3.85
X2.1Y-3.95
X2.1Y-4.05
X2.15Y-1.15
X2.15Y-1.35
X2.15Y-1.5
X2.4Y-3.35
X2.4Y-3.45
X2.4Y-3.55
X2.4Y-3.65
X2.4Y-3.75
X2.4Y-3.85
X2.4Y-3.95
X2.4Y-4.05
X2.55Y-1.35
X2.55Y-1.5
X2.6Y-3.15
X2.6Y-3.6
X2.65Y-1.15
X2.7Y-1.35
X2.7Y-1.5
X3.0Y-3.15
X3.0Y-3.6
X3.05Y-1.65
X3.05Y-2.05
X3.1Y-1.35
X3.1Y-1.5
T3
X1.45Y-1.9
X1.45Y-2.0
X1.65Y-1.9
X1.65Y-2.0
X2.3Y-1.9
X2.3Y-2.0
X2.5Y-1.9
X2.5Y-2.0
T4
X0.85Y-2.35
X0.85Y-2.45
X0.85Y-2.55
X0.85Y-2.65
X1.2Y-2.2
X1.2Y-2.8
X1.3Y-2.2
X1.3Y-2.8
X1.3Y-3.85
X1.3Y-3.95
X1.3Y-4.05
X1.4Y-2.2
X1.4Y-2.8
X1.4Y-3.0
X1.5Y-2.2
X1.5Y-2.8
X1.5Y-3.0
X1.6Y-2.2
X1.6Y-2.8
X1.6Y-3.0
X1.6Y-3.85
X1.6Y-3.95
X1.6Y-4.05
X1.7Y-2.2
X1.7Y-2.8
X1.8Y-2.2
X1.8Y-2.8
X1.9Y-2.2
X1.9Y-2.8
X2.0Y-2.2
X2.0Y-2.8
X2.1Y-2.2
X2.1Y-2.8
X2.2Y-2.2
X2.2Y-2.8
X2.3Y-2.2
X2.3Y-2.8
X2.4Y-2.2
X2.4Y-2.8
X2.5Y-2.2
X2.5Y-2.8
X2.6Y-2.2
X2.6Y-2.8
X2.65Y-3.85
X2.65Y-3.95
X2.65Y-4.05
X2.7Y-3.0
X2.8Y-3.0
X2.85Y-1.15
X2.9Y-3.0
X2.95Y-1.15
X2.95Y-3.85
X2.95Y-3.95
X2.95Y-4.05
X3.05Y-1.15
T5
X0.6728Y-1.9
X0.6728Y-2.1559
X0.7Y-0.85
X0.7Y-1.25
X0.75Y-3.0
X0.75Y-3.15
X0.85Y-1.9
X0.85Y-2.1559
X0.95Y-1.1
X0.95Y-1.5
X0.95Y-1.75
X1.05Y-1.75
X1.15Y-1.1
X1.15Y-1.5
X1.15Y-1.75
X1.15Y-3.0
X1.15Y-3.15
X1.4Y-0.85
X1.4Y-1.25
X1.9228Y-1.75
X1.9228Y-2.0059
X2.05Y-3.0
X2.05Y-3.15
X2.1Y-1.75
X2.1Y-2.0059
X2.45Y-3.0
X2.45Y-3.15
X2.6728Y-1.75
X2.6728Y-2.0059
X2.85Y-1.75
X2.85Y-2.0059
T6
X0.7Y-4.4
X0.9Y-4.4
X0.95Y-0.85
X1.1Y-4.4
X1.15Y-0.85
X1.35Y-4.4
X1.55Y-4.4
X1.75Y-4.4
X2.0Y-4.4
X2.2Y-0.85
X2.2Y-4.4
X2.4Y-0.85
X2.4Y-4.4
X2.65Y-0.85
X2.65Y-4.4
X2.85Y-0.85
X2.85Y-4.4
X3.05Y-0.85
X3.05Y-4.4
T0
M30
