%TF.GenerationSoftware,KiCad,Pcbnew,(6.0.6)*%
%TF.CreationDate,2023-08-03T10:39:42+02:00*%
%TF.ProjectId,SM01,534d3031-2e6b-4696-9361-645f70636258,1.2*%
%TF.SameCoordinates,Original*%
%TF.FileFunction,Other,User*%
%FSLAX46Y46*%
G04 Gerber Fmt 4.6, Leading zero omitted, Abs format (unit mm)*
G04 Created by KiCad (PCBNEW (6.0.6)) date 2023-08-03 10:39:42*
%MOMM*%
%LPD*%
G01*
G04 APERTURE LIST*
%ADD10C,0.050000*%
G04 APERTURE END LIST*
D10*
%TO.C,H4*%
X19936750Y-68609574D02*
G75*
G03*
X19936750Y-68609574I-3450000J0D01*
G01*
%TO.C,A1*%
X72640000Y-54370000D02*
X72640000Y-72650000D01*
X72640000Y-54370000D02*
X26420000Y-54370000D01*
X26420000Y-72650000D02*
X72640000Y-72650000D01*
X26420000Y-72650000D02*
X26420000Y-54370000D01*
%TO.C,C1*%
X21160000Y-38100000D02*
G75*
G03*
X21160000Y-38100000I-3400000J0D01*
G01*
%TO.C,C2*%
X38980000Y-38100000D02*
G75*
G03*
X38980000Y-38100000I-3400000J0D01*
G01*
%TO.C,D1*%
X33960000Y-20240000D02*
X33960000Y-33100000D01*
X33960000Y-33100000D02*
X37160000Y-33100000D01*
X37160000Y-33100000D02*
X37160000Y-20240000D01*
X37160000Y-20240000D02*
X33960000Y-20240000D01*
%TO.C,D2*%
X30810000Y-39450000D02*
X30810000Y-26590000D01*
X27610000Y-26590000D02*
X27610000Y-39450000D01*
X30810000Y-26590000D02*
X27610000Y-26590000D01*
X27610000Y-39450000D02*
X30810000Y-39450000D01*
%TO.C,D3*%
X16180000Y-33100000D02*
X19380000Y-33100000D01*
X16180000Y-20240000D02*
X16180000Y-33100000D01*
X19380000Y-20240000D02*
X16180000Y-20240000D01*
X19380000Y-33100000D02*
X19380000Y-20240000D01*
%TO.C,D4*%
X22530000Y-26590000D02*
X22530000Y-39450000D01*
X25730000Y-26590000D02*
X22530000Y-26590000D01*
X22530000Y-39450000D02*
X25730000Y-39450000D01*
X25730000Y-39450000D02*
X25730000Y-26590000D01*
%TO.C,D10*%
X63580000Y-78410000D02*
X50720000Y-78410000D01*
X63580000Y-81610000D02*
X63580000Y-78410000D01*
X50720000Y-78410000D02*
X50720000Y-81610000D01*
X50720000Y-81610000D02*
X63580000Y-81610000D01*
%TO.C,D11*%
X63580000Y-77800000D02*
X63580000Y-74600000D01*
X50720000Y-74600000D02*
X50720000Y-77800000D01*
X63580000Y-74600000D02*
X50720000Y-74600000D01*
X50720000Y-77800000D02*
X63580000Y-77800000D01*
%TO.C,J1*%
X63670000Y-25590000D02*
X53170000Y-25590000D01*
X53170000Y-17590000D02*
X53170000Y-25590000D01*
X63670000Y-25590000D02*
X63670000Y-17590000D01*
X53170000Y-17590000D02*
X63670000Y-17590000D01*
%TO.C,J2*%
X21420000Y-17590000D02*
X31920000Y-17590000D01*
X31920000Y-25590000D02*
X31920000Y-17590000D01*
X31920000Y-25590000D02*
X21420000Y-25590000D01*
X21420000Y-17590000D02*
X21420000Y-25590000D01*
%TO.C,J3*%
X80190000Y-25590000D02*
X64590000Y-25590000D01*
X80190000Y-25590000D02*
X80190000Y-17590000D01*
X64590000Y-17590000D02*
X80190000Y-17590000D01*
X64590000Y-17590000D02*
X64590000Y-25590000D01*
%TO.C,J8*%
X15060000Y-107760000D02*
X30660000Y-107760000D01*
X30660000Y-115760000D02*
X15060000Y-115760000D01*
X30660000Y-115760000D02*
X30660000Y-107760000D01*
X15060000Y-107760000D02*
X15060000Y-115760000D01*
%TO.C,J9*%
X31570000Y-107760000D02*
X31570000Y-115760000D01*
X47170000Y-115760000D02*
X47170000Y-107760000D01*
X47170000Y-115760000D02*
X31570000Y-115760000D01*
X31570000Y-107760000D02*
X47170000Y-107760000D01*
%TO.C,J10*%
X63680000Y-115760000D02*
X63680000Y-107760000D01*
X48080000Y-107760000D02*
X48080000Y-115760000D01*
X63680000Y-115760000D02*
X48080000Y-115760000D01*
X48080000Y-107760000D02*
X63680000Y-107760000D01*
%TO.C,J11*%
X80190000Y-115760000D02*
X80190000Y-107760000D01*
X64590000Y-107760000D02*
X80190000Y-107760000D01*
X64590000Y-107760000D02*
X64590000Y-115760000D01*
X80190000Y-115760000D02*
X64590000Y-115760000D01*
%TO.C,K1*%
X18770000Y-104490000D02*
X29470000Y-104490000D01*
X29470000Y-104490000D02*
X29470000Y-83490000D01*
X29470000Y-83490000D02*
X18770000Y-83490000D01*
X18770000Y-83490000D02*
X18770000Y-104490000D01*
%TO.C,K2*%
X51790000Y-83490000D02*
X51790000Y-104490000D01*
X62490000Y-104490000D02*
X62490000Y-83490000D01*
X51790000Y-104490000D02*
X62490000Y-104490000D01*
X62490000Y-83490000D02*
X51790000Y-83490000D01*
%TO.C,Q4*%
X72200000Y-89090000D02*
X76940000Y-89090000D01*
X76940000Y-83630000D02*
X76940000Y-89090000D01*
X72200000Y-89090000D02*
X72200000Y-83630000D01*
X76940000Y-83630000D02*
X72200000Y-83630000D01*
%TO.C,R1*%
X53560000Y-31060000D02*
X68360000Y-31060000D01*
X68360000Y-31060000D02*
X68360000Y-27360000D01*
X68360000Y-27360000D02*
X53560000Y-27360000D01*
X53560000Y-27360000D02*
X53560000Y-31060000D01*
%TO.C,R2*%
X79790000Y-35790000D02*
X79790000Y-32790000D01*
X67530000Y-35790000D02*
X79790000Y-35790000D01*
X79790000Y-32790000D02*
X67530000Y-32790000D01*
X67530000Y-32790000D02*
X67530000Y-35790000D01*
%TO.C,R3*%
X67530000Y-39600000D02*
X79790000Y-39600000D01*
X67530000Y-36600000D02*
X67530000Y-39600000D01*
X79790000Y-39600000D02*
X79790000Y-36600000D01*
X79790000Y-36600000D02*
X67530000Y-36600000D01*
%TO.C,R4*%
X75970000Y-53120000D02*
X78970000Y-53120000D01*
X78970000Y-53120000D02*
X78970000Y-40860000D01*
X75970000Y-40860000D02*
X75970000Y-53120000D01*
X78970000Y-40860000D02*
X75970000Y-40860000D01*
%TO.C,R5*%
X53560000Y-32790000D02*
X53560000Y-35790000D01*
X65820000Y-35790000D02*
X65820000Y-32790000D01*
X65820000Y-32790000D02*
X53560000Y-32790000D01*
X53560000Y-35790000D02*
X65820000Y-35790000D01*
%TO.C,R6*%
X39590000Y-40870000D02*
X51850000Y-40870000D01*
X39590000Y-37870000D02*
X39590000Y-40870000D01*
X51850000Y-40870000D02*
X51850000Y-37870000D01*
X51850000Y-37870000D02*
X39590000Y-37870000D01*
%TO.C,R7*%
X45500000Y-45950000D02*
X45500000Y-42950000D01*
X33240000Y-45950000D02*
X45500000Y-45950000D01*
X33240000Y-42950000D02*
X33240000Y-45950000D01*
X45500000Y-42950000D02*
X33240000Y-42950000D01*
%TO.C,R8*%
X65820000Y-36600000D02*
X53560000Y-36600000D01*
X53560000Y-36600000D02*
X53560000Y-39600000D01*
X65820000Y-39600000D02*
X65820000Y-36600000D01*
X53560000Y-39600000D02*
X65820000Y-39600000D01*
%TO.C,R9*%
X31970000Y-78510000D02*
X31970000Y-81510000D01*
X44230000Y-78510000D02*
X31970000Y-78510000D01*
X44230000Y-81510000D02*
X44230000Y-78510000D01*
X31970000Y-81510000D02*
X44230000Y-81510000D01*
%TO.C,R10*%
X30700000Y-89940000D02*
X30700000Y-92940000D01*
X42960000Y-89940000D02*
X30700000Y-89940000D01*
X30700000Y-92940000D02*
X42960000Y-92940000D01*
X42960000Y-92940000D02*
X42960000Y-89940000D01*
%TO.C,R12*%
X64990000Y-92940000D02*
X77250000Y-92940000D01*
X77250000Y-89940000D02*
X64990000Y-89940000D01*
X64990000Y-89940000D02*
X64990000Y-92940000D01*
X77250000Y-92940000D02*
X77250000Y-89940000D01*
%TO.C,SW1*%
X15590000Y-56010000D02*
X15590000Y-47010000D01*
X23090000Y-56260000D02*
X22840000Y-56260000D01*
X15590000Y-46760000D02*
X15590000Y-47010000D01*
X23090000Y-46760000D02*
X23090000Y-47010000D01*
X22840000Y-56260000D02*
X15840000Y-56260000D01*
X15590000Y-56260000D02*
X15840000Y-56260000D01*
X23090000Y-56010000D02*
X23090000Y-56260000D01*
X23090000Y-47010000D02*
X23090000Y-56010000D01*
X22840000Y-46760000D02*
X23090000Y-46760000D01*
X15840000Y-46760000D02*
X22840000Y-46760000D01*
X15590000Y-56010000D02*
X15590000Y-56260000D01*
X15840000Y-46760000D02*
X15590000Y-46760000D01*
%TO.C,SW2*%
X47340000Y-52200000D02*
X47340000Y-52450000D01*
X54840000Y-52200000D02*
X54840000Y-52450000D01*
X54840000Y-52450000D02*
X54590000Y-52450000D01*
X47590000Y-42950000D02*
X47340000Y-42950000D01*
X47340000Y-52450000D02*
X47590000Y-52450000D01*
X47340000Y-42950000D02*
X47340000Y-43200000D01*
X47340000Y-52200000D02*
X47340000Y-43200000D01*
X47590000Y-42950000D02*
X54590000Y-42950000D01*
X54590000Y-52450000D02*
X47590000Y-52450000D01*
X54840000Y-42950000D02*
X54840000Y-43200000D01*
X54840000Y-43200000D02*
X54840000Y-52200000D01*
X54590000Y-42950000D02*
X54840000Y-42950000D01*
%TO.C,SW3*%
X66390000Y-52450000D02*
X66640000Y-52450000D01*
X73890000Y-43200000D02*
X73890000Y-52200000D01*
X73890000Y-52200000D02*
X73890000Y-52450000D01*
X66640000Y-42950000D02*
X73640000Y-42950000D01*
X66390000Y-52200000D02*
X66390000Y-43200000D01*
X73640000Y-42950000D02*
X73890000Y-42950000D01*
X66640000Y-42950000D02*
X66390000Y-42950000D01*
X73640000Y-52450000D02*
X66640000Y-52450000D01*
X73890000Y-42950000D02*
X73890000Y-43200000D01*
X73890000Y-52450000D02*
X73640000Y-52450000D01*
X66390000Y-42950000D02*
X66390000Y-43200000D01*
X66390000Y-52200000D02*
X66390000Y-52450000D01*
%TO.C,U1*%
X41650000Y-35370000D02*
X52350000Y-35370000D01*
X52350000Y-35370000D02*
X52350000Y-25570000D01*
X52350000Y-25570000D02*
X41650000Y-25570000D01*
X41650000Y-25570000D02*
X41650000Y-35370000D01*
%TO.C,U2*%
X31920000Y-45960000D02*
X31920000Y-41050000D01*
X21420000Y-45960000D02*
X31920000Y-45960000D01*
X21420000Y-41050000D02*
X21420000Y-45960000D01*
X31920000Y-41050000D02*
X21420000Y-41050000D01*
%TO.C,J5*%
X23390000Y-57890000D02*
X19790000Y-57890000D01*
X19790000Y-57890000D02*
X19790000Y-69090000D01*
X23390000Y-69090000D02*
X23390000Y-57890000D01*
X19790000Y-69090000D02*
X23390000Y-69090000D01*
%TO.C,Q1*%
X36300000Y-83630000D02*
X36300000Y-89090000D01*
X31560000Y-89090000D02*
X31560000Y-83630000D01*
X36300000Y-83630000D02*
X31560000Y-83630000D01*
X31560000Y-89090000D02*
X36300000Y-89090000D01*
%TO.C,Q3*%
X69320000Y-83630000D02*
X64580000Y-83630000D01*
X69320000Y-83630000D02*
X69320000Y-89090000D01*
X64580000Y-89090000D02*
X64580000Y-83630000D01*
X64580000Y-89090000D02*
X69320000Y-89090000D01*
%TO.C,Q2*%
X39180000Y-89090000D02*
X43920000Y-89090000D01*
X43920000Y-83630000D02*
X39180000Y-83630000D01*
X43920000Y-83630000D02*
X43920000Y-89090000D01*
X39180000Y-89090000D02*
X39180000Y-83630000D01*
%TO.C,D5*%
X51850000Y-21610000D02*
X42130000Y-21610000D01*
X42130000Y-21610000D02*
X42130000Y-24110000D01*
X42130000Y-24110000D02*
X51850000Y-24110000D01*
X51850000Y-24110000D02*
X51850000Y-21610000D01*
%TO.C,J6*%
X33760000Y-78000000D02*
X42410000Y-78000000D01*
X33760000Y-74400000D02*
X33760000Y-78000000D01*
X42410000Y-74400000D02*
X33760000Y-74400000D01*
X42410000Y-78000000D02*
X42410000Y-74400000D01*
%TO.C,J7*%
X75430000Y-78000000D02*
X75430000Y-74400000D01*
X66780000Y-74400000D02*
X66780000Y-78000000D01*
X75430000Y-74400000D02*
X66780000Y-74400000D01*
X66780000Y-78000000D02*
X75430000Y-78000000D01*
%TO.C,R11*%
X64990000Y-81510000D02*
X77250000Y-81510000D01*
X64990000Y-78510000D02*
X64990000Y-81510000D01*
X77250000Y-81510000D02*
X77250000Y-78510000D01*
X77250000Y-78510000D02*
X64990000Y-78510000D01*
%TO.C,J4*%
X70620000Y-31010000D02*
X79270000Y-31010000D01*
X70620000Y-27410000D02*
X70620000Y-31010000D01*
X79270000Y-27410000D02*
X70620000Y-27410000D01*
X79270000Y-31010000D02*
X79270000Y-27410000D01*
%TO.C,J12*%
X34820000Y-104640000D02*
X34820000Y-95990000D01*
X31220000Y-95990000D02*
X31220000Y-104640000D01*
X34820000Y-95990000D02*
X31220000Y-95990000D01*
X31220000Y-104640000D02*
X34820000Y-104640000D01*
%TO.C,J13*%
X38840000Y-95990000D02*
X38840000Y-104640000D01*
X42440000Y-95990000D02*
X38840000Y-95990000D01*
X38840000Y-104640000D02*
X42440000Y-104640000D01*
X42440000Y-104640000D02*
X42440000Y-95990000D01*
%TO.C,J14*%
X65510000Y-104640000D02*
X69110000Y-104640000D01*
X65510000Y-95990000D02*
X65510000Y-104640000D01*
X69110000Y-104640000D02*
X69110000Y-95990000D01*
X69110000Y-95990000D02*
X65510000Y-95990000D01*
%TO.C,J15*%
X76730000Y-104640000D02*
X76730000Y-95990000D01*
X73130000Y-104640000D02*
X76730000Y-104640000D01*
X76730000Y-95990000D02*
X73130000Y-95990000D01*
X73130000Y-95990000D02*
X73130000Y-104640000D01*
%TO.C,D6*%
X34580000Y-47110000D02*
X34580000Y-51960000D01*
X39080000Y-47110000D02*
X34580000Y-47110000D01*
X34580000Y-51960000D02*
X39080000Y-51960000D01*
X39080000Y-51960000D02*
X39080000Y-47110000D01*
%TO.C,D7*%
X44160000Y-47110000D02*
X39660000Y-47110000D01*
X39660000Y-51960000D02*
X44160000Y-51960000D01*
X39660000Y-47110000D02*
X39660000Y-51960000D01*
X44160000Y-51960000D02*
X44160000Y-47110000D01*
%TO.C,D8*%
X56170000Y-51960000D02*
X60670000Y-51960000D01*
X60670000Y-47110000D02*
X56170000Y-47110000D01*
X60670000Y-51960000D02*
X60670000Y-47110000D01*
X56170000Y-47110000D02*
X56170000Y-51960000D01*
%TO.C,D9*%
X61250000Y-51960000D02*
X65750000Y-51960000D01*
X61250000Y-47110000D02*
X61250000Y-51960000D01*
X65750000Y-51960000D02*
X65750000Y-47110000D01*
X65750000Y-47110000D02*
X61250000Y-47110000D01*
%TO.C,D12*%
X17700000Y-74600000D02*
X17700000Y-77800000D01*
X30560000Y-77800000D02*
X30560000Y-74600000D01*
X17700000Y-77800000D02*
X30560000Y-77800000D01*
X30560000Y-74600000D02*
X17700000Y-74600000D01*
%TO.C,D13*%
X30560000Y-81610000D02*
X30560000Y-78410000D01*
X17700000Y-78410000D02*
X17700000Y-81610000D01*
X30560000Y-78410000D02*
X17700000Y-78410000D01*
X17700000Y-81610000D02*
X30560000Y-81610000D01*
%TO.C,H1*%
X43633559Y-20319999D02*
G75*
G03*
X43633559Y-20319999I-3450000J0D01*
G01*
%TO.C,H2*%
X82190000Y-68580000D02*
G75*
G03*
X82190000Y-68580000I-3450000J0D01*
G01*
%TO.C,H3*%
X51710000Y-104140000D02*
G75*
G03*
X51710000Y-104140000I-3450000J0D01*
G01*
%TD*%
M02*
